G04 #@! TF.GenerationSoftware,KiCad,Pcbnew,8.0.5*
G04 #@! TF.CreationDate,2024-09-09T15:46:43-04:00*
G04 #@! TF.ProjectId,pi_max31328,70695f6d-6178-4333-9133-32382e6b6963,rev?*
G04 #@! TF.SameCoordinates,Original*
G04 #@! TF.FileFunction,Legend,Bot*
G04 #@! TF.FilePolarity,Positive*
%FSLAX46Y46*%
G04 Gerber Fmt 4.6, Leading zero omitted, Abs format (unit mm)*
G04 Created by KiCad (PCBNEW 8.0.5) date 2024-09-09 15:46:43*
%MOMM*%
%LPD*%
G01*
G04 APERTURE LIST*
%ADD10C,0.100000*%
%ADD11C,0.200000*%
%ADD12R,1.700000X1.700000*%
%ADD13O,1.700000X1.700000*%
%ADD14R,2.900000X3.500000*%
%ADD15R,3.960000X3.960000*%
G04 APERTURE END LIST*
D10*
G04 #@! TO.C,BAT1*
X22300000Y-22695000D02*
X22300000Y-22695000D01*
X22300000Y-22695000D02*
X22300000Y-24500000D01*
X22300000Y-24500000D02*
X22300000Y-22695000D01*
X22300000Y-24500000D02*
X22300000Y-24500000D01*
X22300000Y-29750000D02*
X22300000Y-29750000D01*
X22300000Y-29750000D02*
X22300000Y-31305000D01*
X22300000Y-31305000D02*
X22300000Y-29750000D01*
X22300000Y-31305000D02*
X22300000Y-31305000D01*
X22300000Y-31305000D02*
X22300000Y-31305000D01*
X22300000Y-31305000D02*
X32900000Y-31305000D01*
X22350000Y-22695000D02*
X22350000Y-22695000D01*
X22350000Y-22695000D02*
X32900000Y-22695000D01*
X32900000Y-22695000D02*
X22350000Y-22695000D01*
X32900000Y-22695000D02*
X32900000Y-22695000D01*
X32900000Y-22695000D02*
X32900000Y-22695000D01*
X32900000Y-22695000D02*
X32900000Y-24000000D01*
X32900000Y-24000000D02*
X32900000Y-22695000D01*
X32900000Y-24000000D02*
X32900000Y-24000000D01*
X32900000Y-29750000D02*
X32900000Y-29750000D01*
X32900000Y-29750000D02*
X32900000Y-31250000D01*
X32900000Y-31250000D02*
X32900000Y-29750000D01*
X32900000Y-31250000D02*
X32900000Y-31250000D01*
X32900000Y-31305000D02*
X22300000Y-31305000D01*
X32900000Y-31305000D02*
X32900000Y-31305000D01*
D11*
X37000000Y-26900000D02*
X37000000Y-26900000D01*
X37000000Y-27000000D02*
X37000000Y-27000000D01*
X37000000Y-27000000D02*
X37000000Y-27000000D01*
X37000000Y-26900000D02*
G75*
G02*
X37000000Y-27000000I0J-50000D01*
G01*
X37000000Y-27000000D02*
G75*
G02*
X37000000Y-26900000I0J50000D01*
G01*
X37000000Y-27000000D02*
G75*
G02*
X37000000Y-26900000I0J50000D01*
G01*
G04 #@! TD*
%LPC*%
D12*
G04 #@! TO.C,J1*
X18025000Y-21950000D03*
D13*
X18025000Y-24490000D03*
X18025000Y-27030000D03*
X18025000Y-29570000D03*
X18025000Y-32110000D03*
G04 #@! TD*
D14*
G04 #@! TO.C,BAT1*
X34200000Y-27000000D03*
D15*
X27600000Y-27000000D03*
D14*
X21000000Y-27000000D03*
G04 #@! TD*
%LPD*%
M02*
