%TF.GenerationSoftware,KiCad,Pcbnew,10.0.5*%
%TF.CreationDate,2026-08-08T21:35:48-04:00*%
%TF.ProjectId,pi_max31328,70695f6d-6178-4333-9133-32382e6b6963,rev?*%
%TF.SameCoordinates,Original*%
%TF.FileFunction,Drillmap*%
%TF.FilePolarity,Positive*%
%FSLAX45Y45*%
G04 Gerber Fmt 4.5, Leading zero omitted, Abs format (unit mm)*
G04 Created by KiCad (PCBNEW 10.0.5) date 2026-08-08 21:35:48*
%MOMM*%
%LPD*%
G01*
G04 APERTURE LIST*
%ADD10C,0.050000*%
%ADD11C,0.200000*%
G04 APERTURE END LIST*
D10*
X1950000Y-2000000D02*
X3730000Y-2000000D01*
X1600000Y-3400000D02*
X1600000Y-2000000D01*
X1600000Y-2000000D02*
X1950000Y-2000000D01*
X1600000Y-3400000D02*
X1950000Y-3400000D01*
X3730000Y-2000000D02*
X3730000Y-3400000D01*
X3730000Y-3400000D02*
X1950000Y-3400000D01*
D11*
X1858277Y-3713984D02*
X1858277Y-3513984D01*
X1858277Y-3513984D02*
X1905896Y-3513984D01*
X1905896Y-3513984D02*
X1934467Y-3523508D01*
X1934467Y-3523508D02*
X1953515Y-3542555D01*
X1953515Y-3542555D02*
X1963039Y-3561603D01*
X1963039Y-3561603D02*
X1972562Y-3599698D01*
X1972562Y-3599698D02*
X1972562Y-3628269D01*
X1972562Y-3628269D02*
X1963039Y-3666365D01*
X1963039Y-3666365D02*
X1953515Y-3685412D01*
X1953515Y-3685412D02*
X1934467Y-3704460D01*
X1934467Y-3704460D02*
X1905896Y-3713984D01*
X1905896Y-3713984D02*
X1858277Y-3713984D01*
X2058277Y-3713984D02*
X2058277Y-3580650D01*
X2058277Y-3618746D02*
X2067801Y-3599698D01*
X2067801Y-3599698D02*
X2077324Y-3590174D01*
X2077324Y-3590174D02*
X2096372Y-3580650D01*
X2096372Y-3580650D02*
X2115420Y-3580650D01*
X2182086Y-3713984D02*
X2182086Y-3580650D01*
X2182086Y-3513984D02*
X2172563Y-3523508D01*
X2172563Y-3523508D02*
X2182086Y-3533031D01*
X2182086Y-3533031D02*
X2191610Y-3523508D01*
X2191610Y-3523508D02*
X2182086Y-3513984D01*
X2182086Y-3513984D02*
X2182086Y-3533031D01*
X2305896Y-3713984D02*
X2286848Y-3704460D01*
X2286848Y-3704460D02*
X2277324Y-3685412D01*
X2277324Y-3685412D02*
X2277324Y-3513984D01*
X2410658Y-3713984D02*
X2391610Y-3704460D01*
X2391610Y-3704460D02*
X2382086Y-3685412D01*
X2382086Y-3685412D02*
X2382086Y-3513984D01*
X2639229Y-3713984D02*
X2639229Y-3513984D01*
X2639229Y-3513984D02*
X2705896Y-3656841D01*
X2705896Y-3656841D02*
X2772563Y-3513984D01*
X2772563Y-3513984D02*
X2772563Y-3713984D01*
X2953515Y-3713984D02*
X2953515Y-3609222D01*
X2953515Y-3609222D02*
X2943991Y-3590174D01*
X2943991Y-3590174D02*
X2924943Y-3580650D01*
X2924943Y-3580650D02*
X2886848Y-3580650D01*
X2886848Y-3580650D02*
X2867801Y-3590174D01*
X2953515Y-3704460D02*
X2934467Y-3713984D01*
X2934467Y-3713984D02*
X2886848Y-3713984D01*
X2886848Y-3713984D02*
X2867801Y-3704460D01*
X2867801Y-3704460D02*
X2858277Y-3685412D01*
X2858277Y-3685412D02*
X2858277Y-3666365D01*
X2858277Y-3666365D02*
X2867801Y-3647317D01*
X2867801Y-3647317D02*
X2886848Y-3637793D01*
X2886848Y-3637793D02*
X2934467Y-3637793D01*
X2934467Y-3637793D02*
X2953515Y-3628269D01*
X3048753Y-3580650D02*
X3048753Y-3780650D01*
X3048753Y-3590174D02*
X3067801Y-3580650D01*
X3067801Y-3580650D02*
X3105896Y-3580650D01*
X3105896Y-3580650D02*
X3124943Y-3590174D01*
X3124943Y-3590174D02*
X3134467Y-3599698D01*
X3134467Y-3599698D02*
X3143991Y-3618746D01*
X3143991Y-3618746D02*
X3143991Y-3675888D01*
X3143991Y-3675888D02*
X3134467Y-3694936D01*
X3134467Y-3694936D02*
X3124943Y-3704460D01*
X3124943Y-3704460D02*
X3105896Y-3713984D01*
X3105896Y-3713984D02*
X3067801Y-3713984D01*
X3067801Y-3713984D02*
X3048753Y-3704460D01*
X3229705Y-3694936D02*
X3239229Y-3704460D01*
X3239229Y-3704460D02*
X3229705Y-3713984D01*
X3229705Y-3713984D02*
X3220182Y-3704460D01*
X3220182Y-3704460D02*
X3229705Y-3694936D01*
X3229705Y-3694936D02*
X3229705Y-3713984D01*
X3229705Y-3590174D02*
X3239229Y-3599698D01*
X3239229Y-3599698D02*
X3229705Y-3609222D01*
X3229705Y-3609222D02*
X3220182Y-3599698D01*
X3220182Y-3599698D02*
X3229705Y-3590174D01*
X3229705Y-3590174D02*
X3229705Y-3609222D01*
M02*
