G04 #@! TF.GenerationSoftware,KiCad,Pcbnew,10.0.5*
G04 #@! TF.CreationDate,2026-08-08T21:35:42-04:00*
G04 #@! TF.ProjectId,pi_max31328,70695f6d-6178-4333-9133-32382e6b6963,rev?*
G04 #@! TF.SameCoordinates,Original*
G04 #@! TF.FileFunction,Legend,Top*
G04 #@! TF.FilePolarity,Positive*
%FSLAX46Y46*%
G04 Gerber Fmt 4.6, Leading zero omitted, Abs format (unit mm)*
G04 Created by KiCad (PCBNEW 10.0.5) date 2026-08-08 21:35:42*
%MOMM*%
%LPD*%
G01*
G04 APERTURE LIST*
G04 Aperture macros list*
%AMRoundRect*
0 Rectangle with rounded corners*
0 $1 Rounding radius*
0 $2 $3 $4 $5 $6 $7 $8 $9 X,Y pos of 4 corners*
0 Add a 4 corners polygon primitive as box body*
4,1,4,$2,$3,$4,$5,$6,$7,$8,$9,$2,$3,0*
0 Add four circle primitives for the rounded corners*
1,1,$1+$1,$2,$3*
1,1,$1+$1,$4,$5*
1,1,$1+$1,$6,$7*
1,1,$1+$1,$8,$9*
0 Add four rect primitives between the rounded corners*
20,1,$1+$1,$2,$3,$4,$5,0*
20,1,$1+$1,$4,$5,$6,$7,0*
20,1,$1+$1,$6,$7,$8,$9,0*
20,1,$1+$1,$8,$9,$2,$3,0*%
G04 Aperture macros list end*
%ADD10C,0.100000*%
%ADD11C,0.150000*%
%ADD12C,0.254000*%
%ADD13C,0.120000*%
%ADD14C,0.200000*%
%ADD15RoundRect,0.286780X-0.451220X0.261220X-0.451220X-0.261220X0.451220X-0.261220X0.451220X0.261220X0*%
%ADD16RoundRect,0.250000X0.250000X0.475000X-0.250000X0.475000X-0.250000X-0.475000X0.250000X-0.475000X0*%
%ADD17RoundRect,0.250000X-0.250000X-0.475000X0.250000X-0.475000X0.250000X0.475000X-0.250000X0.475000X0*%
%ADD18R,0.450000X0.875000*%
%ADD19O,1.700000X1.700000*%
%ADD20R,1.700000X1.700000*%
G04 APERTURE END LIST*
D10*
X27941979Y-21696895D02*
X28208646Y-22496895D01*
X28208646Y-22496895D02*
X28475312Y-21696895D01*
X29008645Y-22077847D02*
X29122931Y-22115942D01*
X29122931Y-22115942D02*
X29161026Y-22154038D01*
X29161026Y-22154038D02*
X29199122Y-22230228D01*
X29199122Y-22230228D02*
X29199122Y-22344514D01*
X29199122Y-22344514D02*
X29161026Y-22420704D01*
X29161026Y-22420704D02*
X29122931Y-22458800D01*
X29122931Y-22458800D02*
X29046741Y-22496895D01*
X29046741Y-22496895D02*
X28741979Y-22496895D01*
X28741979Y-22496895D02*
X28741979Y-21696895D01*
X28741979Y-21696895D02*
X29008645Y-21696895D01*
X29008645Y-21696895D02*
X29084836Y-21734990D01*
X29084836Y-21734990D02*
X29122931Y-21773085D01*
X29122931Y-21773085D02*
X29161026Y-21849276D01*
X29161026Y-21849276D02*
X29161026Y-21925466D01*
X29161026Y-21925466D02*
X29122931Y-22001657D01*
X29122931Y-22001657D02*
X29084836Y-22039752D01*
X29084836Y-22039752D02*
X29008645Y-22077847D01*
X29008645Y-22077847D02*
X28741979Y-22077847D01*
X29503883Y-22268323D02*
X29884836Y-22268323D01*
X29427693Y-22496895D02*
X29694360Y-21696895D01*
X29694360Y-21696895D02*
X29961026Y-22496895D01*
X30113407Y-21696895D02*
X30570550Y-21696895D01*
X30341978Y-22496895D02*
X30341978Y-21696895D01*
X30722931Y-21696895D02*
X31180074Y-21696895D01*
X30951502Y-22496895D02*
X30951502Y-21696895D01*
X31599122Y-21696895D02*
X31675312Y-21696895D01*
X31675312Y-21696895D02*
X31751503Y-21734990D01*
X31751503Y-21734990D02*
X31789598Y-21773085D01*
X31789598Y-21773085D02*
X31827693Y-21849276D01*
X31827693Y-21849276D02*
X31865788Y-22001657D01*
X31865788Y-22001657D02*
X31865788Y-22192133D01*
X31865788Y-22192133D02*
X31827693Y-22344514D01*
X31827693Y-22344514D02*
X31789598Y-22420704D01*
X31789598Y-22420704D02*
X31751503Y-22458800D01*
X31751503Y-22458800D02*
X31675312Y-22496895D01*
X31675312Y-22496895D02*
X31599122Y-22496895D01*
X31599122Y-22496895D02*
X31522931Y-22458800D01*
X31522931Y-22458800D02*
X31484836Y-22420704D01*
X31484836Y-22420704D02*
X31446741Y-22344514D01*
X31446741Y-22344514D02*
X31408645Y-22192133D01*
X31408645Y-22192133D02*
X31408645Y-22001657D01*
X31408645Y-22001657D02*
X31446741Y-21849276D01*
X31446741Y-21849276D02*
X31484836Y-21773085D01*
X31484836Y-21773085D02*
X31522931Y-21734990D01*
X31522931Y-21734990D02*
X31599122Y-21696895D01*
X32208646Y-22420704D02*
X32246741Y-22458800D01*
X32246741Y-22458800D02*
X32208646Y-22496895D01*
X32208646Y-22496895D02*
X32170550Y-22458800D01*
X32170550Y-22458800D02*
X32208646Y-22420704D01*
X32208646Y-22420704D02*
X32208646Y-22496895D01*
X33008645Y-22496895D02*
X32551502Y-22496895D01*
X32780074Y-22496895D02*
X32780074Y-21696895D01*
X32780074Y-21696895D02*
X32703883Y-21811180D01*
X32703883Y-21811180D02*
X32627693Y-21887371D01*
X32627693Y-21887371D02*
X32551502Y-21925466D01*
X33694360Y-21963561D02*
X33694360Y-22496895D01*
X33351503Y-21963561D02*
X33351503Y-22382609D01*
X33351503Y-22382609D02*
X33389598Y-22458800D01*
X33389598Y-22458800D02*
X33465788Y-22496895D01*
X33465788Y-22496895D02*
X33580074Y-22496895D01*
X33580074Y-22496895D02*
X33656265Y-22458800D01*
X33656265Y-22458800D02*
X33694360Y-22420704D01*
X34341979Y-22077847D02*
X34075313Y-22077847D01*
X34075313Y-22496895D02*
X34075313Y-21696895D01*
X34075313Y-21696895D02*
X34456265Y-21696895D01*
X35180074Y-22496895D02*
X34722931Y-22496895D01*
X34951503Y-22496895D02*
X34951503Y-21696895D01*
X34951503Y-21696895D02*
X34875312Y-21811180D01*
X34875312Y-21811180D02*
X34799122Y-21887371D01*
X34799122Y-21887371D02*
X34722931Y-21925466D01*
X35865789Y-21963561D02*
X35865789Y-22496895D01*
X35522932Y-21963561D02*
X35522932Y-22382609D01*
X35522932Y-22382609D02*
X35561027Y-22458800D01*
X35561027Y-22458800D02*
X35637217Y-22496895D01*
X35637217Y-22496895D02*
X35751503Y-22496895D01*
X35751503Y-22496895D02*
X35827694Y-22458800D01*
X35827694Y-22458800D02*
X35865789Y-22420704D01*
X36513408Y-22077847D02*
X36246742Y-22077847D01*
X36246742Y-22496895D02*
X36246742Y-21696895D01*
X36246742Y-21696895D02*
X36627694Y-21696895D01*
D11*
X32680430Y-31042857D02*
X31880430Y-30942857D01*
X31880430Y-30942857D02*
X32451858Y-30747619D01*
X32451858Y-30747619D02*
X31880430Y-30409524D01*
X31880430Y-30409524D02*
X32680430Y-30509524D01*
X32451858Y-30138095D02*
X32451858Y-29757143D01*
X32680430Y-30242857D02*
X31880430Y-29876190D01*
X31880430Y-29876190D02*
X32680430Y-29709524D01*
X31880430Y-29419048D02*
X32680430Y-28985714D01*
X31880430Y-28885714D02*
X32680430Y-29519048D01*
X31880430Y-28657143D02*
X31880430Y-28161905D01*
X31880430Y-28161905D02*
X32185192Y-28466667D01*
X32185192Y-28466667D02*
X32185192Y-28352381D01*
X32185192Y-28352381D02*
X32223287Y-28280952D01*
X32223287Y-28280952D02*
X32261382Y-28247619D01*
X32261382Y-28247619D02*
X32337573Y-28219047D01*
X32337573Y-28219047D02*
X32528049Y-28242857D01*
X32528049Y-28242857D02*
X32604239Y-28290476D01*
X32604239Y-28290476D02*
X32642335Y-28333333D01*
X32642335Y-28333333D02*
X32680430Y-28414286D01*
X32680430Y-28414286D02*
X32680430Y-28642857D01*
X32680430Y-28642857D02*
X32642335Y-28714286D01*
X32642335Y-28714286D02*
X32604239Y-28747619D01*
X32680430Y-27500000D02*
X32680430Y-27957142D01*
X32680430Y-27728571D02*
X31880430Y-27628571D01*
X31880430Y-27628571D02*
X31994715Y-27719047D01*
X31994715Y-27719047D02*
X32070906Y-27804762D01*
X32070906Y-27804762D02*
X32109001Y-27885714D01*
X31880430Y-27133333D02*
X31880430Y-26638095D01*
X31880430Y-26638095D02*
X32185192Y-26942857D01*
X32185192Y-26942857D02*
X32185192Y-26828571D01*
X32185192Y-26828571D02*
X32223287Y-26757142D01*
X32223287Y-26757142D02*
X32261382Y-26723809D01*
X32261382Y-26723809D02*
X32337573Y-26695237D01*
X32337573Y-26695237D02*
X32528049Y-26719047D01*
X32528049Y-26719047D02*
X32604239Y-26766666D01*
X32604239Y-26766666D02*
X32642335Y-26809523D01*
X32642335Y-26809523D02*
X32680430Y-26890476D01*
X32680430Y-26890476D02*
X32680430Y-27119047D01*
X32680430Y-27119047D02*
X32642335Y-27190476D01*
X32642335Y-27190476D02*
X32604239Y-27223809D01*
X31956620Y-26342856D02*
X31918525Y-26299999D01*
X31918525Y-26299999D02*
X31880430Y-26219047D01*
X31880430Y-26219047D02*
X31880430Y-26028571D01*
X31880430Y-26028571D02*
X31918525Y-25957142D01*
X31918525Y-25957142D02*
X31956620Y-25923809D01*
X31956620Y-25923809D02*
X32032811Y-25895237D01*
X32032811Y-25895237D02*
X32109001Y-25904761D01*
X32109001Y-25904761D02*
X32223287Y-25957142D01*
X32223287Y-25957142D02*
X32680430Y-26471428D01*
X32680430Y-26471428D02*
X32680430Y-25976190D01*
X32223287Y-25461904D02*
X32185192Y-25533332D01*
X32185192Y-25533332D02*
X32147096Y-25566666D01*
X32147096Y-25566666D02*
X32070906Y-25595237D01*
X32070906Y-25595237D02*
X32032811Y-25590475D01*
X32032811Y-25590475D02*
X31956620Y-25542856D01*
X31956620Y-25542856D02*
X31918525Y-25499999D01*
X31918525Y-25499999D02*
X31880430Y-25419047D01*
X31880430Y-25419047D02*
X31880430Y-25266666D01*
X31880430Y-25266666D02*
X31918525Y-25195237D01*
X31918525Y-25195237D02*
X31956620Y-25161904D01*
X31956620Y-25161904D02*
X32032811Y-25133332D01*
X32032811Y-25133332D02*
X32070906Y-25138094D01*
X32070906Y-25138094D02*
X32147096Y-25185713D01*
X32147096Y-25185713D02*
X32185192Y-25228570D01*
X32185192Y-25228570D02*
X32223287Y-25309523D01*
X32223287Y-25309523D02*
X32223287Y-25461904D01*
X32223287Y-25461904D02*
X32261382Y-25542856D01*
X32261382Y-25542856D02*
X32299477Y-25585713D01*
X32299477Y-25585713D02*
X32375668Y-25633332D01*
X32375668Y-25633332D02*
X32528049Y-25652380D01*
X32528049Y-25652380D02*
X32604239Y-25623808D01*
X32604239Y-25623808D02*
X32642335Y-25590475D01*
X32642335Y-25590475D02*
X32680430Y-25519047D01*
X32680430Y-25519047D02*
X32680430Y-25366666D01*
X32680430Y-25366666D02*
X32642335Y-25285713D01*
X32642335Y-25285713D02*
X32604239Y-25242856D01*
X32604239Y-25242856D02*
X32528049Y-25195237D01*
X32528049Y-25195237D02*
X32375668Y-25176189D01*
X32375668Y-25176189D02*
X32299477Y-25204761D01*
X32299477Y-25204761D02*
X32261382Y-25238094D01*
X32261382Y-25238094D02*
X32223287Y-25309523D01*
X32147096Y-24309522D02*
X32147096Y-24004760D01*
X32680430Y-24261903D02*
X31994715Y-24176189D01*
X31994715Y-24176189D02*
X31918525Y-24128570D01*
X31918525Y-24128570D02*
X31880430Y-24047618D01*
X31880430Y-24047618D02*
X31880430Y-23971427D01*
X32680430Y-23690475D02*
X32642335Y-23761903D01*
X32642335Y-23761903D02*
X32604239Y-23795236D01*
X32604239Y-23795236D02*
X32528049Y-23823808D01*
X32528049Y-23823808D02*
X32299477Y-23795236D01*
X32299477Y-23795236D02*
X32223287Y-23747617D01*
X32223287Y-23747617D02*
X32185192Y-23704760D01*
X32185192Y-23704760D02*
X32147096Y-23623808D01*
X32147096Y-23623808D02*
X32147096Y-23509522D01*
X32147096Y-23509522D02*
X32185192Y-23438094D01*
X32185192Y-23438094D02*
X32223287Y-23404760D01*
X32223287Y-23404760D02*
X32299477Y-23376189D01*
X32299477Y-23376189D02*
X32528049Y-23404760D01*
X32528049Y-23404760D02*
X32604239Y-23452379D01*
X32604239Y-23452379D02*
X32642335Y-23495236D01*
X32642335Y-23495236D02*
X32680430Y-23576189D01*
X32680430Y-23576189D02*
X32680430Y-23690475D01*
X32680430Y-23080950D02*
X32147096Y-23014284D01*
X32299477Y-23033331D02*
X32223287Y-22985712D01*
X32223287Y-22985712D02*
X32185192Y-22942855D01*
X32185192Y-22942855D02*
X32147096Y-22861903D01*
X32147096Y-22861903D02*
X32147096Y-22785712D01*
X33968385Y-30204761D02*
X33587432Y-30423809D01*
X33968385Y-30661904D02*
X33168385Y-30561904D01*
X33168385Y-30561904D02*
X33168385Y-30257142D01*
X33168385Y-30257142D02*
X33206480Y-30185714D01*
X33206480Y-30185714D02*
X33244575Y-30152380D01*
X33244575Y-30152380D02*
X33320766Y-30123809D01*
X33320766Y-30123809D02*
X33435051Y-30138095D01*
X33435051Y-30138095D02*
X33511242Y-30185714D01*
X33511242Y-30185714D02*
X33549337Y-30228571D01*
X33549337Y-30228571D02*
X33587432Y-30309523D01*
X33587432Y-30309523D02*
X33587432Y-30614285D01*
X33968385Y-29519047D02*
X33549337Y-29466666D01*
X33549337Y-29466666D02*
X33473147Y-29495238D01*
X33473147Y-29495238D02*
X33435051Y-29566666D01*
X33435051Y-29566666D02*
X33435051Y-29719047D01*
X33435051Y-29719047D02*
X33473147Y-29799999D01*
X33930290Y-29514285D02*
X33968385Y-29595238D01*
X33968385Y-29595238D02*
X33968385Y-29785714D01*
X33968385Y-29785714D02*
X33930290Y-29857142D01*
X33930290Y-29857142D02*
X33854099Y-29885714D01*
X33854099Y-29885714D02*
X33777909Y-29876190D01*
X33777909Y-29876190D02*
X33701718Y-29828571D01*
X33701718Y-29828571D02*
X33663623Y-29747619D01*
X33663623Y-29747619D02*
X33663623Y-29557142D01*
X33663623Y-29557142D02*
X33625528Y-29476190D01*
X33930290Y-29171428D02*
X33968385Y-29099999D01*
X33968385Y-29099999D02*
X33968385Y-28947618D01*
X33968385Y-28947618D02*
X33930290Y-28866666D01*
X33930290Y-28866666D02*
X33854099Y-28819047D01*
X33854099Y-28819047D02*
X33816004Y-28814285D01*
X33816004Y-28814285D02*
X33739813Y-28842856D01*
X33739813Y-28842856D02*
X33701718Y-28914285D01*
X33701718Y-28914285D02*
X33701718Y-29028570D01*
X33701718Y-29028570D02*
X33663623Y-29099999D01*
X33663623Y-29099999D02*
X33587432Y-29128570D01*
X33587432Y-29128570D02*
X33549337Y-29123809D01*
X33549337Y-29123809D02*
X33473147Y-29076189D01*
X33473147Y-29076189D02*
X33435051Y-28995237D01*
X33435051Y-28995237D02*
X33435051Y-28880951D01*
X33435051Y-28880951D02*
X33473147Y-28809523D01*
X33435051Y-28423809D02*
X34235051Y-28523809D01*
X33473147Y-28428570D02*
X33435051Y-28347618D01*
X33435051Y-28347618D02*
X33435051Y-28195237D01*
X33435051Y-28195237D02*
X33473147Y-28123809D01*
X33473147Y-28123809D02*
X33511242Y-28090475D01*
X33511242Y-28090475D02*
X33587432Y-28061904D01*
X33587432Y-28061904D02*
X33816004Y-28090475D01*
X33816004Y-28090475D02*
X33892194Y-28138094D01*
X33892194Y-28138094D02*
X33930290Y-28180951D01*
X33930290Y-28180951D02*
X33968385Y-28261904D01*
X33968385Y-28261904D02*
X33968385Y-28414285D01*
X33968385Y-28414285D02*
X33930290Y-28485713D01*
X33968385Y-27766665D02*
X33168385Y-27666665D01*
X33473147Y-27704760D02*
X33435051Y-27623808D01*
X33435051Y-27623808D02*
X33435051Y-27471427D01*
X33435051Y-27471427D02*
X33473147Y-27399999D01*
X33473147Y-27399999D02*
X33511242Y-27366665D01*
X33511242Y-27366665D02*
X33587432Y-27338094D01*
X33587432Y-27338094D02*
X33816004Y-27366665D01*
X33816004Y-27366665D02*
X33892194Y-27414284D01*
X33892194Y-27414284D02*
X33930290Y-27457141D01*
X33930290Y-27457141D02*
X33968385Y-27538094D01*
X33968385Y-27538094D02*
X33968385Y-27690475D01*
X33968385Y-27690475D02*
X33930290Y-27761903D01*
X33930290Y-26733331D02*
X33968385Y-26814284D01*
X33968385Y-26814284D02*
X33968385Y-26966665D01*
X33968385Y-26966665D02*
X33930290Y-27038093D01*
X33930290Y-27038093D02*
X33854099Y-27066665D01*
X33854099Y-27066665D02*
X33549337Y-27028570D01*
X33549337Y-27028570D02*
X33473147Y-26980950D01*
X33473147Y-26980950D02*
X33435051Y-26899998D01*
X33435051Y-26899998D02*
X33435051Y-26747617D01*
X33435051Y-26747617D02*
X33473147Y-26676189D01*
X33473147Y-26676189D02*
X33549337Y-26647617D01*
X33549337Y-26647617D02*
X33625528Y-26657141D01*
X33625528Y-26657141D02*
X33701718Y-27047617D01*
X33968385Y-26357141D02*
X33435051Y-26290475D01*
X33587432Y-26309522D02*
X33511242Y-26261903D01*
X33511242Y-26261903D02*
X33473147Y-26219046D01*
X33473147Y-26219046D02*
X33435051Y-26138094D01*
X33435051Y-26138094D02*
X33435051Y-26061903D01*
X33968385Y-25861903D02*
X33435051Y-25795237D01*
X33587432Y-25814284D02*
X33511242Y-25766665D01*
X33511242Y-25766665D02*
X33473147Y-25723808D01*
X33473147Y-25723808D02*
X33435051Y-25642856D01*
X33435051Y-25642856D02*
X33435051Y-25566665D01*
X33435051Y-25376189D02*
X33968385Y-25252380D01*
X33435051Y-24995237D02*
X33968385Y-25252380D01*
X33968385Y-25252380D02*
X34158861Y-25352380D01*
X34158861Y-25352380D02*
X34196956Y-25395237D01*
X34196956Y-25395237D02*
X34235051Y-25476189D01*
X33968385Y-24147617D02*
X33168385Y-24047617D01*
X33168385Y-24047617D02*
X33168385Y-23742855D01*
X33168385Y-23742855D02*
X33206480Y-23671427D01*
X33206480Y-23671427D02*
X33244575Y-23638093D01*
X33244575Y-23638093D02*
X33320766Y-23609522D01*
X33320766Y-23609522D02*
X33435051Y-23623808D01*
X33435051Y-23623808D02*
X33511242Y-23671427D01*
X33511242Y-23671427D02*
X33549337Y-23714284D01*
X33549337Y-23714284D02*
X33587432Y-23795236D01*
X33587432Y-23795236D02*
X33587432Y-24099998D01*
X33968385Y-23347617D02*
X33435051Y-23280951D01*
X33168385Y-23247617D02*
X33206480Y-23290474D01*
X33206480Y-23290474D02*
X33244575Y-23257141D01*
X33244575Y-23257141D02*
X33206480Y-23214284D01*
X33206480Y-23214284D02*
X33168385Y-23247617D01*
X33168385Y-23247617D02*
X33244575Y-23257141D01*
X34723006Y-28442857D02*
X35256340Y-28319048D01*
X35256340Y-28319048D02*
X34723006Y-28061905D01*
X34456340Y-27571428D02*
X34456340Y-27495238D01*
X34456340Y-27495238D02*
X34494435Y-27423809D01*
X34494435Y-27423809D02*
X34532530Y-27390476D01*
X34532530Y-27390476D02*
X34608721Y-27361904D01*
X34608721Y-27361904D02*
X34761102Y-27342857D01*
X34761102Y-27342857D02*
X34951578Y-27366666D01*
X34951578Y-27366666D02*
X35103959Y-27423809D01*
X35103959Y-27423809D02*
X35180149Y-27471428D01*
X35180149Y-27471428D02*
X35218245Y-27514285D01*
X35218245Y-27514285D02*
X35256340Y-27595238D01*
X35256340Y-27595238D02*
X35256340Y-27671428D01*
X35256340Y-27671428D02*
X35218245Y-27742857D01*
X35218245Y-27742857D02*
X35180149Y-27776190D01*
X35180149Y-27776190D02*
X35103959Y-27804762D01*
X35103959Y-27804762D02*
X34951578Y-27823809D01*
X34951578Y-27823809D02*
X34761102Y-27800000D01*
X34761102Y-27800000D02*
X34608721Y-27742857D01*
X34608721Y-27742857D02*
X34532530Y-27695238D01*
X34532530Y-27695238D02*
X34494435Y-27652381D01*
X34494435Y-27652381D02*
X34456340Y-27571428D01*
X35180149Y-27052380D02*
X35218245Y-27019047D01*
X35218245Y-27019047D02*
X35256340Y-27061904D01*
X35256340Y-27061904D02*
X35218245Y-27095238D01*
X35218245Y-27095238D02*
X35180149Y-27052380D01*
X35180149Y-27052380D02*
X35256340Y-27061904D01*
X34456340Y-26657143D02*
X34456340Y-26161905D01*
X34456340Y-26161905D02*
X34761102Y-26466667D01*
X34761102Y-26466667D02*
X34761102Y-26352381D01*
X34761102Y-26352381D02*
X34799197Y-26280952D01*
X34799197Y-26280952D02*
X34837292Y-26247619D01*
X34837292Y-26247619D02*
X34913483Y-26219047D01*
X34913483Y-26219047D02*
X35103959Y-26242857D01*
X35103959Y-26242857D02*
X35180149Y-26290476D01*
X35180149Y-26290476D02*
X35218245Y-26333333D01*
X35218245Y-26333333D02*
X35256340Y-26414286D01*
X35256340Y-26414286D02*
X35256340Y-26642857D01*
X35256340Y-26642857D02*
X35218245Y-26714286D01*
X35218245Y-26714286D02*
X35180149Y-26747619D01*
X35256340Y-25919047D02*
X34456340Y-25819047D01*
X34761102Y-25857142D02*
X34723006Y-25776190D01*
X34723006Y-25776190D02*
X34723006Y-25623809D01*
X34723006Y-25623809D02*
X34761102Y-25552381D01*
X34761102Y-25552381D02*
X34799197Y-25519047D01*
X34799197Y-25519047D02*
X34875387Y-25490476D01*
X34875387Y-25490476D02*
X35103959Y-25519047D01*
X35103959Y-25519047D02*
X35180149Y-25566666D01*
X35180149Y-25566666D02*
X35218245Y-25609523D01*
X35218245Y-25609523D02*
X35256340Y-25690476D01*
X35256340Y-25690476D02*
X35256340Y-25842857D01*
X35256340Y-25842857D02*
X35218245Y-25914285D01*
X36468104Y-29509524D02*
X36506200Y-29552381D01*
X36506200Y-29552381D02*
X36544295Y-29671428D01*
X36544295Y-29671428D02*
X36544295Y-29747619D01*
X36544295Y-29747619D02*
X36506200Y-29857143D01*
X36506200Y-29857143D02*
X36430009Y-29923809D01*
X36430009Y-29923809D02*
X36353819Y-29952381D01*
X36353819Y-29952381D02*
X36201438Y-29971428D01*
X36201438Y-29971428D02*
X36087152Y-29957143D01*
X36087152Y-29957143D02*
X35934771Y-29900000D01*
X35934771Y-29900000D02*
X35858580Y-29852381D01*
X35858580Y-29852381D02*
X35782390Y-29766666D01*
X35782390Y-29766666D02*
X35744295Y-29647619D01*
X35744295Y-29647619D02*
X35744295Y-29571428D01*
X35744295Y-29571428D02*
X35782390Y-29461905D01*
X35782390Y-29461905D02*
X35820485Y-29428571D01*
X36468104Y-28709524D02*
X36506200Y-28752381D01*
X36506200Y-28752381D02*
X36544295Y-28871428D01*
X36544295Y-28871428D02*
X36544295Y-28947619D01*
X36544295Y-28947619D02*
X36506200Y-29057143D01*
X36506200Y-29057143D02*
X36430009Y-29123809D01*
X36430009Y-29123809D02*
X36353819Y-29152381D01*
X36353819Y-29152381D02*
X36201438Y-29171428D01*
X36201438Y-29171428D02*
X36087152Y-29157143D01*
X36087152Y-29157143D02*
X35934771Y-29100000D01*
X35934771Y-29100000D02*
X35858580Y-29052381D01*
X35858580Y-29052381D02*
X35782390Y-28966666D01*
X35782390Y-28966666D02*
X35744295Y-28847619D01*
X35744295Y-28847619D02*
X35744295Y-28771428D01*
X35744295Y-28771428D02*
X35782390Y-28661905D01*
X35782390Y-28661905D02*
X35820485Y-28628571D01*
X35744295Y-28123809D02*
X35744295Y-28047619D01*
X35744295Y-28047619D02*
X35782390Y-27976190D01*
X35782390Y-27976190D02*
X35820485Y-27942857D01*
X35820485Y-27942857D02*
X35896676Y-27914285D01*
X35896676Y-27914285D02*
X36049057Y-27895238D01*
X36049057Y-27895238D02*
X36239533Y-27919047D01*
X36239533Y-27919047D02*
X36391914Y-27976190D01*
X36391914Y-27976190D02*
X36468104Y-28023809D01*
X36468104Y-28023809D02*
X36506200Y-28066666D01*
X36506200Y-28066666D02*
X36544295Y-28147619D01*
X36544295Y-28147619D02*
X36544295Y-28223809D01*
X36544295Y-28223809D02*
X36506200Y-28295238D01*
X36506200Y-28295238D02*
X36468104Y-28328571D01*
X36468104Y-28328571D02*
X36391914Y-28357143D01*
X36391914Y-28357143D02*
X36239533Y-28376190D01*
X36239533Y-28376190D02*
X36049057Y-28352381D01*
X36049057Y-28352381D02*
X35896676Y-28295238D01*
X35896676Y-28295238D02*
X35820485Y-28247619D01*
X35820485Y-28247619D02*
X35782390Y-28204762D01*
X35782390Y-28204762D02*
X35744295Y-28123809D01*
X35744295Y-26752380D02*
X35744295Y-26599999D01*
X35744295Y-26599999D02*
X35782390Y-26528571D01*
X35782390Y-26528571D02*
X35858580Y-26461904D01*
X35858580Y-26461904D02*
X36010961Y-26442856D01*
X36010961Y-26442856D02*
X36277628Y-26476190D01*
X36277628Y-26476190D02*
X36430009Y-26533333D01*
X36430009Y-26533333D02*
X36506200Y-26619047D01*
X36506200Y-26619047D02*
X36544295Y-26699999D01*
X36544295Y-26699999D02*
X36544295Y-26852380D01*
X36544295Y-26852380D02*
X36506200Y-26923809D01*
X36506200Y-26923809D02*
X36430009Y-26990476D01*
X36430009Y-26990476D02*
X36277628Y-27009523D01*
X36277628Y-27009523D02*
X36010961Y-26976190D01*
X36010961Y-26976190D02*
X35858580Y-26919047D01*
X35858580Y-26919047D02*
X35782390Y-26833333D01*
X35782390Y-26833333D02*
X35744295Y-26752380D01*
X36506200Y-26200000D02*
X36544295Y-26090476D01*
X36544295Y-26090476D02*
X36544295Y-25900000D01*
X36544295Y-25900000D02*
X36506200Y-25819047D01*
X36506200Y-25819047D02*
X36468104Y-25776190D01*
X36468104Y-25776190D02*
X36391914Y-25728571D01*
X36391914Y-25728571D02*
X36315723Y-25719047D01*
X36315723Y-25719047D02*
X36239533Y-25747619D01*
X36239533Y-25747619D02*
X36201438Y-25780952D01*
X36201438Y-25780952D02*
X36163342Y-25852381D01*
X36163342Y-25852381D02*
X36125247Y-26000000D01*
X36125247Y-26000000D02*
X36087152Y-26071428D01*
X36087152Y-26071428D02*
X36049057Y-26104761D01*
X36049057Y-26104761D02*
X35972866Y-26133333D01*
X35972866Y-26133333D02*
X35896676Y-26123809D01*
X35896676Y-26123809D02*
X35820485Y-26076190D01*
X35820485Y-26076190D02*
X35782390Y-26033333D01*
X35782390Y-26033333D02*
X35744295Y-25952381D01*
X35744295Y-25952381D02*
X35744295Y-25761904D01*
X35744295Y-25761904D02*
X35782390Y-25652381D01*
X36544295Y-25404761D02*
X35744295Y-25304761D01*
X36125247Y-25352380D02*
X36125247Y-24895237D01*
X36544295Y-24947618D02*
X35744295Y-24847618D01*
X35744295Y-24542857D02*
X36544295Y-24452381D01*
X36544295Y-24452381D02*
X35972866Y-24228571D01*
X35972866Y-24228571D02*
X36544295Y-24147619D01*
X36544295Y-24147619D02*
X35744295Y-23857142D01*
D10*
X19496895Y-22919925D02*
X19496895Y-22424687D01*
X19496895Y-22424687D02*
X19801657Y-22691353D01*
X19801657Y-22691353D02*
X19801657Y-22577068D01*
X19801657Y-22577068D02*
X19839752Y-22500877D01*
X19839752Y-22500877D02*
X19877847Y-22462782D01*
X19877847Y-22462782D02*
X19954038Y-22424687D01*
X19954038Y-22424687D02*
X20144514Y-22424687D01*
X20144514Y-22424687D02*
X20220704Y-22462782D01*
X20220704Y-22462782D02*
X20258800Y-22500877D01*
X20258800Y-22500877D02*
X20296895Y-22577068D01*
X20296895Y-22577068D02*
X20296895Y-22805639D01*
X20296895Y-22805639D02*
X20258800Y-22881830D01*
X20258800Y-22881830D02*
X20220704Y-22919925D01*
X19496895Y-22196115D02*
X20296895Y-21929448D01*
X20296895Y-21929448D02*
X19496895Y-21662782D01*
X19496895Y-21472306D02*
X19496895Y-20977068D01*
X19496895Y-20977068D02*
X19801657Y-21243734D01*
X19801657Y-21243734D02*
X19801657Y-21129449D01*
X19801657Y-21129449D02*
X19839752Y-21053258D01*
X19839752Y-21053258D02*
X19877847Y-21015163D01*
X19877847Y-21015163D02*
X19954038Y-20977068D01*
X19954038Y-20977068D02*
X20144514Y-20977068D01*
X20144514Y-20977068D02*
X20220704Y-21015163D01*
X20220704Y-21015163D02*
X20258800Y-21053258D01*
X20258800Y-21053258D02*
X20296895Y-21129449D01*
X20296895Y-21129449D02*
X20296895Y-21358020D01*
X20296895Y-21358020D02*
X20258800Y-21434211D01*
X20258800Y-21434211D02*
X20220704Y-21472306D01*
X20258800Y-28081830D02*
X20296895Y-27967544D01*
X20296895Y-27967544D02*
X20296895Y-27777068D01*
X20296895Y-27777068D02*
X20258800Y-27700877D01*
X20258800Y-27700877D02*
X20220704Y-27662782D01*
X20220704Y-27662782D02*
X20144514Y-27624687D01*
X20144514Y-27624687D02*
X20068323Y-27624687D01*
X20068323Y-27624687D02*
X19992133Y-27662782D01*
X19992133Y-27662782D02*
X19954038Y-27700877D01*
X19954038Y-27700877D02*
X19915942Y-27777068D01*
X19915942Y-27777068D02*
X19877847Y-27929449D01*
X19877847Y-27929449D02*
X19839752Y-28005639D01*
X19839752Y-28005639D02*
X19801657Y-28043734D01*
X19801657Y-28043734D02*
X19725466Y-28081830D01*
X19725466Y-28081830D02*
X19649276Y-28081830D01*
X19649276Y-28081830D02*
X19573085Y-28043734D01*
X19573085Y-28043734D02*
X19534990Y-28005639D01*
X19534990Y-28005639D02*
X19496895Y-27929449D01*
X19496895Y-27929449D02*
X19496895Y-27738972D01*
X19496895Y-27738972D02*
X19534990Y-27624687D01*
X20220704Y-26824686D02*
X20258800Y-26862782D01*
X20258800Y-26862782D02*
X20296895Y-26977067D01*
X20296895Y-26977067D02*
X20296895Y-27053258D01*
X20296895Y-27053258D02*
X20258800Y-27167544D01*
X20258800Y-27167544D02*
X20182609Y-27243734D01*
X20182609Y-27243734D02*
X20106419Y-27281829D01*
X20106419Y-27281829D02*
X19954038Y-27319925D01*
X19954038Y-27319925D02*
X19839752Y-27319925D01*
X19839752Y-27319925D02*
X19687371Y-27281829D01*
X19687371Y-27281829D02*
X19611180Y-27243734D01*
X19611180Y-27243734D02*
X19534990Y-27167544D01*
X19534990Y-27167544D02*
X19496895Y-27053258D01*
X19496895Y-27053258D02*
X19496895Y-26977067D01*
X19496895Y-26977067D02*
X19534990Y-26862782D01*
X19534990Y-26862782D02*
X19573085Y-26824686D01*
X20296895Y-26100877D02*
X20296895Y-26481829D01*
X20296895Y-26481829D02*
X19496895Y-26481829D01*
X29141979Y-31496895D02*
X29408646Y-32296895D01*
X29408646Y-32296895D02*
X29675312Y-31496895D01*
X30399122Y-32220704D02*
X30361026Y-32258800D01*
X30361026Y-32258800D02*
X30246741Y-32296895D01*
X30246741Y-32296895D02*
X30170550Y-32296895D01*
X30170550Y-32296895D02*
X30056264Y-32258800D01*
X30056264Y-32258800D02*
X29980074Y-32182609D01*
X29980074Y-32182609D02*
X29941979Y-32106419D01*
X29941979Y-32106419D02*
X29903883Y-31954038D01*
X29903883Y-31954038D02*
X29903883Y-31839752D01*
X29903883Y-31839752D02*
X29941979Y-31687371D01*
X29941979Y-31687371D02*
X29980074Y-31611180D01*
X29980074Y-31611180D02*
X30056264Y-31534990D01*
X30056264Y-31534990D02*
X30170550Y-31496895D01*
X30170550Y-31496895D02*
X30246741Y-31496895D01*
X30246741Y-31496895D02*
X30361026Y-31534990D01*
X30361026Y-31534990D02*
X30399122Y-31573085D01*
X31199122Y-32220704D02*
X31161026Y-32258800D01*
X31161026Y-32258800D02*
X31046741Y-32296895D01*
X31046741Y-32296895D02*
X30970550Y-32296895D01*
X30970550Y-32296895D02*
X30856264Y-32258800D01*
X30856264Y-32258800D02*
X30780074Y-32182609D01*
X30780074Y-32182609D02*
X30741979Y-32106419D01*
X30741979Y-32106419D02*
X30703883Y-31954038D01*
X30703883Y-31954038D02*
X30703883Y-31839752D01*
X30703883Y-31839752D02*
X30741979Y-31687371D01*
X30741979Y-31687371D02*
X30780074Y-31611180D01*
X30780074Y-31611180D02*
X30856264Y-31534990D01*
X30856264Y-31534990D02*
X30970550Y-31496895D01*
X30970550Y-31496895D02*
X31046741Y-31496895D01*
X31046741Y-31496895D02*
X31161026Y-31534990D01*
X31161026Y-31534990D02*
X31199122Y-31573085D01*
X31694360Y-31496895D02*
X31770550Y-31496895D01*
X31770550Y-31496895D02*
X31846741Y-31534990D01*
X31846741Y-31534990D02*
X31884836Y-31573085D01*
X31884836Y-31573085D02*
X31922931Y-31649276D01*
X31922931Y-31649276D02*
X31961026Y-31801657D01*
X31961026Y-31801657D02*
X31961026Y-31992133D01*
X31961026Y-31992133D02*
X31922931Y-32144514D01*
X31922931Y-32144514D02*
X31884836Y-32220704D01*
X31884836Y-32220704D02*
X31846741Y-32258800D01*
X31846741Y-32258800D02*
X31770550Y-32296895D01*
X31770550Y-32296895D02*
X31694360Y-32296895D01*
X31694360Y-32296895D02*
X31618169Y-32258800D01*
X31618169Y-32258800D02*
X31580074Y-32220704D01*
X31580074Y-32220704D02*
X31541979Y-32144514D01*
X31541979Y-32144514D02*
X31503883Y-31992133D01*
X31503883Y-31992133D02*
X31503883Y-31801657D01*
X31503883Y-31801657D02*
X31541979Y-31649276D01*
X31541979Y-31649276D02*
X31580074Y-31573085D01*
X31580074Y-31573085D02*
X31618169Y-31534990D01*
X31618169Y-31534990D02*
X31694360Y-31496895D01*
X32303884Y-32220704D02*
X32341979Y-32258800D01*
X32341979Y-32258800D02*
X32303884Y-32296895D01*
X32303884Y-32296895D02*
X32265788Y-32258800D01*
X32265788Y-32258800D02*
X32303884Y-32220704D01*
X32303884Y-32220704D02*
X32303884Y-32296895D01*
X33103883Y-32296895D02*
X32646740Y-32296895D01*
X32875312Y-32296895D02*
X32875312Y-31496895D01*
X32875312Y-31496895D02*
X32799121Y-31611180D01*
X32799121Y-31611180D02*
X32722931Y-31687371D01*
X32722931Y-31687371D02*
X32646740Y-31725466D01*
X33789598Y-31763561D02*
X33789598Y-32296895D01*
X33446741Y-31763561D02*
X33446741Y-32182609D01*
X33446741Y-32182609D02*
X33484836Y-32258800D01*
X33484836Y-32258800D02*
X33561026Y-32296895D01*
X33561026Y-32296895D02*
X33675312Y-32296895D01*
X33675312Y-32296895D02*
X33751503Y-32258800D01*
X33751503Y-32258800D02*
X33789598Y-32220704D01*
X34437217Y-31877847D02*
X34170551Y-31877847D01*
X34170551Y-32296895D02*
X34170551Y-31496895D01*
X34170551Y-31496895D02*
X34551503Y-31496895D01*
X35275312Y-32296895D02*
X34818169Y-32296895D01*
X35046741Y-32296895D02*
X35046741Y-31496895D01*
X35046741Y-31496895D02*
X34970550Y-31611180D01*
X34970550Y-31611180D02*
X34894360Y-31687371D01*
X34894360Y-31687371D02*
X34818169Y-31725466D01*
X35961027Y-31763561D02*
X35961027Y-32296895D01*
X35618170Y-31763561D02*
X35618170Y-32182609D01*
X35618170Y-32182609D02*
X35656265Y-32258800D01*
X35656265Y-32258800D02*
X35732455Y-32296895D01*
X35732455Y-32296895D02*
X35846741Y-32296895D01*
X35846741Y-32296895D02*
X35922932Y-32258800D01*
X35922932Y-32258800D02*
X35961027Y-32220704D01*
X36608646Y-31877847D02*
X36341980Y-31877847D01*
X36341980Y-32296895D02*
X36341980Y-31496895D01*
X36341980Y-31496895D02*
X36722932Y-31496895D01*
X20296895Y-30143734D02*
X19496895Y-30143734D01*
X19496895Y-30143734D02*
X20296895Y-29686591D01*
X20296895Y-29686591D02*
X19496895Y-29686591D01*
X20220704Y-28848496D02*
X20258800Y-28886592D01*
X20258800Y-28886592D02*
X20296895Y-29000877D01*
X20296895Y-29000877D02*
X20296895Y-29077068D01*
X20296895Y-29077068D02*
X20258800Y-29191354D01*
X20258800Y-29191354D02*
X20182609Y-29267544D01*
X20182609Y-29267544D02*
X20106419Y-29305639D01*
X20106419Y-29305639D02*
X19954038Y-29343735D01*
X19954038Y-29343735D02*
X19839752Y-29343735D01*
X19839752Y-29343735D02*
X19687371Y-29305639D01*
X19687371Y-29305639D02*
X19611180Y-29267544D01*
X19611180Y-29267544D02*
X19534990Y-29191354D01*
X19534990Y-29191354D02*
X19496895Y-29077068D01*
X19496895Y-29077068D02*
X19496895Y-29000877D01*
X19496895Y-29000877D02*
X19534990Y-28886592D01*
X19534990Y-28886592D02*
X19573085Y-28848496D01*
X20258800Y-25481830D02*
X20296895Y-25367544D01*
X20296895Y-25367544D02*
X20296895Y-25177068D01*
X20296895Y-25177068D02*
X20258800Y-25100877D01*
X20258800Y-25100877D02*
X20220704Y-25062782D01*
X20220704Y-25062782D02*
X20144514Y-25024687D01*
X20144514Y-25024687D02*
X20068323Y-25024687D01*
X20068323Y-25024687D02*
X19992133Y-25062782D01*
X19992133Y-25062782D02*
X19954038Y-25100877D01*
X19954038Y-25100877D02*
X19915942Y-25177068D01*
X19915942Y-25177068D02*
X19877847Y-25329449D01*
X19877847Y-25329449D02*
X19839752Y-25405639D01*
X19839752Y-25405639D02*
X19801657Y-25443734D01*
X19801657Y-25443734D02*
X19725466Y-25481830D01*
X19725466Y-25481830D02*
X19649276Y-25481830D01*
X19649276Y-25481830D02*
X19573085Y-25443734D01*
X19573085Y-25443734D02*
X19534990Y-25405639D01*
X19534990Y-25405639D02*
X19496895Y-25329449D01*
X19496895Y-25329449D02*
X19496895Y-25138972D01*
X19496895Y-25138972D02*
X19534990Y-25024687D01*
X20296895Y-24681829D02*
X19496895Y-24681829D01*
X19496895Y-24681829D02*
X19496895Y-24491353D01*
X19496895Y-24491353D02*
X19534990Y-24377067D01*
X19534990Y-24377067D02*
X19611180Y-24300877D01*
X19611180Y-24300877D02*
X19687371Y-24262782D01*
X19687371Y-24262782D02*
X19839752Y-24224686D01*
X19839752Y-24224686D02*
X19954038Y-24224686D01*
X19954038Y-24224686D02*
X20106419Y-24262782D01*
X20106419Y-24262782D02*
X20182609Y-24300877D01*
X20182609Y-24300877D02*
X20258800Y-24377067D01*
X20258800Y-24377067D02*
X20296895Y-24491353D01*
X20296895Y-24491353D02*
X20296895Y-24681829D01*
X20068323Y-23919925D02*
X20068323Y-23538972D01*
X20296895Y-23996115D02*
X19496895Y-23729448D01*
X19496895Y-23729448D02*
X20296895Y-23462782D01*
X19534990Y-32724687D02*
X19496895Y-32800877D01*
X19496895Y-32800877D02*
X19496895Y-32915163D01*
X19496895Y-32915163D02*
X19534990Y-33029449D01*
X19534990Y-33029449D02*
X19611180Y-33105639D01*
X19611180Y-33105639D02*
X19687371Y-33143734D01*
X19687371Y-33143734D02*
X19839752Y-33181830D01*
X19839752Y-33181830D02*
X19954038Y-33181830D01*
X19954038Y-33181830D02*
X20106419Y-33143734D01*
X20106419Y-33143734D02*
X20182609Y-33105639D01*
X20182609Y-33105639D02*
X20258800Y-33029449D01*
X20258800Y-33029449D02*
X20296895Y-32915163D01*
X20296895Y-32915163D02*
X20296895Y-32838972D01*
X20296895Y-32838972D02*
X20258800Y-32724687D01*
X20258800Y-32724687D02*
X20220704Y-32686591D01*
X20220704Y-32686591D02*
X19954038Y-32686591D01*
X19954038Y-32686591D02*
X19954038Y-32838972D01*
X20296895Y-32343734D02*
X19496895Y-32343734D01*
X19496895Y-32343734D02*
X20296895Y-31886591D01*
X20296895Y-31886591D02*
X19496895Y-31886591D01*
X20296895Y-31505639D02*
X19496895Y-31505639D01*
X19496895Y-31505639D02*
X19496895Y-31315163D01*
X19496895Y-31315163D02*
X19534990Y-31200877D01*
X19534990Y-31200877D02*
X19611180Y-31124687D01*
X19611180Y-31124687D02*
X19687371Y-31086592D01*
X19687371Y-31086592D02*
X19839752Y-31048496D01*
X19839752Y-31048496D02*
X19954038Y-31048496D01*
X19954038Y-31048496D02*
X20106419Y-31086592D01*
X20106419Y-31086592D02*
X20182609Y-31124687D01*
X20182609Y-31124687D02*
X20258800Y-31200877D01*
X20258800Y-31200877D02*
X20296895Y-31315163D01*
X20296895Y-31315163D02*
X20296895Y-31505639D01*
X29563561Y-29295238D02*
X30096895Y-29295238D01*
X29258800Y-29485714D02*
X29830228Y-29676191D01*
X29830228Y-29676191D02*
X29830228Y-29180952D01*
X30096895Y-28876190D02*
X29296895Y-28876190D01*
X30096895Y-28419047D02*
X29639752Y-28761905D01*
X29296895Y-28419047D02*
X29754038Y-28876190D01*
X29296895Y-28152381D02*
X29296895Y-27619047D01*
X29296895Y-27619047D02*
X30096895Y-27961905D01*
X29563561Y-26361904D02*
X30096895Y-26361904D01*
X29258800Y-26552380D02*
X29830228Y-26742857D01*
X29830228Y-26742857D02*
X29830228Y-26247618D01*
X30096895Y-25942856D02*
X29296895Y-25942856D01*
X30096895Y-25485713D02*
X29639752Y-25828571D01*
X29296895Y-25485713D02*
X29754038Y-25942856D01*
X29296895Y-25219047D02*
X29296895Y-24685713D01*
X29296895Y-24685713D02*
X30096895Y-25028571D01*
D12*
X22532380Y-26304318D02*
X22532380Y-27332413D01*
X22532380Y-27332413D02*
X22592857Y-27453365D01*
X22592857Y-27453365D02*
X22653333Y-27513842D01*
X22653333Y-27513842D02*
X22774285Y-27574318D01*
X22774285Y-27574318D02*
X23016190Y-27574318D01*
X23016190Y-27574318D02*
X23137142Y-27513842D01*
X23137142Y-27513842D02*
X23197619Y-27453365D01*
X23197619Y-27453365D02*
X23258095Y-27332413D01*
X23258095Y-27332413D02*
X23258095Y-26304318D01*
X24528095Y-27574318D02*
X23802380Y-27574318D01*
X24165237Y-27574318D02*
X24165237Y-26304318D01*
X24165237Y-26304318D02*
X24044285Y-26485746D01*
X24044285Y-26485746D02*
X23923333Y-26606699D01*
X23923333Y-26606699D02*
X23802380Y-26667175D01*
D11*
X17691666Y-18634819D02*
X17691666Y-19349104D01*
X17691666Y-19349104D02*
X17644047Y-19491961D01*
X17644047Y-19491961D02*
X17548809Y-19587200D01*
X17548809Y-19587200D02*
X17405952Y-19634819D01*
X17405952Y-19634819D02*
X17310714Y-19634819D01*
X18691666Y-19634819D02*
X18120238Y-19634819D01*
X18405952Y-19634819D02*
X18405952Y-18634819D01*
X18405952Y-18634819D02*
X18310714Y-18777676D01*
X18310714Y-18777676D02*
X18215476Y-18872914D01*
X18215476Y-18872914D02*
X18120238Y-18920533D01*
G04 #@! TO.C,C4*
D13*
X22536252Y-22935000D02*
X22013748Y-22935000D01*
X22536252Y-21465000D02*
X22013748Y-21465000D01*
G04 #@! TO.C,C1*
X25938748Y-31015000D02*
X26461252Y-31015000D01*
X25938748Y-32485000D02*
X26461252Y-32485000D01*
G04 #@! TO.C,C2*
X22561252Y-32485000D02*
X22038748Y-32485000D01*
X22561252Y-31015000D02*
X22038748Y-31015000D01*
G04 #@! TO.C,C3*
X25913748Y-21465000D02*
X26436252Y-21465000D01*
X25913748Y-22935000D02*
X26436252Y-22935000D01*
G04 #@! TO.C,U1*
D14*
X21000000Y-25500000D02*
X21000000Y-28500000D01*
D10*
X21500000Y-30100000D02*
X21500000Y-30100000D01*
X21500000Y-30200000D02*
X21500000Y-30200000D01*
D14*
X26000000Y-25500000D02*
X26000000Y-28500000D01*
D10*
X21500000Y-30100000D02*
G75*
G02*
X21500000Y-30200000I0J-50000D01*
G01*
X21500000Y-30200000D02*
G75*
G02*
X21500000Y-30100000I0J50000D01*
G01*
G04 #@! TO.C,J1*
D13*
X19355000Y-23220000D02*
X19355000Y-33440000D01*
X19355000Y-20620000D02*
X19355000Y-21950000D01*
X18025000Y-20620000D02*
X19355000Y-20620000D01*
X16695000Y-33440000D02*
X19355000Y-33440000D01*
X16695000Y-23220000D02*
X19355000Y-23220000D01*
X16695000Y-23220000D02*
X16695000Y-33440000D01*
G04 #@! TD*
%LPC*%
D15*
G04 #@! TO.C,R2*
X28100000Y-26310000D03*
X28100000Y-24490000D03*
G04 #@! TD*
G04 #@! TO.C,R1*
X28100000Y-28015000D03*
X28100000Y-29835000D03*
G04 #@! TD*
D16*
G04 #@! TO.C,C4*
X23225000Y-22200000D03*
X21325000Y-22200000D03*
G04 #@! TD*
D17*
G04 #@! TO.C,C1*
X25250000Y-31750000D03*
X27150000Y-31750000D03*
G04 #@! TD*
D16*
G04 #@! TO.C,C2*
X23250000Y-31750000D03*
X21350000Y-31750000D03*
G04 #@! TD*
D17*
G04 #@! TO.C,C3*
X25225000Y-22200000D03*
X27125000Y-22200000D03*
G04 #@! TD*
D18*
G04 #@! TO.C,U1*
X21500000Y-29212000D03*
X22500000Y-29212000D03*
X23500000Y-29212000D03*
X24500000Y-29212000D03*
X25500000Y-29212000D03*
X25500000Y-24787000D03*
X24500000Y-24787000D03*
X23500000Y-24787000D03*
X22500000Y-24787000D03*
X21500000Y-24787000D03*
G04 #@! TD*
D19*
G04 #@! TO.C,J1*
X18025000Y-32110000D03*
X18025000Y-29570000D03*
X18025000Y-27030000D03*
X18025000Y-24490000D03*
D20*
X18025000Y-21950000D03*
G04 #@! TD*
%LPD*%
M02*
