%TF.GenerationSoftware,KiCad,Pcbnew,10.0.5*%
%TF.CreationDate,2026-08-08T21:35:48-04:00*%
%TF.ProjectId,pi_max31328,70695f6d-6178-4333-9133-32382e6b6963,rev?*%
%TF.SameCoordinates,Original*%
%TF.FileFunction,Drillmap*%
%TF.FilePolarity,Positive*%
%FSLAX45Y45*%
G04 Gerber Fmt 4.5, Leading zero omitted, Abs format (unit mm)*
G04 Created by KiCad (PCBNEW 10.0.5) date 2026-08-08 21:35:48*
%MOMM*%
%LPD*%
G01*
G04 APERTURE LIST*
%ADD10C,0.050000*%
%ADD11C,0.200000*%
%ADD12C,0.100000*%
G04 APERTURE END LIST*
D10*
X1950000Y-2000000D02*
X3730000Y-2000000D01*
X1600000Y-3400000D02*
X1600000Y-2000000D01*
X1600000Y-2000000D02*
X1950000Y-2000000D01*
X1600000Y-3400000D02*
X1950000Y-3400000D01*
X3730000Y-2000000D02*
X3730000Y-3400000D01*
X3730000Y-3400000D02*
X1950000Y-3400000D01*
D11*
D12*
X2030000Y-2952500D02*
X2060000Y-2982500D01*
X2060000Y-2952500D02*
X2030000Y-2982500D01*
X2085000Y-2329950D02*
X2115000Y-2359950D01*
X2115000Y-2329950D02*
X2085000Y-2359950D01*
X2335000Y-2335000D02*
X2365000Y-2365000D01*
X2365000Y-2335000D02*
X2335000Y-2365000D01*
X2467500Y-2787500D02*
X2497500Y-2817500D01*
X2497500Y-2787500D02*
X2467500Y-2817500D01*
X2535000Y-2365000D02*
X2565000Y-2395000D01*
X2565000Y-2365000D02*
X2535000Y-2395000D01*
X2830000Y-3170000D02*
X2860000Y-3200000D01*
X2860000Y-3170000D02*
X2830000Y-3200000D01*
X1852500Y-2195000D02*
G75*
G02*
X1752500Y-2195000I-50000J0D01*
G01*
X1752500Y-2195000D02*
G75*
G02*
X1852500Y-2195000I50000J0D01*
G01*
X1852500Y-2449000D02*
G75*
G02*
X1752500Y-2449000I-50000J0D01*
G01*
X1752500Y-2449000D02*
G75*
G02*
X1852500Y-2449000I50000J0D01*
G01*
X1852500Y-2703000D02*
G75*
G02*
X1752500Y-2703000I-50000J0D01*
G01*
X1752500Y-2703000D02*
G75*
G02*
X1852500Y-2703000I50000J0D01*
G01*
X1852500Y-2957000D02*
G75*
G02*
X1752500Y-2957000I-50000J0D01*
G01*
X1752500Y-2957000D02*
G75*
G02*
X1852500Y-2957000I50000J0D01*
G01*
X1852500Y-3211000D02*
G75*
G02*
X1752500Y-3211000I-50000J0D01*
G01*
X1752500Y-3211000D02*
G75*
G02*
X1852500Y-3211000I50000J0D01*
G01*
D11*
X1858277Y-3713984D02*
X1858277Y-3513984D01*
X1858277Y-3513984D02*
X1905896Y-3513984D01*
X1905896Y-3513984D02*
X1934467Y-3523508D01*
X1934467Y-3523508D02*
X1953515Y-3542555D01*
X1953515Y-3542555D02*
X1963039Y-3561603D01*
X1963039Y-3561603D02*
X1972562Y-3599698D01*
X1972562Y-3599698D02*
X1972562Y-3628269D01*
X1972562Y-3628269D02*
X1963039Y-3666365D01*
X1963039Y-3666365D02*
X1953515Y-3685412D01*
X1953515Y-3685412D02*
X1934467Y-3704460D01*
X1934467Y-3704460D02*
X1905896Y-3713984D01*
X1905896Y-3713984D02*
X1858277Y-3713984D01*
X2058277Y-3713984D02*
X2058277Y-3580650D01*
X2058277Y-3618746D02*
X2067801Y-3599698D01*
X2067801Y-3599698D02*
X2077324Y-3590174D01*
X2077324Y-3590174D02*
X2096372Y-3580650D01*
X2096372Y-3580650D02*
X2115420Y-3580650D01*
X2182086Y-3713984D02*
X2182086Y-3580650D01*
X2182086Y-3513984D02*
X2172563Y-3523508D01*
X2172563Y-3523508D02*
X2182086Y-3533031D01*
X2182086Y-3533031D02*
X2191610Y-3523508D01*
X2191610Y-3523508D02*
X2182086Y-3513984D01*
X2182086Y-3513984D02*
X2182086Y-3533031D01*
X2305896Y-3713984D02*
X2286848Y-3704460D01*
X2286848Y-3704460D02*
X2277324Y-3685412D01*
X2277324Y-3685412D02*
X2277324Y-3513984D01*
X2410658Y-3713984D02*
X2391610Y-3704460D01*
X2391610Y-3704460D02*
X2382086Y-3685412D01*
X2382086Y-3685412D02*
X2382086Y-3513984D01*
X2639229Y-3713984D02*
X2639229Y-3513984D01*
X2639229Y-3513984D02*
X2705896Y-3656841D01*
X2705896Y-3656841D02*
X2772563Y-3513984D01*
X2772563Y-3513984D02*
X2772563Y-3713984D01*
X2953515Y-3713984D02*
X2953515Y-3609222D01*
X2953515Y-3609222D02*
X2943991Y-3590174D01*
X2943991Y-3590174D02*
X2924943Y-3580650D01*
X2924943Y-3580650D02*
X2886848Y-3580650D01*
X2886848Y-3580650D02*
X2867801Y-3590174D01*
X2953515Y-3704460D02*
X2934467Y-3713984D01*
X2934467Y-3713984D02*
X2886848Y-3713984D01*
X2886848Y-3713984D02*
X2867801Y-3704460D01*
X2867801Y-3704460D02*
X2858277Y-3685412D01*
X2858277Y-3685412D02*
X2858277Y-3666365D01*
X2858277Y-3666365D02*
X2867801Y-3647317D01*
X2867801Y-3647317D02*
X2886848Y-3637793D01*
X2886848Y-3637793D02*
X2934467Y-3637793D01*
X2934467Y-3637793D02*
X2953515Y-3628269D01*
X3048753Y-3580650D02*
X3048753Y-3780650D01*
X3048753Y-3590174D02*
X3067801Y-3580650D01*
X3067801Y-3580650D02*
X3105896Y-3580650D01*
X3105896Y-3580650D02*
X3124943Y-3590174D01*
X3124943Y-3590174D02*
X3134467Y-3599698D01*
X3134467Y-3599698D02*
X3143991Y-3618746D01*
X3143991Y-3618746D02*
X3143991Y-3675888D01*
X3143991Y-3675888D02*
X3134467Y-3694936D01*
X3134467Y-3694936D02*
X3124943Y-3704460D01*
X3124943Y-3704460D02*
X3105896Y-3713984D01*
X3105896Y-3713984D02*
X3067801Y-3713984D01*
X3067801Y-3713984D02*
X3048753Y-3704460D01*
X3229705Y-3694936D02*
X3239229Y-3704460D01*
X3239229Y-3704460D02*
X3229705Y-3713984D01*
X3229705Y-3713984D02*
X3220182Y-3704460D01*
X3220182Y-3704460D02*
X3229705Y-3694936D01*
X3229705Y-3694936D02*
X3229705Y-3713984D01*
X3229705Y-3590174D02*
X3239229Y-3599698D01*
X3239229Y-3599698D02*
X3229705Y-3609222D01*
X3229705Y-3609222D02*
X3220182Y-3599698D01*
X3220182Y-3599698D02*
X3229705Y-3590174D01*
X3229705Y-3590174D02*
X3229705Y-3609222D01*
D12*
X1567500Y-4027500D02*
X1597500Y-4057500D01*
X1597500Y-4027500D02*
X1567500Y-4057500D01*
D11*
X1896372Y-3933984D02*
X1915420Y-3933984D01*
X1915420Y-3933984D02*
X1934467Y-3943508D01*
X1934467Y-3943508D02*
X1943991Y-3953031D01*
X1943991Y-3953031D02*
X1953515Y-3972079D01*
X1953515Y-3972079D02*
X1963039Y-4010174D01*
X1963039Y-4010174D02*
X1963039Y-4057793D01*
X1963039Y-4057793D02*
X1953515Y-4095888D01*
X1953515Y-4095888D02*
X1943991Y-4114936D01*
X1943991Y-4114936D02*
X1934467Y-4124460D01*
X1934467Y-4124460D02*
X1915420Y-4133984D01*
X1915420Y-4133984D02*
X1896372Y-4133984D01*
X1896372Y-4133984D02*
X1877324Y-4124460D01*
X1877324Y-4124460D02*
X1867801Y-4114936D01*
X1867801Y-4114936D02*
X1858277Y-4095888D01*
X1858277Y-4095888D02*
X1848753Y-4057793D01*
X1848753Y-4057793D02*
X1848753Y-4010174D01*
X1848753Y-4010174D02*
X1858277Y-3972079D01*
X1858277Y-3972079D02*
X1867801Y-3953031D01*
X1867801Y-3953031D02*
X1877324Y-3943508D01*
X1877324Y-3943508D02*
X1896372Y-3933984D01*
X2048753Y-4114936D02*
X2058277Y-4124460D01*
X2058277Y-4124460D02*
X2048753Y-4133984D01*
X2048753Y-4133984D02*
X2039229Y-4124460D01*
X2039229Y-4124460D02*
X2048753Y-4114936D01*
X2048753Y-4114936D02*
X2048753Y-4133984D01*
X2124944Y-3933984D02*
X2248753Y-3933984D01*
X2248753Y-3933984D02*
X2182086Y-4010174D01*
X2182086Y-4010174D02*
X2210658Y-4010174D01*
X2210658Y-4010174D02*
X2229705Y-4019698D01*
X2229705Y-4019698D02*
X2239229Y-4029222D01*
X2239229Y-4029222D02*
X2248753Y-4048269D01*
X2248753Y-4048269D02*
X2248753Y-4095888D01*
X2248753Y-4095888D02*
X2239229Y-4114936D01*
X2239229Y-4114936D02*
X2229705Y-4124460D01*
X2229705Y-4124460D02*
X2210658Y-4133984D01*
X2210658Y-4133984D02*
X2153515Y-4133984D01*
X2153515Y-4133984D02*
X2134467Y-4124460D01*
X2134467Y-4124460D02*
X2124944Y-4114936D01*
X2372563Y-3933984D02*
X2391610Y-3933984D01*
X2391610Y-3933984D02*
X2410658Y-3943508D01*
X2410658Y-3943508D02*
X2420182Y-3953031D01*
X2420182Y-3953031D02*
X2429705Y-3972079D01*
X2429705Y-3972079D02*
X2439229Y-4010174D01*
X2439229Y-4010174D02*
X2439229Y-4057793D01*
X2439229Y-4057793D02*
X2429705Y-4095888D01*
X2429705Y-4095888D02*
X2420182Y-4114936D01*
X2420182Y-4114936D02*
X2410658Y-4124460D01*
X2410658Y-4124460D02*
X2391610Y-4133984D01*
X2391610Y-4133984D02*
X2372563Y-4133984D01*
X2372563Y-4133984D02*
X2353515Y-4124460D01*
X2353515Y-4124460D02*
X2343991Y-4114936D01*
X2343991Y-4114936D02*
X2334467Y-4095888D01*
X2334467Y-4095888D02*
X2324944Y-4057793D01*
X2324944Y-4057793D02*
X2324944Y-4010174D01*
X2324944Y-4010174D02*
X2334467Y-3972079D01*
X2334467Y-3972079D02*
X2343991Y-3953031D01*
X2343991Y-3953031D02*
X2353515Y-3943508D01*
X2353515Y-3943508D02*
X2372563Y-3933984D01*
X2563039Y-3933984D02*
X2582086Y-3933984D01*
X2582086Y-3933984D02*
X2601134Y-3943508D01*
X2601134Y-3943508D02*
X2610658Y-3953031D01*
X2610658Y-3953031D02*
X2620182Y-3972079D01*
X2620182Y-3972079D02*
X2629705Y-4010174D01*
X2629705Y-4010174D02*
X2629705Y-4057793D01*
X2629705Y-4057793D02*
X2620182Y-4095888D01*
X2620182Y-4095888D02*
X2610658Y-4114936D01*
X2610658Y-4114936D02*
X2601134Y-4124460D01*
X2601134Y-4124460D02*
X2582086Y-4133984D01*
X2582086Y-4133984D02*
X2563039Y-4133984D01*
X2563039Y-4133984D02*
X2543991Y-4124460D01*
X2543991Y-4124460D02*
X2534467Y-4114936D01*
X2534467Y-4114936D02*
X2524944Y-4095888D01*
X2524944Y-4095888D02*
X2515420Y-4057793D01*
X2515420Y-4057793D02*
X2515420Y-4010174D01*
X2515420Y-4010174D02*
X2524944Y-3972079D01*
X2524944Y-3972079D02*
X2534467Y-3953031D01*
X2534467Y-3953031D02*
X2543991Y-3943508D01*
X2543991Y-3943508D02*
X2563039Y-3933984D01*
X2715420Y-4133984D02*
X2715420Y-4000650D01*
X2715420Y-4019698D02*
X2724944Y-4010174D01*
X2724944Y-4010174D02*
X2743991Y-4000650D01*
X2743991Y-4000650D02*
X2772563Y-4000650D01*
X2772563Y-4000650D02*
X2791610Y-4010174D01*
X2791610Y-4010174D02*
X2801134Y-4029222D01*
X2801134Y-4029222D02*
X2801134Y-4133984D01*
X2801134Y-4029222D02*
X2810658Y-4010174D01*
X2810658Y-4010174D02*
X2829705Y-4000650D01*
X2829705Y-4000650D02*
X2858277Y-4000650D01*
X2858277Y-4000650D02*
X2877324Y-4010174D01*
X2877324Y-4010174D02*
X2886848Y-4029222D01*
X2886848Y-4029222D02*
X2886848Y-4133984D01*
X2982086Y-4133984D02*
X2982086Y-4000650D01*
X2982086Y-4019698D02*
X2991610Y-4010174D01*
X2991610Y-4010174D02*
X3010658Y-4000650D01*
X3010658Y-4000650D02*
X3039229Y-4000650D01*
X3039229Y-4000650D02*
X3058277Y-4010174D01*
X3058277Y-4010174D02*
X3067801Y-4029222D01*
X3067801Y-4029222D02*
X3067801Y-4133984D01*
X3067801Y-4029222D02*
X3077324Y-4010174D01*
X3077324Y-4010174D02*
X3096372Y-4000650D01*
X3096372Y-4000650D02*
X3124943Y-4000650D01*
X3124943Y-4000650D02*
X3143991Y-4010174D01*
X3143991Y-4010174D02*
X3153515Y-4029222D01*
X3153515Y-4029222D02*
X3153515Y-4133984D01*
X3543991Y-3924460D02*
X3372563Y-4181603D01*
X3801134Y-3933984D02*
X3820182Y-3933984D01*
X3820182Y-3933984D02*
X3839229Y-3943508D01*
X3839229Y-3943508D02*
X3848753Y-3953031D01*
X3848753Y-3953031D02*
X3858277Y-3972079D01*
X3858277Y-3972079D02*
X3867801Y-4010174D01*
X3867801Y-4010174D02*
X3867801Y-4057793D01*
X3867801Y-4057793D02*
X3858277Y-4095888D01*
X3858277Y-4095888D02*
X3848753Y-4114936D01*
X3848753Y-4114936D02*
X3839229Y-4124460D01*
X3839229Y-4124460D02*
X3820182Y-4133984D01*
X3820182Y-4133984D02*
X3801134Y-4133984D01*
X3801134Y-4133984D02*
X3782086Y-4124460D01*
X3782086Y-4124460D02*
X3772563Y-4114936D01*
X3772563Y-4114936D02*
X3763039Y-4095888D01*
X3763039Y-4095888D02*
X3753515Y-4057793D01*
X3753515Y-4057793D02*
X3753515Y-4010174D01*
X3753515Y-4010174D02*
X3763039Y-3972079D01*
X3763039Y-3972079D02*
X3772563Y-3953031D01*
X3772563Y-3953031D02*
X3782086Y-3943508D01*
X3782086Y-3943508D02*
X3801134Y-3933984D01*
X3953515Y-4114936D02*
X3963039Y-4124460D01*
X3963039Y-4124460D02*
X3953515Y-4133984D01*
X3953515Y-4133984D02*
X3943991Y-4124460D01*
X3943991Y-4124460D02*
X3953515Y-4114936D01*
X3953515Y-4114936D02*
X3953515Y-4133984D01*
X4086848Y-3933984D02*
X4105896Y-3933984D01*
X4105896Y-3933984D02*
X4124944Y-3943508D01*
X4124944Y-3943508D02*
X4134467Y-3953031D01*
X4134467Y-3953031D02*
X4143991Y-3972079D01*
X4143991Y-3972079D02*
X4153515Y-4010174D01*
X4153515Y-4010174D02*
X4153515Y-4057793D01*
X4153515Y-4057793D02*
X4143991Y-4095888D01*
X4143991Y-4095888D02*
X4134467Y-4114936D01*
X4134467Y-4114936D02*
X4124944Y-4124460D01*
X4124944Y-4124460D02*
X4105896Y-4133984D01*
X4105896Y-4133984D02*
X4086848Y-4133984D01*
X4086848Y-4133984D02*
X4067801Y-4124460D01*
X4067801Y-4124460D02*
X4058277Y-4114936D01*
X4058277Y-4114936D02*
X4048753Y-4095888D01*
X4048753Y-4095888D02*
X4039229Y-4057793D01*
X4039229Y-4057793D02*
X4039229Y-4010174D01*
X4039229Y-4010174D02*
X4048753Y-3972079D01*
X4048753Y-3972079D02*
X4058277Y-3953031D01*
X4058277Y-3953031D02*
X4067801Y-3943508D01*
X4067801Y-3943508D02*
X4086848Y-3933984D01*
X4343991Y-4133984D02*
X4229706Y-4133984D01*
X4286848Y-4133984D02*
X4286848Y-3933984D01*
X4286848Y-3933984D02*
X4267801Y-3962555D01*
X4267801Y-3962555D02*
X4248753Y-3981603D01*
X4248753Y-3981603D02*
X4229706Y-3991127D01*
X4534468Y-4133984D02*
X4420182Y-4133984D01*
X4477325Y-4133984D02*
X4477325Y-3933984D01*
X4477325Y-3933984D02*
X4458277Y-3962555D01*
X4458277Y-3962555D02*
X4439229Y-3981603D01*
X4439229Y-3981603D02*
X4420182Y-3991127D01*
X4648753Y-4019698D02*
X4629706Y-4010174D01*
X4629706Y-4010174D02*
X4620182Y-4000650D01*
X4620182Y-4000650D02*
X4610658Y-3981603D01*
X4610658Y-3981603D02*
X4610658Y-3972079D01*
X4610658Y-3972079D02*
X4620182Y-3953031D01*
X4620182Y-3953031D02*
X4629706Y-3943508D01*
X4629706Y-3943508D02*
X4648753Y-3933984D01*
X4648753Y-3933984D02*
X4686849Y-3933984D01*
X4686849Y-3933984D02*
X4705896Y-3943508D01*
X4705896Y-3943508D02*
X4715420Y-3953031D01*
X4715420Y-3953031D02*
X4724944Y-3972079D01*
X4724944Y-3972079D02*
X4724944Y-3981603D01*
X4724944Y-3981603D02*
X4715420Y-4000650D01*
X4715420Y-4000650D02*
X4705896Y-4010174D01*
X4705896Y-4010174D02*
X4686849Y-4019698D01*
X4686849Y-4019698D02*
X4648753Y-4019698D01*
X4648753Y-4019698D02*
X4629706Y-4029222D01*
X4629706Y-4029222D02*
X4620182Y-4038746D01*
X4620182Y-4038746D02*
X4610658Y-4057793D01*
X4610658Y-4057793D02*
X4610658Y-4095888D01*
X4610658Y-4095888D02*
X4620182Y-4114936D01*
X4620182Y-4114936D02*
X4629706Y-4124460D01*
X4629706Y-4124460D02*
X4648753Y-4133984D01*
X4648753Y-4133984D02*
X4686849Y-4133984D01*
X4686849Y-4133984D02*
X4705896Y-4124460D01*
X4705896Y-4124460D02*
X4715420Y-4114936D01*
X4715420Y-4114936D02*
X4724944Y-4095888D01*
X4724944Y-4095888D02*
X4724944Y-4057793D01*
X4724944Y-4057793D02*
X4715420Y-4038746D01*
X4715420Y-4038746D02*
X4705896Y-4029222D01*
X4705896Y-4029222D02*
X4686849Y-4019698D01*
X4801134Y-3933984D02*
X4801134Y-3972079D01*
X4877325Y-3933984D02*
X4877325Y-3972079D01*
X5172563Y-4210174D02*
X5163039Y-4200650D01*
X5163039Y-4200650D02*
X5143991Y-4172079D01*
X5143991Y-4172079D02*
X5134468Y-4153031D01*
X5134468Y-4153031D02*
X5124944Y-4124460D01*
X5124944Y-4124460D02*
X5115420Y-4076841D01*
X5115420Y-4076841D02*
X5115420Y-4038746D01*
X5115420Y-4038746D02*
X5124944Y-3991127D01*
X5124944Y-3991127D02*
X5134468Y-3962555D01*
X5134468Y-3962555D02*
X5143991Y-3943508D01*
X5143991Y-3943508D02*
X5163039Y-3914936D01*
X5163039Y-3914936D02*
X5172563Y-3905412D01*
X5334468Y-3933984D02*
X5296372Y-3933984D01*
X5296372Y-3933984D02*
X5277325Y-3943508D01*
X5277325Y-3943508D02*
X5267801Y-3953031D01*
X5267801Y-3953031D02*
X5248753Y-3981603D01*
X5248753Y-3981603D02*
X5239230Y-4019698D01*
X5239230Y-4019698D02*
X5239230Y-4095888D01*
X5239230Y-4095888D02*
X5248753Y-4114936D01*
X5248753Y-4114936D02*
X5258277Y-4124460D01*
X5258277Y-4124460D02*
X5277325Y-4133984D01*
X5277325Y-4133984D02*
X5315420Y-4133984D01*
X5315420Y-4133984D02*
X5334468Y-4124460D01*
X5334468Y-4124460D02*
X5343991Y-4114936D01*
X5343991Y-4114936D02*
X5353515Y-4095888D01*
X5353515Y-4095888D02*
X5353515Y-4048269D01*
X5353515Y-4048269D02*
X5343991Y-4029222D01*
X5343991Y-4029222D02*
X5334468Y-4019698D01*
X5334468Y-4019698D02*
X5315420Y-4010174D01*
X5315420Y-4010174D02*
X5277325Y-4010174D01*
X5277325Y-4010174D02*
X5258277Y-4019698D01*
X5258277Y-4019698D02*
X5248753Y-4029222D01*
X5248753Y-4029222D02*
X5239230Y-4048269D01*
X5591611Y-4133984D02*
X5591611Y-3933984D01*
X5677325Y-4133984D02*
X5677325Y-4029222D01*
X5677325Y-4029222D02*
X5667801Y-4010174D01*
X5667801Y-4010174D02*
X5648753Y-4000650D01*
X5648753Y-4000650D02*
X5620182Y-4000650D01*
X5620182Y-4000650D02*
X5601134Y-4010174D01*
X5601134Y-4010174D02*
X5591611Y-4019698D01*
X5801134Y-4133984D02*
X5782087Y-4124460D01*
X5782087Y-4124460D02*
X5772563Y-4114936D01*
X5772563Y-4114936D02*
X5763039Y-4095888D01*
X5763039Y-4095888D02*
X5763039Y-4038746D01*
X5763039Y-4038746D02*
X5772563Y-4019698D01*
X5772563Y-4019698D02*
X5782087Y-4010174D01*
X5782087Y-4010174D02*
X5801134Y-4000650D01*
X5801134Y-4000650D02*
X5829706Y-4000650D01*
X5829706Y-4000650D02*
X5848753Y-4010174D01*
X5848753Y-4010174D02*
X5858277Y-4019698D01*
X5858277Y-4019698D02*
X5867801Y-4038746D01*
X5867801Y-4038746D02*
X5867801Y-4095888D01*
X5867801Y-4095888D02*
X5858277Y-4114936D01*
X5858277Y-4114936D02*
X5848753Y-4124460D01*
X5848753Y-4124460D02*
X5829706Y-4133984D01*
X5829706Y-4133984D02*
X5801134Y-4133984D01*
X5982087Y-4133984D02*
X5963039Y-4124460D01*
X5963039Y-4124460D02*
X5953515Y-4105412D01*
X5953515Y-4105412D02*
X5953515Y-3933984D01*
X6134468Y-4124460D02*
X6115420Y-4133984D01*
X6115420Y-4133984D02*
X6077325Y-4133984D01*
X6077325Y-4133984D02*
X6058277Y-4124460D01*
X6058277Y-4124460D02*
X6048753Y-4105412D01*
X6048753Y-4105412D02*
X6048753Y-4029222D01*
X6048753Y-4029222D02*
X6058277Y-4010174D01*
X6058277Y-4010174D02*
X6077325Y-4000650D01*
X6077325Y-4000650D02*
X6115420Y-4000650D01*
X6115420Y-4000650D02*
X6134468Y-4010174D01*
X6134468Y-4010174D02*
X6143991Y-4029222D01*
X6143991Y-4029222D02*
X6143991Y-4048269D01*
X6143991Y-4048269D02*
X6048753Y-4067317D01*
X6220182Y-4124460D02*
X6239230Y-4133984D01*
X6239230Y-4133984D02*
X6277325Y-4133984D01*
X6277325Y-4133984D02*
X6296372Y-4124460D01*
X6296372Y-4124460D02*
X6305896Y-4105412D01*
X6305896Y-4105412D02*
X6305896Y-4095888D01*
X6305896Y-4095888D02*
X6296372Y-4076841D01*
X6296372Y-4076841D02*
X6277325Y-4067317D01*
X6277325Y-4067317D02*
X6248753Y-4067317D01*
X6248753Y-4067317D02*
X6229706Y-4057793D01*
X6229706Y-4057793D02*
X6220182Y-4038746D01*
X6220182Y-4038746D02*
X6220182Y-4029222D01*
X6220182Y-4029222D02*
X6229706Y-4010174D01*
X6229706Y-4010174D02*
X6248753Y-4000650D01*
X6248753Y-4000650D02*
X6277325Y-4000650D01*
X6277325Y-4000650D02*
X6296372Y-4010174D01*
X6372563Y-4210174D02*
X6382087Y-4200650D01*
X6382087Y-4200650D02*
X6401134Y-4172079D01*
X6401134Y-4172079D02*
X6410658Y-4153031D01*
X6410658Y-4153031D02*
X6420182Y-4124460D01*
X6420182Y-4124460D02*
X6429706Y-4076841D01*
X6429706Y-4076841D02*
X6429706Y-4038746D01*
X6429706Y-4038746D02*
X6420182Y-3991127D01*
X6420182Y-3991127D02*
X6410658Y-3962555D01*
X6410658Y-3962555D02*
X6401134Y-3943508D01*
X6401134Y-3943508D02*
X6382087Y-3914936D01*
X6382087Y-3914936D02*
X6372563Y-3905412D01*
D12*
X1597500Y-4306500D02*
G75*
G02*
X1497500Y-4306500I-50000J0D01*
G01*
X1497500Y-4306500D02*
G75*
G02*
X1597500Y-4306500I50000J0D01*
G01*
D11*
X1963039Y-4397984D02*
X1848753Y-4397984D01*
X1905896Y-4397984D02*
X1905896Y-4197984D01*
X1905896Y-4197984D02*
X1886848Y-4226555D01*
X1886848Y-4226555D02*
X1867801Y-4245603D01*
X1867801Y-4245603D02*
X1848753Y-4255127D01*
X2048753Y-4378936D02*
X2058277Y-4388460D01*
X2058277Y-4388460D02*
X2048753Y-4397984D01*
X2048753Y-4397984D02*
X2039229Y-4388460D01*
X2039229Y-4388460D02*
X2048753Y-4378936D01*
X2048753Y-4378936D02*
X2048753Y-4397984D01*
X2182086Y-4197984D02*
X2201134Y-4197984D01*
X2201134Y-4197984D02*
X2220182Y-4207508D01*
X2220182Y-4207508D02*
X2229705Y-4217031D01*
X2229705Y-4217031D02*
X2239229Y-4236079D01*
X2239229Y-4236079D02*
X2248753Y-4274174D01*
X2248753Y-4274174D02*
X2248753Y-4321793D01*
X2248753Y-4321793D02*
X2239229Y-4359889D01*
X2239229Y-4359889D02*
X2229705Y-4378936D01*
X2229705Y-4378936D02*
X2220182Y-4388460D01*
X2220182Y-4388460D02*
X2201134Y-4397984D01*
X2201134Y-4397984D02*
X2182086Y-4397984D01*
X2182086Y-4397984D02*
X2163039Y-4388460D01*
X2163039Y-4388460D02*
X2153515Y-4378936D01*
X2153515Y-4378936D02*
X2143991Y-4359889D01*
X2143991Y-4359889D02*
X2134467Y-4321793D01*
X2134467Y-4321793D02*
X2134467Y-4274174D01*
X2134467Y-4274174D02*
X2143991Y-4236079D01*
X2143991Y-4236079D02*
X2153515Y-4217031D01*
X2153515Y-4217031D02*
X2163039Y-4207508D01*
X2163039Y-4207508D02*
X2182086Y-4197984D01*
X2372563Y-4197984D02*
X2391610Y-4197984D01*
X2391610Y-4197984D02*
X2410658Y-4207508D01*
X2410658Y-4207508D02*
X2420182Y-4217031D01*
X2420182Y-4217031D02*
X2429705Y-4236079D01*
X2429705Y-4236079D02*
X2439229Y-4274174D01*
X2439229Y-4274174D02*
X2439229Y-4321793D01*
X2439229Y-4321793D02*
X2429705Y-4359889D01*
X2429705Y-4359889D02*
X2420182Y-4378936D01*
X2420182Y-4378936D02*
X2410658Y-4388460D01*
X2410658Y-4388460D02*
X2391610Y-4397984D01*
X2391610Y-4397984D02*
X2372563Y-4397984D01*
X2372563Y-4397984D02*
X2353515Y-4388460D01*
X2353515Y-4388460D02*
X2343991Y-4378936D01*
X2343991Y-4378936D02*
X2334467Y-4359889D01*
X2334467Y-4359889D02*
X2324944Y-4321793D01*
X2324944Y-4321793D02*
X2324944Y-4274174D01*
X2324944Y-4274174D02*
X2334467Y-4236079D01*
X2334467Y-4236079D02*
X2343991Y-4217031D01*
X2343991Y-4217031D02*
X2353515Y-4207508D01*
X2353515Y-4207508D02*
X2372563Y-4197984D01*
X2563039Y-4197984D02*
X2582086Y-4197984D01*
X2582086Y-4197984D02*
X2601134Y-4207508D01*
X2601134Y-4207508D02*
X2610658Y-4217031D01*
X2610658Y-4217031D02*
X2620182Y-4236079D01*
X2620182Y-4236079D02*
X2629705Y-4274174D01*
X2629705Y-4274174D02*
X2629705Y-4321793D01*
X2629705Y-4321793D02*
X2620182Y-4359889D01*
X2620182Y-4359889D02*
X2610658Y-4378936D01*
X2610658Y-4378936D02*
X2601134Y-4388460D01*
X2601134Y-4388460D02*
X2582086Y-4397984D01*
X2582086Y-4397984D02*
X2563039Y-4397984D01*
X2563039Y-4397984D02*
X2543991Y-4388460D01*
X2543991Y-4388460D02*
X2534467Y-4378936D01*
X2534467Y-4378936D02*
X2524944Y-4359889D01*
X2524944Y-4359889D02*
X2515420Y-4321793D01*
X2515420Y-4321793D02*
X2515420Y-4274174D01*
X2515420Y-4274174D02*
X2524944Y-4236079D01*
X2524944Y-4236079D02*
X2534467Y-4217031D01*
X2534467Y-4217031D02*
X2543991Y-4207508D01*
X2543991Y-4207508D02*
X2563039Y-4197984D01*
X2715420Y-4397984D02*
X2715420Y-4264650D01*
X2715420Y-4283698D02*
X2724944Y-4274174D01*
X2724944Y-4274174D02*
X2743991Y-4264650D01*
X2743991Y-4264650D02*
X2772563Y-4264650D01*
X2772563Y-4264650D02*
X2791610Y-4274174D01*
X2791610Y-4274174D02*
X2801134Y-4293222D01*
X2801134Y-4293222D02*
X2801134Y-4397984D01*
X2801134Y-4293222D02*
X2810658Y-4274174D01*
X2810658Y-4274174D02*
X2829705Y-4264650D01*
X2829705Y-4264650D02*
X2858277Y-4264650D01*
X2858277Y-4264650D02*
X2877324Y-4274174D01*
X2877324Y-4274174D02*
X2886848Y-4293222D01*
X2886848Y-4293222D02*
X2886848Y-4397984D01*
X2982086Y-4397984D02*
X2982086Y-4264650D01*
X2982086Y-4283698D02*
X2991610Y-4274174D01*
X2991610Y-4274174D02*
X3010658Y-4264650D01*
X3010658Y-4264650D02*
X3039229Y-4264650D01*
X3039229Y-4264650D02*
X3058277Y-4274174D01*
X3058277Y-4274174D02*
X3067801Y-4293222D01*
X3067801Y-4293222D02*
X3067801Y-4397984D01*
X3067801Y-4293222D02*
X3077324Y-4274174D01*
X3077324Y-4274174D02*
X3096372Y-4264650D01*
X3096372Y-4264650D02*
X3124943Y-4264650D01*
X3124943Y-4264650D02*
X3143991Y-4274174D01*
X3143991Y-4274174D02*
X3153515Y-4293222D01*
X3153515Y-4293222D02*
X3153515Y-4397984D01*
X3543991Y-4188460D02*
X3372563Y-4445603D01*
X3801134Y-4197984D02*
X3820182Y-4197984D01*
X3820182Y-4197984D02*
X3839229Y-4207508D01*
X3839229Y-4207508D02*
X3848753Y-4217031D01*
X3848753Y-4217031D02*
X3858277Y-4236079D01*
X3858277Y-4236079D02*
X3867801Y-4274174D01*
X3867801Y-4274174D02*
X3867801Y-4321793D01*
X3867801Y-4321793D02*
X3858277Y-4359889D01*
X3858277Y-4359889D02*
X3848753Y-4378936D01*
X3848753Y-4378936D02*
X3839229Y-4388460D01*
X3839229Y-4388460D02*
X3820182Y-4397984D01*
X3820182Y-4397984D02*
X3801134Y-4397984D01*
X3801134Y-4397984D02*
X3782086Y-4388460D01*
X3782086Y-4388460D02*
X3772563Y-4378936D01*
X3772563Y-4378936D02*
X3763039Y-4359889D01*
X3763039Y-4359889D02*
X3753515Y-4321793D01*
X3753515Y-4321793D02*
X3753515Y-4274174D01*
X3753515Y-4274174D02*
X3763039Y-4236079D01*
X3763039Y-4236079D02*
X3772563Y-4217031D01*
X3772563Y-4217031D02*
X3782086Y-4207508D01*
X3782086Y-4207508D02*
X3801134Y-4197984D01*
X3953515Y-4378936D02*
X3963039Y-4388460D01*
X3963039Y-4388460D02*
X3953515Y-4397984D01*
X3953515Y-4397984D02*
X3943991Y-4388460D01*
X3943991Y-4388460D02*
X3953515Y-4378936D01*
X3953515Y-4378936D02*
X3953515Y-4397984D01*
X4086848Y-4197984D02*
X4105896Y-4197984D01*
X4105896Y-4197984D02*
X4124944Y-4207508D01*
X4124944Y-4207508D02*
X4134467Y-4217031D01*
X4134467Y-4217031D02*
X4143991Y-4236079D01*
X4143991Y-4236079D02*
X4153515Y-4274174D01*
X4153515Y-4274174D02*
X4153515Y-4321793D01*
X4153515Y-4321793D02*
X4143991Y-4359889D01*
X4143991Y-4359889D02*
X4134467Y-4378936D01*
X4134467Y-4378936D02*
X4124944Y-4388460D01*
X4124944Y-4388460D02*
X4105896Y-4397984D01*
X4105896Y-4397984D02*
X4086848Y-4397984D01*
X4086848Y-4397984D02*
X4067801Y-4388460D01*
X4067801Y-4388460D02*
X4058277Y-4378936D01*
X4058277Y-4378936D02*
X4048753Y-4359889D01*
X4048753Y-4359889D02*
X4039229Y-4321793D01*
X4039229Y-4321793D02*
X4039229Y-4274174D01*
X4039229Y-4274174D02*
X4048753Y-4236079D01*
X4048753Y-4236079D02*
X4058277Y-4217031D01*
X4058277Y-4217031D02*
X4067801Y-4207508D01*
X4067801Y-4207508D02*
X4086848Y-4197984D01*
X4220182Y-4197984D02*
X4343991Y-4197984D01*
X4343991Y-4197984D02*
X4277325Y-4274174D01*
X4277325Y-4274174D02*
X4305896Y-4274174D01*
X4305896Y-4274174D02*
X4324944Y-4283698D01*
X4324944Y-4283698D02*
X4334468Y-4293222D01*
X4334468Y-4293222D02*
X4343991Y-4312270D01*
X4343991Y-4312270D02*
X4343991Y-4359889D01*
X4343991Y-4359889D02*
X4334468Y-4378936D01*
X4334468Y-4378936D02*
X4324944Y-4388460D01*
X4324944Y-4388460D02*
X4305896Y-4397984D01*
X4305896Y-4397984D02*
X4248753Y-4397984D01*
X4248753Y-4397984D02*
X4229706Y-4388460D01*
X4229706Y-4388460D02*
X4220182Y-4378936D01*
X4439229Y-4397984D02*
X4477325Y-4397984D01*
X4477325Y-4397984D02*
X4496372Y-4388460D01*
X4496372Y-4388460D02*
X4505896Y-4378936D01*
X4505896Y-4378936D02*
X4524944Y-4350365D01*
X4524944Y-4350365D02*
X4534468Y-4312270D01*
X4534468Y-4312270D02*
X4534468Y-4236079D01*
X4534468Y-4236079D02*
X4524944Y-4217031D01*
X4524944Y-4217031D02*
X4515420Y-4207508D01*
X4515420Y-4207508D02*
X4496372Y-4197984D01*
X4496372Y-4197984D02*
X4458277Y-4197984D01*
X4458277Y-4197984D02*
X4439229Y-4207508D01*
X4439229Y-4207508D02*
X4429706Y-4217031D01*
X4429706Y-4217031D02*
X4420182Y-4236079D01*
X4420182Y-4236079D02*
X4420182Y-4283698D01*
X4420182Y-4283698D02*
X4429706Y-4302746D01*
X4429706Y-4302746D02*
X4439229Y-4312270D01*
X4439229Y-4312270D02*
X4458277Y-4321793D01*
X4458277Y-4321793D02*
X4496372Y-4321793D01*
X4496372Y-4321793D02*
X4515420Y-4312270D01*
X4515420Y-4312270D02*
X4524944Y-4302746D01*
X4524944Y-4302746D02*
X4534468Y-4283698D01*
X4705896Y-4264650D02*
X4705896Y-4397984D01*
X4658277Y-4188460D02*
X4610658Y-4331317D01*
X4610658Y-4331317D02*
X4734468Y-4331317D01*
X4801134Y-4197984D02*
X4801134Y-4236079D01*
X4877325Y-4197984D02*
X4877325Y-4236079D01*
X5172563Y-4474174D02*
X5163039Y-4464650D01*
X5163039Y-4464650D02*
X5143991Y-4436079D01*
X5143991Y-4436079D02*
X5134468Y-4417031D01*
X5134468Y-4417031D02*
X5124944Y-4388460D01*
X5124944Y-4388460D02*
X5115420Y-4340841D01*
X5115420Y-4340841D02*
X5115420Y-4302746D01*
X5115420Y-4302746D02*
X5124944Y-4255127D01*
X5124944Y-4255127D02*
X5134468Y-4226555D01*
X5134468Y-4226555D02*
X5143991Y-4207508D01*
X5143991Y-4207508D02*
X5163039Y-4178936D01*
X5163039Y-4178936D02*
X5172563Y-4169412D01*
X5343991Y-4197984D02*
X5248753Y-4197984D01*
X5248753Y-4197984D02*
X5239230Y-4293222D01*
X5239230Y-4293222D02*
X5248753Y-4283698D01*
X5248753Y-4283698D02*
X5267801Y-4274174D01*
X5267801Y-4274174D02*
X5315420Y-4274174D01*
X5315420Y-4274174D02*
X5334468Y-4283698D01*
X5334468Y-4283698D02*
X5343991Y-4293222D01*
X5343991Y-4293222D02*
X5353515Y-4312270D01*
X5353515Y-4312270D02*
X5353515Y-4359889D01*
X5353515Y-4359889D02*
X5343991Y-4378936D01*
X5343991Y-4378936D02*
X5334468Y-4388460D01*
X5334468Y-4388460D02*
X5315420Y-4397984D01*
X5315420Y-4397984D02*
X5267801Y-4397984D01*
X5267801Y-4397984D02*
X5248753Y-4388460D01*
X5248753Y-4388460D02*
X5239230Y-4378936D01*
X5591611Y-4397984D02*
X5591611Y-4197984D01*
X5677325Y-4397984D02*
X5677325Y-4293222D01*
X5677325Y-4293222D02*
X5667801Y-4274174D01*
X5667801Y-4274174D02*
X5648753Y-4264650D01*
X5648753Y-4264650D02*
X5620182Y-4264650D01*
X5620182Y-4264650D02*
X5601134Y-4274174D01*
X5601134Y-4274174D02*
X5591611Y-4283698D01*
X5801134Y-4397984D02*
X5782087Y-4388460D01*
X5782087Y-4388460D02*
X5772563Y-4378936D01*
X5772563Y-4378936D02*
X5763039Y-4359889D01*
X5763039Y-4359889D02*
X5763039Y-4302746D01*
X5763039Y-4302746D02*
X5772563Y-4283698D01*
X5772563Y-4283698D02*
X5782087Y-4274174D01*
X5782087Y-4274174D02*
X5801134Y-4264650D01*
X5801134Y-4264650D02*
X5829706Y-4264650D01*
X5829706Y-4264650D02*
X5848753Y-4274174D01*
X5848753Y-4274174D02*
X5858277Y-4283698D01*
X5858277Y-4283698D02*
X5867801Y-4302746D01*
X5867801Y-4302746D02*
X5867801Y-4359889D01*
X5867801Y-4359889D02*
X5858277Y-4378936D01*
X5858277Y-4378936D02*
X5848753Y-4388460D01*
X5848753Y-4388460D02*
X5829706Y-4397984D01*
X5829706Y-4397984D02*
X5801134Y-4397984D01*
X5982087Y-4397984D02*
X5963039Y-4388460D01*
X5963039Y-4388460D02*
X5953515Y-4369412D01*
X5953515Y-4369412D02*
X5953515Y-4197984D01*
X6134468Y-4388460D02*
X6115420Y-4397984D01*
X6115420Y-4397984D02*
X6077325Y-4397984D01*
X6077325Y-4397984D02*
X6058277Y-4388460D01*
X6058277Y-4388460D02*
X6048753Y-4369412D01*
X6048753Y-4369412D02*
X6048753Y-4293222D01*
X6048753Y-4293222D02*
X6058277Y-4274174D01*
X6058277Y-4274174D02*
X6077325Y-4264650D01*
X6077325Y-4264650D02*
X6115420Y-4264650D01*
X6115420Y-4264650D02*
X6134468Y-4274174D01*
X6134468Y-4274174D02*
X6143991Y-4293222D01*
X6143991Y-4293222D02*
X6143991Y-4312270D01*
X6143991Y-4312270D02*
X6048753Y-4331317D01*
X6220182Y-4388460D02*
X6239230Y-4397984D01*
X6239230Y-4397984D02*
X6277325Y-4397984D01*
X6277325Y-4397984D02*
X6296372Y-4388460D01*
X6296372Y-4388460D02*
X6305896Y-4369412D01*
X6305896Y-4369412D02*
X6305896Y-4359889D01*
X6305896Y-4359889D02*
X6296372Y-4340841D01*
X6296372Y-4340841D02*
X6277325Y-4331317D01*
X6277325Y-4331317D02*
X6248753Y-4331317D01*
X6248753Y-4331317D02*
X6229706Y-4321793D01*
X6229706Y-4321793D02*
X6220182Y-4302746D01*
X6220182Y-4302746D02*
X6220182Y-4293222D01*
X6220182Y-4293222D02*
X6229706Y-4274174D01*
X6229706Y-4274174D02*
X6248753Y-4264650D01*
X6248753Y-4264650D02*
X6277325Y-4264650D01*
X6277325Y-4264650D02*
X6296372Y-4274174D01*
X6372563Y-4474174D02*
X6382087Y-4464650D01*
X6382087Y-4464650D02*
X6401134Y-4436079D01*
X6401134Y-4436079D02*
X6410658Y-4417031D01*
X6410658Y-4417031D02*
X6420182Y-4388460D01*
X6420182Y-4388460D02*
X6429706Y-4340841D01*
X6429706Y-4340841D02*
X6429706Y-4302746D01*
X6429706Y-4302746D02*
X6420182Y-4255127D01*
X6420182Y-4255127D02*
X6410658Y-4226555D01*
X6410658Y-4226555D02*
X6401134Y-4207508D01*
X6401134Y-4207508D02*
X6382087Y-4178936D01*
X6382087Y-4178936D02*
X6372563Y-4169412D01*
M02*
