G04 #@! TF.GenerationSoftware,KiCad,Pcbnew,8.0.5*
G04 #@! TF.CreationDate,2024-09-09T15:46:43-04:00*
G04 #@! TF.ProjectId,pi_max31328,70695f6d-6178-4333-9133-32382e6b6963,rev?*
G04 #@! TF.SameCoordinates,Original*
G04 #@! TF.FileFunction,Copper,L1,Top*
G04 #@! TF.FilePolarity,Positive*
%FSLAX46Y46*%
G04 Gerber Fmt 4.6, Leading zero omitted, Abs format (unit mm)*
G04 Created by KiCad (PCBNEW 8.0.5) date 2024-09-09 15:46:43*
%MOMM*%
%LPD*%
G01*
G04 APERTURE LIST*
G04 Aperture macros list*
%AMRoundRect*
0 Rectangle with rounded corners*
0 $1 Rounding radius*
0 $2 $3 $4 $5 $6 $7 $8 $9 X,Y pos of 4 corners*
0 Add a 4 corners polygon primitive as box body*
4,1,4,$2,$3,$4,$5,$6,$7,$8,$9,$2,$3,0*
0 Add four circle primitives for the rounded corners*
1,1,$1+$1,$2,$3*
1,1,$1+$1,$4,$5*
1,1,$1+$1,$6,$7*
1,1,$1+$1,$8,$9*
0 Add four rect primitives between the rounded corners*
20,1,$1+$1,$2,$3,$4,$5,0*
20,1,$1+$1,$4,$5,$6,$7,0*
20,1,$1+$1,$6,$7,$8,$9,0*
20,1,$1+$1,$8,$9,$2,$3,0*%
G04 Aperture macros list end*
G04 #@! TA.AperFunction,SMDPad,CuDef*
%ADD10RoundRect,0.160000X-0.160000X0.197500X-0.160000X-0.197500X0.160000X-0.197500X0.160000X0.197500X0*%
G04 #@! TD*
G04 #@! TA.AperFunction,SMDPad,CuDef*
%ADD11RoundRect,0.160000X0.160000X-0.197500X0.160000X0.197500X-0.160000X0.197500X-0.160000X-0.197500X0*%
G04 #@! TD*
G04 #@! TA.AperFunction,SMDPad,CuDef*
%ADD12RoundRect,0.155000X-0.212500X-0.155000X0.212500X-0.155000X0.212500X0.155000X-0.212500X0.155000X0*%
G04 #@! TD*
G04 #@! TA.AperFunction,SMDPad,CuDef*
%ADD13RoundRect,0.155000X0.212500X0.155000X-0.212500X0.155000X-0.212500X-0.155000X0.212500X-0.155000X0*%
G04 #@! TD*
G04 #@! TA.AperFunction,ComponentPad*
%ADD14R,1.700000X1.700000*%
G04 #@! TD*
G04 #@! TA.AperFunction,ComponentPad*
%ADD15O,1.700000X1.700000*%
G04 #@! TD*
G04 #@! TA.AperFunction,SMDPad,CuDef*
%ADD16R,0.450000X0.875000*%
G04 #@! TD*
G04 #@! TA.AperFunction,ViaPad*
%ADD17C,0.600000*%
G04 #@! TD*
G04 #@! TA.AperFunction,Conductor*
%ADD18C,0.200000*%
G04 #@! TD*
G04 #@! TA.AperFunction,Conductor*
%ADD19C,0.300000*%
G04 #@! TD*
G04 APERTURE END LIST*
D10*
G04 #@! TO.P,R1,2*
G04 #@! TO.N,/VCC*
X27500000Y-28697500D03*
G04 #@! TO.P,R1,1*
G04 #@! TO.N,/SCL*
X27500000Y-27502500D03*
G04 #@! TD*
D11*
G04 #@! TO.P,R2,2*
G04 #@! TO.N,/VCC*
X27500000Y-24802500D03*
G04 #@! TO.P,R2,1*
G04 #@! TO.N,/SDA*
X27500000Y-25997500D03*
G04 #@! TD*
D12*
G04 #@! TO.P,C1,1*
G04 #@! TO.N,/VCC*
X23232500Y-31200000D03*
G04 #@! TO.P,C1,2*
G04 #@! TO.N,/GND*
X24367500Y-31200000D03*
G04 #@! TD*
D13*
G04 #@! TO.P,C2,1*
G04 #@! TO.N,/VCC*
X22067500Y-31200000D03*
G04 #@! TO.P,C2,2*
G04 #@! TO.N,/GND*
X20932500Y-31200000D03*
G04 #@! TD*
G04 #@! TO.P,C4,1*
G04 #@! TO.N,/VBAT*
X22067500Y-22700000D03*
G04 #@! TO.P,C4,2*
G04 #@! TO.N,/GND*
X20932500Y-22700000D03*
G04 #@! TD*
D12*
G04 #@! TO.P,C3,1*
G04 #@! TO.N,/VBAT*
X23232500Y-22700000D03*
G04 #@! TO.P,C3,2*
G04 #@! TO.N,/GND*
X24367500Y-22700000D03*
G04 #@! TD*
D14*
G04 #@! TO.P,J1,1*
G04 #@! TO.N,/VCC*
X18025000Y-21950000D03*
D15*
G04 #@! TO.P,J1,2*
G04 #@! TO.N,/SDA*
X18025000Y-24490000D03*
G04 #@! TO.P,J1,3*
G04 #@! TO.N,/SCL*
X18025000Y-27030000D03*
G04 #@! TO.P,J1,4*
G04 #@! TO.N,unconnected-(J1-Pad4)*
X18025000Y-29570000D03*
G04 #@! TO.P,J1,5*
G04 #@! TO.N,/GND*
X18025000Y-32110000D03*
G04 #@! TD*
D16*
G04 #@! TO.P,U1,1,32KHZ*
G04 #@! TO.N,unconnected-(U1-32KHZ-Pad1)*
X21500000Y-29212000D03*
G04 #@! TO.P,U1,2,VCC*
G04 #@! TO.N,/VCC*
X22500000Y-29212000D03*
G04 #@! TO.P,U1,3,~{INT}/SQW*
G04 #@! TO.N,unconnected-(U1-~{INT}{slash}SQW-Pad3)*
X23500000Y-29212000D03*
G04 #@! TO.P,U1,4,~{RST}*
G04 #@! TO.N,unconnected-(U1-~{RST}-Pad4)*
X24500000Y-29212000D03*
G04 #@! TO.P,U1,5,N.C._1*
G04 #@! TO.N,/GND*
X25500000Y-29212000D03*
G04 #@! TO.P,U1,6,N.C._2*
X25500000Y-24787000D03*
G04 #@! TO.P,U1,7,GND*
X24500000Y-24787000D03*
G04 #@! TO.P,U1,8,VBAT*
G04 #@! TO.N,/VBAT*
X23500000Y-24787000D03*
G04 #@! TO.P,U1,9,SDA*
G04 #@! TO.N,/SDA*
X22500000Y-24787000D03*
G04 #@! TO.P,U1,10,SCL*
G04 #@! TO.N,/SCL*
X21500000Y-24787000D03*
G04 #@! TD*
D17*
G04 #@! TO.N,/VBAT*
X23500000Y-23500000D03*
G04 #@! TO.N,/GND*
X25500000Y-30200000D03*
X21000000Y-23449500D03*
X25500000Y-23800000D03*
G04 #@! TD*
D18*
G04 #@! TO.N,/GND*
X25500000Y-31000000D02*
X25500000Y-30200000D01*
X25300000Y-31200000D02*
X25500000Y-31000000D01*
X24180000Y-31200000D02*
X25300000Y-31200000D01*
X18935000Y-31200000D02*
X18025000Y-32110000D01*
X21020000Y-31200000D02*
X18935000Y-31200000D01*
X25500000Y-23800000D02*
X25500000Y-23600000D01*
X25500000Y-23600000D02*
X24600000Y-22700000D01*
X24600000Y-22700000D02*
X24180000Y-22700000D01*
D19*
G04 #@! TO.N,/VBAT*
X23200000Y-23200000D02*
X23200000Y-22720000D01*
X23500000Y-23500000D02*
X23200000Y-23200000D01*
X23220000Y-22700000D02*
X23200000Y-22720000D01*
X22400000Y-23600000D02*
X21980000Y-23180000D01*
X21980000Y-23180000D02*
X21980000Y-22700000D01*
X23400000Y-23600000D02*
X22400000Y-23600000D01*
X23500000Y-23500000D02*
X23400000Y-23600000D01*
D18*
G04 #@! TO.N,/SDA*
X22500000Y-25512250D02*
X22500000Y-24787000D01*
X22997750Y-26010000D02*
X22500000Y-25512250D01*
X27500000Y-26010000D02*
X22997750Y-26010000D01*
G04 #@! TO.N,/SCL*
X27200000Y-26700000D02*
X27500000Y-27000000D01*
X21500000Y-24999500D02*
X21500000Y-25500000D01*
X21500000Y-25500000D02*
X22700000Y-26700000D01*
X22700000Y-26700000D02*
X27200000Y-26700000D01*
X27500000Y-27000000D02*
X27500000Y-27490000D01*
G04 #@! TO.N,/GND*
X25500000Y-30200000D02*
X25500000Y-29500000D01*
G04 #@! TO.N,/SDA*
X22349500Y-24049500D02*
X18465500Y-24049500D01*
X22500000Y-24200000D02*
X22349500Y-24049500D01*
X22500000Y-24574500D02*
X22500000Y-24200000D01*
G04 #@! TO.N,/SCL*
X19813000Y-24787000D02*
X18025000Y-26575000D01*
X21500000Y-24787000D02*
X19813000Y-24787000D01*
G04 #@! TO.N,/GND*
X25500000Y-29576514D02*
X25500000Y-29212000D01*
D19*
G04 #@! TO.N,/VBAT*
X23500000Y-23500000D02*
X23500000Y-24787000D01*
D18*
G04 #@! TO.N,/GND*
X21020000Y-23429500D02*
X21020000Y-22700000D01*
X21000000Y-23449500D02*
X21020000Y-23429500D01*
G04 #@! TD*
G04 #@! TA.AperFunction,Conductor*
G04 #@! TO.N,/VCC*
G36*
X28743039Y-21519685D02*
G01*
X28788794Y-21572489D01*
X28800000Y-21624000D01*
X28800000Y-31776000D01*
X28780315Y-31843039D01*
X28727511Y-31888794D01*
X28676000Y-31900000D01*
X25747977Y-31900000D01*
X25680938Y-31880315D01*
X25635183Y-31827511D01*
X25625239Y-31758353D01*
X25654264Y-31694797D01*
X25663137Y-31686437D01*
X25662968Y-31686268D01*
X25668716Y-31680520D01*
X25780520Y-31568716D01*
X25780520Y-31568714D01*
X25980520Y-31368716D01*
X26059577Y-31231784D01*
X26100501Y-31079057D01*
X26100501Y-30920942D01*
X26100501Y-30913347D01*
X26100500Y-30913329D01*
X26100500Y-30782412D01*
X26120185Y-30715373D01*
X26127555Y-30705097D01*
X26129810Y-30702267D01*
X26129816Y-30702262D01*
X26225789Y-30549522D01*
X26285368Y-30379255D01*
X26285369Y-30379249D01*
X26305565Y-30200003D01*
X26305565Y-30199996D01*
X26285369Y-30020750D01*
X26285368Y-30020745D01*
X26280575Y-30007047D01*
X26225789Y-29850478D01*
X26225785Y-29850471D01*
X26225299Y-29849462D01*
X26225179Y-29848735D01*
X26223489Y-29843905D01*
X26224334Y-29843609D01*
X26213939Y-29780522D01*
X26217819Y-29764652D01*
X26217307Y-29764531D01*
X26219088Y-29756989D01*
X26219091Y-29756983D01*
X26225500Y-29697373D01*
X26225499Y-28948337D01*
X26680000Y-28948337D01*
X26686043Y-29014843D01*
X26733724Y-29167859D01*
X26733726Y-29167863D01*
X26816639Y-29305019D01*
X26816642Y-29305023D01*
X26929976Y-29418357D01*
X26929980Y-29418360D01*
X27067136Y-29501273D01*
X27067138Y-29501274D01*
X27220155Y-29548956D01*
X27220161Y-29548958D01*
X27249999Y-29551668D01*
X27250000Y-29551668D01*
X27750000Y-29551668D01*
X27779838Y-29548958D01*
X27779844Y-29548956D01*
X27932861Y-29501274D01*
X27932863Y-29501273D01*
X28070019Y-29418360D01*
X28070023Y-29418357D01*
X28183357Y-29305023D01*
X28183360Y-29305019D01*
X28266273Y-29167863D01*
X28266275Y-29167859D01*
X28313956Y-29014843D01*
X28320000Y-28948337D01*
X28320000Y-28947500D01*
X27750000Y-28947500D01*
X27750000Y-29551668D01*
X27250000Y-29551668D01*
X27250000Y-28947500D01*
X26680000Y-28947500D01*
X26680000Y-28948337D01*
X26225499Y-28948337D01*
X26225499Y-28726628D01*
X26219091Y-28667017D01*
X26168796Y-28532169D01*
X26168795Y-28532168D01*
X26168793Y-28532164D01*
X26082547Y-28416955D01*
X26082544Y-28416952D01*
X25967335Y-28330706D01*
X25967328Y-28330702D01*
X25832486Y-28280410D01*
X25832485Y-28280409D01*
X25832483Y-28280409D01*
X25772873Y-28274000D01*
X25772863Y-28274000D01*
X25227129Y-28274000D01*
X25227123Y-28274001D01*
X25167516Y-28280408D01*
X25043333Y-28326726D01*
X24973641Y-28331710D01*
X24956667Y-28326726D01*
X24832486Y-28280410D01*
X24832485Y-28280409D01*
X24832483Y-28280409D01*
X24772873Y-28274000D01*
X24772863Y-28274000D01*
X24227129Y-28274000D01*
X24227123Y-28274001D01*
X24167516Y-28280408D01*
X24043333Y-28326726D01*
X23973641Y-28331710D01*
X23956667Y-28326726D01*
X23832486Y-28280410D01*
X23832485Y-28280409D01*
X23832483Y-28280409D01*
X23772873Y-28274000D01*
X23772863Y-28274000D01*
X23227129Y-28274000D01*
X23227123Y-28274001D01*
X23167515Y-28280409D01*
X23042617Y-28326992D01*
X22972926Y-28331976D01*
X22955952Y-28326992D01*
X22832380Y-28280903D01*
X22832372Y-28280901D01*
X22772844Y-28274500D01*
X22725000Y-28274500D01*
X22725000Y-30149500D01*
X22772828Y-30149500D01*
X22772844Y-30149499D01*
X22832372Y-30143098D01*
X22832376Y-30143097D01*
X22955951Y-30097006D01*
X23025643Y-30092022D01*
X23042605Y-30097001D01*
X23155390Y-30139067D01*
X23166192Y-30143097D01*
X23167517Y-30143591D01*
X23227127Y-30150000D01*
X23423139Y-30149999D01*
X23490177Y-30169683D01*
X23503241Y-30184760D01*
X23516066Y-30169875D01*
X23583049Y-30150000D01*
X23583280Y-30149999D01*
X23772872Y-30149999D01*
X23832483Y-30143591D01*
X23956668Y-30097272D01*
X24026357Y-30092288D01*
X24043324Y-30097270D01*
X24128661Y-30129099D01*
X24167508Y-30143588D01*
X24167510Y-30143588D01*
X24167517Y-30143591D01*
X24167523Y-30143591D01*
X24172726Y-30144821D01*
X24233445Y-30179390D01*
X24265835Y-30241298D01*
X24259614Y-30310890D01*
X24216755Y-30366071D01*
X24150868Y-30389322D01*
X24144222Y-30389500D01*
X24088810Y-30389500D01*
X24088784Y-30389501D01*
X24051641Y-30392424D01*
X23892604Y-30438628D01*
X23892596Y-30438631D01*
X23862627Y-30456355D01*
X23794903Y-30473536D01*
X23736389Y-30456355D01*
X23707199Y-30439093D01*
X23707194Y-30439090D01*
X23548808Y-30393075D01*
X23506465Y-30366034D01*
X23482500Y-30390000D01*
X23482500Y-31326000D01*
X23462815Y-31393039D01*
X23410011Y-31438794D01*
X23358500Y-31450000D01*
X21941500Y-31450000D01*
X21874461Y-31430315D01*
X21828706Y-31377511D01*
X21817500Y-31326000D01*
X21817500Y-30390000D01*
X22317500Y-30390000D01*
X22317500Y-30950000D01*
X22982500Y-30950000D01*
X22982500Y-30390000D01*
X22953842Y-30390000D01*
X22916722Y-30392921D01*
X22916716Y-30392922D01*
X22757805Y-30439091D01*
X22757804Y-30439091D01*
X22713120Y-30465517D01*
X22645396Y-30482698D01*
X22586880Y-30465517D01*
X22542195Y-30439091D01*
X22383283Y-30392922D01*
X22383277Y-30392921D01*
X22346157Y-30390000D01*
X22333862Y-30390000D01*
X22321213Y-30386286D01*
X22317500Y-30390000D01*
X21817500Y-30390000D01*
X21802464Y-30374964D01*
X21786742Y-30370347D01*
X21751532Y-30392976D01*
X21751192Y-30393075D01*
X21592805Y-30439091D01*
X21592800Y-30439093D01*
X21563609Y-30456356D01*
X21495884Y-30473536D01*
X21437369Y-30456354D01*
X21410022Y-30440181D01*
X21407400Y-30438630D01*
X21407399Y-30438629D01*
X21407398Y-30438629D01*
X21407395Y-30438627D01*
X21250603Y-30393075D01*
X21211321Y-30367989D01*
X21150858Y-30389322D01*
X21144217Y-30389500D01*
X20653809Y-30389500D01*
X20653784Y-30389501D01*
X20616645Y-30392423D01*
X20457599Y-30438630D01*
X20315049Y-30522934D01*
X20315040Y-30522941D01*
X20274803Y-30563180D01*
X20213480Y-30596666D01*
X20187121Y-30599500D01*
X19763516Y-30599500D01*
X19696477Y-30579815D01*
X19682313Y-30569212D01*
X19573299Y-30474750D01*
X19573297Y-30474748D01*
X19573294Y-30474746D01*
X19573290Y-30474744D01*
X19442419Y-30414976D01*
X19442414Y-30414975D01*
X19306604Y-30395449D01*
X19243048Y-30366424D01*
X19205274Y-30307646D01*
X19205274Y-30237776D01*
X19211866Y-30220313D01*
X19298903Y-30033663D01*
X19360063Y-29805408D01*
X19380659Y-29570000D01*
X19360063Y-29334592D01*
X19298903Y-29106337D01*
X19199035Y-28892171D01*
X19083127Y-28726635D01*
X20774500Y-28726635D01*
X20774500Y-29697370D01*
X20774501Y-29697376D01*
X20780908Y-29756983D01*
X20831202Y-29891828D01*
X20831206Y-29891835D01*
X20917452Y-30007044D01*
X20917455Y-30007047D01*
X21032664Y-30093293D01*
X21032671Y-30093297D01*
X21167517Y-30143591D01*
X21172730Y-30144823D01*
X21217487Y-30170308D01*
X21217861Y-30169875D01*
X21284844Y-30150000D01*
X21284881Y-30149999D01*
X21716597Y-30149999D01*
X21783523Y-30169651D01*
X21818734Y-30147023D01*
X21825152Y-30145324D01*
X21832476Y-30143593D01*
X21832480Y-30143591D01*
X21832483Y-30143591D01*
X21957384Y-30097005D01*
X22027073Y-30092022D01*
X22044049Y-30097006D01*
X22167623Y-30143097D01*
X22167627Y-30143098D01*
X22227155Y-30149499D01*
X22227172Y-30149500D01*
X22258638Y-30149500D01*
X22271286Y-30153213D01*
X22275000Y-30149500D01*
X22275000Y-28274500D01*
X22227155Y-28274500D01*
X22167627Y-28280901D01*
X22167619Y-28280903D01*
X22044046Y-28326993D01*
X21974354Y-28331977D01*
X21957389Y-28326996D01*
X21885009Y-28300000D01*
X21832485Y-28280409D01*
X21822548Y-28279340D01*
X21772873Y-28274000D01*
X21772863Y-28274000D01*
X21227129Y-28274000D01*
X21227123Y-28274001D01*
X21167516Y-28280408D01*
X21032671Y-28330702D01*
X21032664Y-28330706D01*
X20917455Y-28416952D01*
X20917452Y-28416955D01*
X20831206Y-28532164D01*
X20831202Y-28532171D01*
X20780908Y-28667017D01*
X20777513Y-28698599D01*
X20774501Y-28726623D01*
X20774500Y-28726635D01*
X19083127Y-28726635D01*
X19083121Y-28726627D01*
X19063494Y-28698597D01*
X18896402Y-28531506D01*
X18896396Y-28531501D01*
X18710842Y-28401575D01*
X18667217Y-28346998D01*
X18660023Y-28277500D01*
X18691546Y-28215145D01*
X18710842Y-28198425D01*
X18855580Y-28097078D01*
X18896401Y-28068495D01*
X19063495Y-27901401D01*
X19199035Y-27707830D01*
X19298903Y-27493663D01*
X19360063Y-27265408D01*
X19380659Y-27030000D01*
X19360063Y-26794592D01*
X19298903Y-26566337D01*
X19203299Y-26361316D01*
X19192808Y-26292241D01*
X19221328Y-26228457D01*
X19227987Y-26221246D01*
X20025416Y-25423819D01*
X20086739Y-25390334D01*
X20113097Y-25387500D01*
X20715521Y-25387500D01*
X20782560Y-25407185D01*
X20828315Y-25459989D01*
X20830979Y-25466419D01*
X20831203Y-25466830D01*
X20876706Y-25527613D01*
X20894748Y-25571915D01*
X20897396Y-25571206D01*
X20899499Y-25579054D01*
X20899499Y-25579057D01*
X20940423Y-25731785D01*
X20947495Y-25744034D01*
X21019477Y-25868712D01*
X21019481Y-25868717D01*
X21138349Y-25987585D01*
X21138355Y-25987590D01*
X22215139Y-27064374D01*
X22215149Y-27064385D01*
X22219479Y-27068715D01*
X22219480Y-27068716D01*
X22331284Y-27180520D01*
X22418095Y-27230639D01*
X22418097Y-27230641D01*
X22468213Y-27259576D01*
X22468215Y-27259577D01*
X22620942Y-27300500D01*
X22620943Y-27300500D01*
X26555500Y-27300500D01*
X26622539Y-27320185D01*
X26668294Y-27372989D01*
X26679500Y-27424500D01*
X26679500Y-27753388D01*
X26685546Y-27819926D01*
X26685548Y-27819933D01*
X26733265Y-27973066D01*
X26733267Y-27973070D01*
X26771511Y-28036334D01*
X26789347Y-28103889D01*
X26771512Y-28164632D01*
X26733724Y-28227141D01*
X26686043Y-28380156D01*
X26680000Y-28446662D01*
X26680000Y-28447500D01*
X28320000Y-28447500D01*
X28320000Y-28446662D01*
X28313956Y-28380156D01*
X28266275Y-28227140D01*
X28228488Y-28164633D01*
X28210652Y-28097078D01*
X28228488Y-28036334D01*
X28266733Y-27973069D01*
X28314452Y-27819933D01*
X28320500Y-27753381D01*
X28320499Y-27251620D01*
X28320499Y-27251611D01*
X28314453Y-27185073D01*
X28314452Y-27185070D01*
X28314452Y-27185067D01*
X28266733Y-27031931D01*
X28265565Y-27029999D01*
X28183757Y-26894670D01*
X28183756Y-26894669D01*
X28183754Y-26894667D01*
X28183753Y-26894665D01*
X28126768Y-26837680D01*
X28093284Y-26776356D01*
X28098269Y-26706665D01*
X28126765Y-26662322D01*
X28183753Y-26605335D01*
X28266733Y-26468069D01*
X28314452Y-26314933D01*
X28320500Y-26248381D01*
X28320499Y-25746620D01*
X28320499Y-25746611D01*
X28314453Y-25680073D01*
X28314452Y-25680070D01*
X28314452Y-25680067D01*
X28280530Y-25571206D01*
X28266734Y-25526933D01*
X28266732Y-25526929D01*
X28228488Y-25463665D01*
X28210652Y-25396111D01*
X28228489Y-25335365D01*
X28266273Y-25272862D01*
X28313957Y-25119838D01*
X28320000Y-25053337D01*
X28320000Y-25052500D01*
X26680000Y-25052500D01*
X26680000Y-25053337D01*
X26686042Y-25119838D01*
X26726169Y-25248610D01*
X26727319Y-25318470D01*
X26690518Y-25377863D01*
X26627449Y-25407931D01*
X26607783Y-25409500D01*
X26348803Y-25409500D01*
X26281764Y-25389815D01*
X26236009Y-25337011D01*
X26226075Y-25275721D01*
X26225564Y-25275694D01*
X26225500Y-25275694D01*
X26225499Y-25275690D01*
X26225322Y-25275681D01*
X26225497Y-25272400D01*
X26225500Y-25272373D01*
X26225499Y-24551662D01*
X26680000Y-24551662D01*
X26680000Y-24552500D01*
X27250000Y-24552500D01*
X27750000Y-24552500D01*
X28320000Y-24552500D01*
X28320000Y-24551662D01*
X28313956Y-24485156D01*
X28266275Y-24332140D01*
X28266273Y-24332136D01*
X28183360Y-24194980D01*
X28183357Y-24194976D01*
X28070023Y-24081642D01*
X28070019Y-24081639D01*
X27932863Y-23998726D01*
X27932859Y-23998724D01*
X27779843Y-23951043D01*
X27779844Y-23951043D01*
X27750000Y-23948331D01*
X27750000Y-24552500D01*
X27250000Y-24552500D01*
X27250000Y-23948331D01*
X27220155Y-23951043D01*
X27067140Y-23998724D01*
X27067136Y-23998726D01*
X26929980Y-24081639D01*
X26929976Y-24081642D01*
X26816642Y-24194976D01*
X26816639Y-24194980D01*
X26733726Y-24332136D01*
X26733724Y-24332140D01*
X26686043Y-24485156D01*
X26680000Y-24551662D01*
X26225499Y-24551662D01*
X26225499Y-24301628D01*
X26219091Y-24242017D01*
X26219091Y-24242016D01*
X26217307Y-24234466D01*
X26220083Y-24233809D01*
X26216055Y-24177568D01*
X26225507Y-24150106D01*
X26225785Y-24149528D01*
X26225789Y-24149522D01*
X26249542Y-24081639D01*
X26285366Y-23979262D01*
X26285369Y-23979249D01*
X26305565Y-23800003D01*
X26305565Y-23799996D01*
X26285369Y-23620750D01*
X26285368Y-23620745D01*
X26225788Y-23450476D01*
X26142104Y-23317295D01*
X26129816Y-23297738D01*
X26002262Y-23170184D01*
X25849524Y-23074212D01*
X25849525Y-23074212D01*
X25847507Y-23073506D01*
X25836119Y-23069521D01*
X25789397Y-23040162D01*
X25268485Y-22519250D01*
X25235000Y-22457927D01*
X25232699Y-22442315D01*
X25232578Y-22441652D01*
X25232576Y-22441646D01*
X25232576Y-22441642D01*
X25186370Y-22282600D01*
X25102063Y-22140046D01*
X25102061Y-22140044D01*
X25102058Y-22140040D01*
X24984959Y-22022941D01*
X24984950Y-22022934D01*
X24842398Y-21938629D01*
X24842395Y-21938628D01*
X24683362Y-21892424D01*
X24683356Y-21892423D01*
X24646203Y-21889500D01*
X24088809Y-21889500D01*
X24088784Y-21889501D01*
X24051645Y-21892423D01*
X23892598Y-21938630D01*
X23863119Y-21956064D01*
X23795394Y-21973245D01*
X23736881Y-21956064D01*
X23707400Y-21938630D01*
X23707395Y-21938628D01*
X23548362Y-21892424D01*
X23548356Y-21892423D01*
X23511203Y-21889500D01*
X22953809Y-21889500D01*
X22953784Y-21889501D01*
X22916645Y-21892423D01*
X22757600Y-21938630D01*
X22713120Y-21964935D01*
X22645395Y-21982116D01*
X22586880Y-21964935D01*
X22558883Y-21948378D01*
X22542400Y-21938630D01*
X22542398Y-21938629D01*
X22542396Y-21938628D01*
X22383362Y-21892424D01*
X22383356Y-21892423D01*
X22346203Y-21889500D01*
X21788809Y-21889500D01*
X21788784Y-21889501D01*
X21751645Y-21892423D01*
X21592598Y-21938630D01*
X21563119Y-21956064D01*
X21495394Y-21973245D01*
X21436881Y-21956064D01*
X21407400Y-21938630D01*
X21407395Y-21938628D01*
X21248362Y-21892424D01*
X21248356Y-21892423D01*
X21211203Y-21889500D01*
X20653809Y-21889500D01*
X20653784Y-21889501D01*
X20616645Y-21892423D01*
X20457599Y-21938630D01*
X20315049Y-22022934D01*
X20315040Y-22022941D01*
X20197941Y-22140040D01*
X20197934Y-22140049D01*
X20113629Y-22282601D01*
X20113628Y-22282604D01*
X20067424Y-22441637D01*
X20067423Y-22441643D01*
X20064500Y-22478789D01*
X20064500Y-22921190D01*
X20064501Y-22921215D01*
X20067423Y-22958354D01*
X20113630Y-23117400D01*
X20191796Y-23249571D01*
X20208979Y-23317295D01*
X20208285Y-23326568D01*
X20206899Y-23338876D01*
X20179836Y-23403292D01*
X20122244Y-23442850D01*
X20083678Y-23449000D01*
X18931921Y-23449000D01*
X18864882Y-23429315D01*
X18860798Y-23426575D01*
X18702831Y-23315965D01*
X18702829Y-23315964D01*
X18560448Y-23249571D01*
X18488663Y-23216097D01*
X18488659Y-23216096D01*
X18488655Y-23216094D01*
X18428590Y-23200000D01*
X19300000Y-23200000D01*
X19300000Y-21500000D01*
X28676000Y-21500000D01*
X28743039Y-21519685D01*
G37*
G04 #@! TD.AperFunction*
G04 #@! TD*
G04 #@! TA.AperFunction,Conductor*
G04 #@! TO.N,/GND*
G36*
X36742539Y-20520185D02*
G01*
X36788294Y-20572989D01*
X36799500Y-20624500D01*
X36799500Y-33375500D01*
X36779815Y-33442539D01*
X36727011Y-33488294D01*
X36675500Y-33499500D01*
X16624500Y-33499500D01*
X16557461Y-33479815D01*
X16511706Y-33427011D01*
X16500500Y-33375500D01*
X16500500Y-30040296D01*
X16520185Y-29973257D01*
X16572989Y-29927502D01*
X16642147Y-29917558D01*
X16705703Y-29946583D01*
X16743477Y-30005361D01*
X16744275Y-30008204D01*
X16751093Y-30033653D01*
X16751096Y-30033660D01*
X16751097Y-30033663D01*
X16828661Y-30199999D01*
X16850965Y-30247830D01*
X16850967Y-30247834D01*
X16926635Y-30355898D01*
X16986505Y-30441401D01*
X17153599Y-30608495D01*
X17250219Y-30676149D01*
X17347165Y-30744032D01*
X17347167Y-30744033D01*
X17347170Y-30744035D01*
X17561337Y-30843903D01*
X17770696Y-30900000D01*
X16700000Y-30900000D01*
X16700000Y-31000000D01*
X16700000Y-33400000D01*
X19300000Y-33400000D01*
X19300000Y-31450000D01*
X20067270Y-31450000D01*
X20067921Y-31458281D01*
X20114090Y-31617194D01*
X20114092Y-31617197D01*
X20198333Y-31759642D01*
X20198339Y-31759650D01*
X20315349Y-31876660D01*
X20315357Y-31876666D01*
X20457802Y-31960907D01*
X20457805Y-31960908D01*
X20616716Y-32007077D01*
X20616722Y-32007078D01*
X20653842Y-32009999D01*
X20653858Y-32010000D01*
X20682500Y-32010000D01*
X20682500Y-31450000D01*
X20067270Y-31450000D01*
X19300000Y-31450000D01*
X19300000Y-30917170D01*
X19325280Y-30928714D01*
X19351279Y-30951242D01*
X19379379Y-30973886D01*
X19379386Y-30973891D01*
X19379387Y-30973892D01*
X19393547Y-30984492D01*
X19423175Y-31005064D01*
X19423178Y-31005066D01*
X19423180Y-31005067D01*
X19554057Y-31064838D01*
X19621096Y-31084523D01*
X19621100Y-31084524D01*
X19763516Y-31105000D01*
X19763519Y-31105000D01*
X20187122Y-31105000D01*
X20194184Y-31104621D01*
X20241159Y-31102103D01*
X20241165Y-31102102D01*
X20241171Y-31102102D01*
X20249945Y-31101158D01*
X20267518Y-31099269D01*
X20320939Y-31090612D01*
X20455747Y-31040329D01*
X20515141Y-31007896D01*
X20516593Y-31007136D01*
X20517049Y-31006854D01*
X20517070Y-31006843D01*
X20517074Y-31006841D01*
X20559960Y-30974735D01*
X20625423Y-30950316D01*
X20634273Y-30950000D01*
X21058500Y-30950000D01*
X21125539Y-30969685D01*
X21171294Y-31022489D01*
X21182500Y-31074000D01*
X21182500Y-32010000D01*
X21211142Y-32010000D01*
X21211157Y-32009999D01*
X21248277Y-32007078D01*
X21248283Y-32007077D01*
X21407194Y-31960908D01*
X21407202Y-31960905D01*
X21436386Y-31943646D01*
X21504109Y-31926462D01*
X21562628Y-31943644D01*
X21592600Y-31961370D01*
X21634541Y-31973555D01*
X21751637Y-32007575D01*
X21751640Y-32007575D01*
X21751642Y-32007576D01*
X21788797Y-32010500D01*
X22346202Y-32010499D01*
X22383358Y-32007576D01*
X22542397Y-31961371D01*
X22545657Y-31960424D01*
X22580252Y-31955500D01*
X22719748Y-31955500D01*
X22754343Y-31960424D01*
X22916637Y-32007575D01*
X22916640Y-32007575D01*
X22916642Y-32007576D01*
X22953797Y-32010500D01*
X23511202Y-32010499D01*
X23548358Y-32007576D01*
X23707400Y-31961370D01*
X23737369Y-31943645D01*
X23805088Y-31926461D01*
X23863613Y-31943645D01*
X23892800Y-31960906D01*
X23892805Y-31960908D01*
X24051716Y-32007077D01*
X24051722Y-32007078D01*
X24088842Y-32009999D01*
X24088858Y-32010000D01*
X24117500Y-32010000D01*
X24117500Y-31074000D01*
X24137185Y-31006961D01*
X24189989Y-30961206D01*
X24241500Y-30950000D01*
X25232730Y-30950000D01*
X25232078Y-30941718D01*
X25185909Y-30782805D01*
X25185907Y-30782802D01*
X25101666Y-30640357D01*
X25101660Y-30640349D01*
X24984650Y-30523339D01*
X24984642Y-30523333D01*
X24842193Y-30439090D01*
X24841126Y-30438628D01*
X24840422Y-30438042D01*
X24835484Y-30435122D01*
X24835955Y-30434325D01*
X24787420Y-30393936D01*
X24766402Y-30327302D01*
X24766869Y-30313796D01*
X24769327Y-30286306D01*
X24767939Y-30260470D01*
X24784000Y-30192477D01*
X24834274Y-30143956D01*
X24848415Y-30137648D01*
X24957384Y-30097005D01*
X25027074Y-30092022D01*
X25044049Y-30097006D01*
X25167623Y-30143097D01*
X25167627Y-30143098D01*
X25227155Y-30149499D01*
X25227172Y-30149500D01*
X25275000Y-30149500D01*
X25275000Y-29111000D01*
X25294685Y-29043961D01*
X25347489Y-28998206D01*
X25399000Y-28987000D01*
X25595999Y-28987000D01*
X25663038Y-29006685D01*
X25708793Y-29059489D01*
X25719999Y-29111000D01*
X25719999Y-29663632D01*
X25719287Y-29676897D01*
X25718913Y-29680373D01*
X25717599Y-29689430D01*
X25712215Y-29718848D01*
X25712214Y-29718860D01*
X25715165Y-29862706D01*
X25723350Y-29912380D01*
X25725000Y-29932540D01*
X25725000Y-30149500D01*
X25747843Y-30172343D01*
X25781328Y-30233666D01*
X25777203Y-30300980D01*
X25772080Y-30315620D01*
X25760033Y-30340636D01*
X25713649Y-30414456D01*
X25710291Y-30419456D01*
X25710297Y-30419460D01*
X25709545Y-30420565D01*
X25709453Y-30420704D01*
X25709432Y-30420732D01*
X25699671Y-30435101D01*
X25696962Y-30439090D01*
X25694932Y-30442078D01*
X25635163Y-30572949D01*
X25615476Y-30639994D01*
X25595000Y-30782413D01*
X25595000Y-30915051D01*
X25595001Y-30915086D01*
X25595001Y-30987986D01*
X25575316Y-31055025D01*
X25558682Y-31075667D01*
X25421502Y-31212847D01*
X25305516Y-31328835D01*
X25305477Y-31328881D01*
X25301292Y-31333468D01*
X25272234Y-31363762D01*
X25272228Y-31363769D01*
X25268349Y-31369804D01*
X25259214Y-31382007D01*
X25258298Y-31383327D01*
X25258295Y-31383330D01*
X25258294Y-31383333D01*
X25257146Y-31385434D01*
X25256129Y-31386451D01*
X25254511Y-31388783D01*
X25254089Y-31388490D01*
X25207741Y-31434835D01*
X25148319Y-31450000D01*
X24617500Y-31450000D01*
X24617500Y-32010000D01*
X24646142Y-32010000D01*
X24646157Y-32009999D01*
X24683277Y-32007078D01*
X24683283Y-32007077D01*
X24842194Y-31960908D01*
X24842197Y-31960907D01*
X24969713Y-31885495D01*
X25037437Y-31868312D01*
X25103699Y-31890472D01*
X25147463Y-31944938D01*
X25151811Y-31957291D01*
X25175364Y-32037503D01*
X25175366Y-32037507D01*
X25253148Y-32158537D01*
X25253156Y-32158548D01*
X25298900Y-32211340D01*
X25298903Y-32211343D01*
X25298907Y-32211347D01*
X25407641Y-32305567D01*
X25407644Y-32305568D01*
X25407645Y-32305569D01*
X25501902Y-32348616D01*
X25538518Y-32365338D01*
X25605557Y-32385023D01*
X25605561Y-32385024D01*
X25747977Y-32405500D01*
X25747980Y-32405500D01*
X28675990Y-32405500D01*
X28676000Y-32405500D01*
X28783456Y-32393947D01*
X28834967Y-32382741D01*
X28869197Y-32371347D01*
X28937497Y-32348616D01*
X28937501Y-32348613D01*
X28937504Y-32348613D01*
X29058543Y-32270825D01*
X29111347Y-32225070D01*
X29205567Y-32116336D01*
X29265338Y-31985459D01*
X29285023Y-31918420D01*
X29285024Y-31918416D01*
X29305500Y-31776000D01*
X29305500Y-21624000D01*
X29293947Y-21516544D01*
X29282741Y-21465033D01*
X29282637Y-21464722D01*
X29248616Y-21362502D01*
X29248613Y-21362496D01*
X29170828Y-21241462D01*
X29170825Y-21241457D01*
X29170820Y-21241451D01*
X29125076Y-21188659D01*
X29125072Y-21188656D01*
X29125070Y-21188653D01*
X29016336Y-21094433D01*
X29016333Y-21094431D01*
X29016331Y-21094430D01*
X28885465Y-21034664D01*
X28885460Y-21034662D01*
X28885459Y-21034662D01*
X28818420Y-21014977D01*
X28818422Y-21014977D01*
X28818417Y-21014976D01*
X28770944Y-21008150D01*
X28676000Y-20994500D01*
X28675998Y-20994500D01*
X19929500Y-20994500D01*
X19862461Y-20974815D01*
X19816706Y-20922011D01*
X19805500Y-20870500D01*
X19805500Y-20824010D01*
X19805500Y-20824000D01*
X19793947Y-20716544D01*
X19782741Y-20665033D01*
X19782286Y-20663665D01*
X19782273Y-20663328D01*
X19781862Y-20661827D01*
X19782216Y-20661729D01*
X19779788Y-20593840D01*
X19815437Y-20533750D01*
X19877915Y-20502471D01*
X19899938Y-20500500D01*
X36675500Y-20500500D01*
X36742539Y-20520185D01*
G37*
G04 #@! TD.AperFunction*
G04 #@! TA.AperFunction,Conductor*
G36*
X18873006Y-30713365D02*
G01*
X18903868Y-30739052D01*
X18912016Y-30748456D01*
X19033056Y-30826243D01*
X19090584Y-30852515D01*
X19094868Y-30854756D01*
X19096612Y-30855268D01*
X19096613Y-30855269D01*
X19234666Y-30895804D01*
X19261729Y-30899694D01*
X19262399Y-30900000D01*
X18279304Y-30900000D01*
X18488663Y-30843903D01*
X18702830Y-30744035D01*
X18739034Y-30718684D01*
X18805238Y-30696356D01*
X18873006Y-30713365D01*
G37*
G04 #@! TD.AperFunction*
G04 #@! TA.AperFunction,Conductor*
G36*
X24560539Y-22469685D02*
G01*
X24606294Y-22522489D01*
X24617500Y-22574000D01*
X24617500Y-23510000D01*
X24646142Y-23510000D01*
X24646157Y-23509999D01*
X24683277Y-23507078D01*
X24683283Y-23507077D01*
X24842194Y-23460908D01*
X24842197Y-23460907D01*
X24984642Y-23376666D01*
X24984650Y-23376660D01*
X25107182Y-23254129D01*
X25108795Y-23255742D01*
X25156095Y-23221568D01*
X25225861Y-23217764D01*
X25285136Y-23250786D01*
X25431950Y-23397600D01*
X25431954Y-23397603D01*
X25431955Y-23397604D01*
X25520444Y-23468174D01*
X25567166Y-23497533D01*
X25586324Y-23506759D01*
X25598488Y-23513482D01*
X25673268Y-23560470D01*
X25694976Y-23577782D01*
X25722216Y-23605022D01*
X25739525Y-23626726D01*
X25760034Y-23659364D01*
X25772082Y-23684384D01*
X25776946Y-23698287D01*
X25780504Y-23768066D01*
X25747584Y-23826915D01*
X25725000Y-23849499D01*
X25725000Y-24042770D01*
X25722401Y-24063879D01*
X25723166Y-24064012D01*
X25722096Y-24070163D01*
X25711847Y-24213685D01*
X25713274Y-24233607D01*
X25713515Y-24240353D01*
X25713546Y-24240353D01*
X25713590Y-24242005D01*
X25716487Y-24296044D01*
X25719289Y-24322111D01*
X25719999Y-24335363D01*
X25719999Y-24551663D01*
X25719999Y-24888001D01*
X25700316Y-24955039D01*
X25647512Y-25000794D01*
X25596000Y-25012000D01*
X24399000Y-25012000D01*
X24331961Y-24992315D01*
X24286206Y-24939511D01*
X24275000Y-24888000D01*
X24275000Y-24562000D01*
X24725000Y-24562000D01*
X25275000Y-24562000D01*
X25275000Y-23849500D01*
X25227155Y-23849500D01*
X25167627Y-23855901D01*
X25167619Y-23855903D01*
X25043333Y-23902259D01*
X24973641Y-23907243D01*
X24956667Y-23902259D01*
X24832380Y-23855903D01*
X24832372Y-23855901D01*
X24772844Y-23849500D01*
X24725000Y-23849500D01*
X24725000Y-24562000D01*
X24275000Y-24562000D01*
X24275000Y-23833999D01*
X24260160Y-23806822D01*
X24264285Y-23739509D01*
X24285366Y-23679262D01*
X24285369Y-23679249D01*
X24305565Y-23500003D01*
X24305565Y-23499996D01*
X24285369Y-23320750D01*
X24285368Y-23320745D01*
X24225788Y-23150476D01*
X24136506Y-23008385D01*
X24117500Y-22942413D01*
X24117500Y-22574000D01*
X24137185Y-22506961D01*
X24189989Y-22461206D01*
X24241500Y-22450000D01*
X24493500Y-22450000D01*
X24560539Y-22469685D01*
G37*
G04 #@! TD.AperFunction*
G04 #@! TD*
G04 #@! TA.AperFunction,Conductor*
G04 #@! TO.N,/VCC*
G36*
X19243039Y-20719685D02*
G01*
X19288794Y-20772489D01*
X19300000Y-20824000D01*
X19300000Y-23200000D01*
X18428590Y-23200000D01*
X18260413Y-23154938D01*
X18260403Y-23154936D01*
X18025001Y-23134341D01*
X18024999Y-23134341D01*
X17789596Y-23154936D01*
X17789586Y-23154938D01*
X17637181Y-23195775D01*
X17605088Y-23200000D01*
X16824000Y-23200000D01*
X16756961Y-23180315D01*
X16711206Y-23127511D01*
X16700000Y-23076000D01*
X16700000Y-20824000D01*
X16719685Y-20756961D01*
X16772489Y-20711206D01*
X16824000Y-20700000D01*
X19176000Y-20700000D01*
X19243039Y-20719685D01*
G37*
G04 #@! TD.AperFunction*
G04 #@! TD*
G04 #@! TA.AperFunction,Conductor*
G04 #@! TO.N,/GND*
G36*
X17789592Y-30905063D02*
G01*
X17977918Y-30921539D01*
X18024999Y-30925659D01*
X18025000Y-30925659D01*
X18025001Y-30925659D01*
X18064234Y-30922226D01*
X18260408Y-30905063D01*
X18279304Y-30900000D01*
X19300000Y-30900000D01*
X19300000Y-33400000D01*
X16700000Y-33400000D01*
X16700000Y-31000000D01*
X16700000Y-30900000D01*
X17770696Y-30900000D01*
X17789592Y-30905063D01*
G37*
G04 #@! TD.AperFunction*
G04 #@! TD*
M02*
