G04 #@! TF.GenerationSoftware,KiCad,Pcbnew,8.0.5*
G04 #@! TF.CreationDate,2024-09-09T15:46:43-04:00*
G04 #@! TF.ProjectId,pi_max31328,70695f6d-6178-4333-9133-32382e6b6963,rev?*
G04 #@! TF.SameCoordinates,Original*
G04 #@! TF.FileFunction,Copper,L2,Bot*
G04 #@! TF.FilePolarity,Positive*
%FSLAX46Y46*%
G04 Gerber Fmt 4.6, Leading zero omitted, Abs format (unit mm)*
G04 Created by KiCad (PCBNEW 8.0.5) date 2024-09-09 15:46:43*
%MOMM*%
%LPD*%
G01*
G04 APERTURE LIST*
G04 #@! TA.AperFunction,ComponentPad*
%ADD10R,1.700000X1.700000*%
G04 #@! TD*
G04 #@! TA.AperFunction,ComponentPad*
%ADD11O,1.700000X1.700000*%
G04 #@! TD*
G04 #@! TA.AperFunction,SMDPad,CuDef*
%ADD12R,2.900000X3.500000*%
G04 #@! TD*
G04 #@! TA.AperFunction,SMDPad,CuDef*
%ADD13R,3.960000X3.960000*%
G04 #@! TD*
G04 #@! TA.AperFunction,ViaPad*
%ADD14C,0.600000*%
G04 #@! TD*
G04 #@! TA.AperFunction,Conductor*
%ADD15C,0.200000*%
G04 #@! TD*
G04 #@! TA.AperFunction,Conductor*
%ADD16C,0.300000*%
G04 #@! TD*
G04 APERTURE END LIST*
D10*
G04 #@! TO.P,J1,1*
G04 #@! TO.N,/VCC*
X18025000Y-21950000D03*
D11*
G04 #@! TO.P,J1,2*
G04 #@! TO.N,/SDA*
X18025000Y-24490000D03*
G04 #@! TO.P,J1,3*
G04 #@! TO.N,/SCL*
X18025000Y-27030000D03*
G04 #@! TO.P,J1,4*
G04 #@! TO.N,unconnected-(J1-Pad4)*
X18025000Y-29570000D03*
G04 #@! TO.P,J1,5*
G04 #@! TO.N,/GND*
X18025000Y-32110000D03*
G04 #@! TD*
D12*
G04 #@! TO.P,BAT1,1,+_1*
G04 #@! TO.N,/VBAT*
X34200000Y-27000000D03*
D13*
G04 #@! TO.P,BAT1,2,-*
G04 #@! TO.N,/GND*
X27600000Y-27000000D03*
D12*
G04 #@! TO.P,BAT1,3,+_2*
G04 #@! TO.N,/VBAT*
X21000000Y-27000000D03*
G04 #@! TD*
D14*
G04 #@! TO.N,/VBAT*
X23500000Y-23500000D03*
G04 #@! TO.N,/GND*
X25500000Y-30200000D03*
X21000000Y-23449500D03*
X25500000Y-23800000D03*
G04 #@! TD*
D15*
G04 #@! TO.N,/GND*
X27600000Y-24800000D02*
X27600000Y-27000000D01*
X26600000Y-23800000D02*
X27600000Y-24800000D01*
X25500000Y-23800000D02*
X26600000Y-23800000D01*
D16*
G04 #@! TO.N,/VBAT*
X24000000Y-23000000D02*
X32300000Y-23000000D01*
X32300000Y-23000000D02*
X34200000Y-24900000D01*
X23500000Y-23500000D02*
X24000000Y-23000000D01*
X34200000Y-24900000D02*
X34200000Y-27000000D01*
X22073320Y-23500000D02*
X23500000Y-23500000D01*
X21000000Y-24573320D02*
X22073320Y-23500000D01*
X21000000Y-27000000D02*
X21000000Y-24573320D01*
G04 #@! TD*
G04 #@! TA.AperFunction,Conductor*
G04 #@! TO.N,/GND*
G36*
X36742539Y-20520185D02*
G01*
X36788294Y-20572989D01*
X36799500Y-20624500D01*
X36799500Y-33375500D01*
X36779815Y-33442539D01*
X36727011Y-33488294D01*
X36675500Y-33499500D01*
X16624500Y-33499500D01*
X16557461Y-33479815D01*
X16511706Y-33427011D01*
X16500500Y-33375500D01*
X16500500Y-30040296D01*
X16520185Y-29973257D01*
X16572989Y-29927502D01*
X16642147Y-29917558D01*
X16705703Y-29946583D01*
X16743477Y-30005361D01*
X16744275Y-30008204D01*
X16751093Y-30033653D01*
X16751096Y-30033660D01*
X16751097Y-30033663D01*
X16850965Y-30247830D01*
X16850967Y-30247834D01*
X16959281Y-30402521D01*
X16986505Y-30441401D01*
X17153599Y-30608495D01*
X17250384Y-30676265D01*
X17347165Y-30744032D01*
X17347167Y-30744033D01*
X17347170Y-30744035D01*
X17561337Y-30843903D01*
X17789592Y-30905063D01*
X17977918Y-30921539D01*
X18024999Y-30925659D01*
X18025000Y-30925659D01*
X18025001Y-30925659D01*
X18064234Y-30922226D01*
X18260408Y-30905063D01*
X18488663Y-30843903D01*
X18702830Y-30744035D01*
X18896401Y-30608495D01*
X19063495Y-30441401D01*
X19199035Y-30247830D01*
X19298903Y-30033663D01*
X19360063Y-29805408D01*
X19380659Y-29570000D01*
X19364429Y-29384496D01*
X19378195Y-29315998D01*
X19426810Y-29265815D01*
X19494839Y-29249881D01*
X19501198Y-29250400D01*
X19502127Y-29250500D01*
X22497872Y-29250499D01*
X22557483Y-29244091D01*
X22692331Y-29193796D01*
X22807546Y-29107546D01*
X22867211Y-29027844D01*
X25120000Y-29027844D01*
X25126401Y-29087372D01*
X25126403Y-29087379D01*
X25176645Y-29222086D01*
X25176649Y-29222093D01*
X25262809Y-29337187D01*
X25262812Y-29337190D01*
X25377906Y-29423350D01*
X25377913Y-29423354D01*
X25512620Y-29473596D01*
X25512627Y-29473598D01*
X25572155Y-29479999D01*
X25572172Y-29480000D01*
X27350000Y-29480000D01*
X27850000Y-29480000D01*
X29627828Y-29480000D01*
X29627844Y-29479999D01*
X29687372Y-29473598D01*
X29687379Y-29473596D01*
X29822086Y-29423354D01*
X29822093Y-29423350D01*
X29937187Y-29337190D01*
X29937190Y-29337187D01*
X30023350Y-29222093D01*
X30023354Y-29222086D01*
X30073596Y-29087379D01*
X30073598Y-29087372D01*
X30079999Y-29027844D01*
X30080000Y-29027827D01*
X30080000Y-27250000D01*
X27850000Y-27250000D01*
X27850000Y-29480000D01*
X27350000Y-29480000D01*
X27350000Y-27250000D01*
X25120000Y-27250000D01*
X25120000Y-29027844D01*
X22867211Y-29027844D01*
X22893796Y-28992331D01*
X22944091Y-28857483D01*
X22950500Y-28797873D01*
X22950499Y-25202128D01*
X22944091Y-25142517D01*
X22893796Y-25007669D01*
X22893795Y-25007668D01*
X22893793Y-25007664D01*
X22867211Y-24972155D01*
X25120000Y-24972155D01*
X25120000Y-26750000D01*
X27350000Y-26750000D01*
X27850000Y-26750000D01*
X30080000Y-26750000D01*
X30080000Y-24972172D01*
X30079999Y-24972155D01*
X30073598Y-24912627D01*
X30073596Y-24912620D01*
X30023354Y-24777913D01*
X30023350Y-24777906D01*
X29937190Y-24662812D01*
X29937187Y-24662809D01*
X29822093Y-24576649D01*
X29822086Y-24576645D01*
X29687379Y-24526403D01*
X29687372Y-24526401D01*
X29627844Y-24520000D01*
X27850000Y-24520000D01*
X27850000Y-26750000D01*
X27350000Y-26750000D01*
X27350000Y-24520000D01*
X25572155Y-24520000D01*
X25512627Y-24526401D01*
X25512620Y-24526403D01*
X25377913Y-24576645D01*
X25377906Y-24576649D01*
X25262812Y-24662809D01*
X25262809Y-24662812D01*
X25176649Y-24777906D01*
X25176645Y-24777913D01*
X25126403Y-24912620D01*
X25126401Y-24912627D01*
X25120000Y-24972155D01*
X22867211Y-24972155D01*
X22807547Y-24892455D01*
X22807544Y-24892452D01*
X22692335Y-24806206D01*
X22692328Y-24806202D01*
X22557482Y-24755908D01*
X22557483Y-24755908D01*
X22497883Y-24749501D01*
X22497881Y-24749500D01*
X22497873Y-24749500D01*
X22497865Y-24749500D01*
X22043127Y-24749500D01*
X21976088Y-24729815D01*
X21930333Y-24677011D01*
X21920389Y-24607853D01*
X21949414Y-24544297D01*
X21955446Y-24537819D01*
X22109685Y-24383581D01*
X22306447Y-24186819D01*
X22367770Y-24153334D01*
X22394128Y-24150500D01*
X22994932Y-24150500D01*
X23060904Y-24169506D01*
X23150477Y-24225789D01*
X23150481Y-24225790D01*
X23320737Y-24285366D01*
X23320743Y-24285367D01*
X23320745Y-24285368D01*
X23320746Y-24285368D01*
X23320750Y-24285369D01*
X23499996Y-24305565D01*
X23500000Y-24305565D01*
X23500004Y-24305565D01*
X23679249Y-24285369D01*
X23679252Y-24285368D01*
X23679255Y-24285368D01*
X23849522Y-24225789D01*
X24002262Y-24129816D01*
X24129816Y-24002262D01*
X24225789Y-23849522D01*
X24266371Y-23733543D01*
X24307091Y-23676770D01*
X24372044Y-23651022D01*
X24383412Y-23650500D01*
X31979192Y-23650500D01*
X32046231Y-23670185D01*
X32066873Y-23686819D01*
X32917873Y-24537819D01*
X32951358Y-24599142D01*
X32946374Y-24668834D01*
X32904502Y-24724767D01*
X32839038Y-24749184D01*
X32830193Y-24749500D01*
X32702130Y-24749500D01*
X32702123Y-24749501D01*
X32642516Y-24755908D01*
X32507671Y-24806202D01*
X32507664Y-24806206D01*
X32392455Y-24892452D01*
X32392452Y-24892455D01*
X32306206Y-25007664D01*
X32306202Y-25007671D01*
X32255908Y-25142517D01*
X32249501Y-25202116D01*
X32249501Y-25202123D01*
X32249500Y-25202135D01*
X32249500Y-28797870D01*
X32249501Y-28797876D01*
X32255908Y-28857483D01*
X32306202Y-28992328D01*
X32306206Y-28992335D01*
X32392452Y-29107544D01*
X32392455Y-29107547D01*
X32507664Y-29193793D01*
X32507671Y-29193797D01*
X32642517Y-29244091D01*
X32642516Y-29244091D01*
X32649444Y-29244835D01*
X32702127Y-29250500D01*
X35697872Y-29250499D01*
X35757483Y-29244091D01*
X35892331Y-29193796D01*
X36007546Y-29107546D01*
X36093796Y-28992331D01*
X36144091Y-28857483D01*
X36150500Y-28797873D01*
X36150499Y-25202128D01*
X36144091Y-25142517D01*
X36093796Y-25007669D01*
X36093795Y-25007668D01*
X36093793Y-25007664D01*
X36007547Y-24892455D01*
X36007544Y-24892452D01*
X35892335Y-24806206D01*
X35892328Y-24806202D01*
X35757482Y-24755908D01*
X35757483Y-24755908D01*
X35697883Y-24749501D01*
X35697881Y-24749500D01*
X35697873Y-24749500D01*
X35697865Y-24749500D01*
X34924611Y-24749500D01*
X34857572Y-24729815D01*
X34811817Y-24677011D01*
X34810050Y-24672953D01*
X34776467Y-24591878D01*
X34776465Y-24591873D01*
X34774239Y-24588541D01*
X34705277Y-24485331D01*
X34705275Y-24485329D01*
X34705273Y-24485326D01*
X32714673Y-22494726D01*
X32714669Y-22494723D01*
X32608127Y-22423535D01*
X32489744Y-22374499D01*
X32489738Y-22374497D01*
X32364071Y-22349500D01*
X32364069Y-22349500D01*
X23935931Y-22349500D01*
X23935929Y-22349500D01*
X23810261Y-22374497D01*
X23810255Y-22374499D01*
X23691874Y-22423534D01*
X23585331Y-22494723D01*
X23401775Y-22678278D01*
X23340451Y-22711762D01*
X23327988Y-22713815D01*
X23320752Y-22714630D01*
X23320745Y-22714632D01*
X23150476Y-22774211D01*
X23060904Y-22830494D01*
X22994932Y-22849500D01*
X22009249Y-22849500D01*
X21883581Y-22874497D01*
X21883575Y-22874499D01*
X21803946Y-22907483D01*
X21803945Y-22907483D01*
X21765196Y-22923532D01*
X21658646Y-22994726D01*
X21658645Y-22994727D01*
X20494722Y-24158651D01*
X20494718Y-24158656D01*
X20449865Y-24225787D01*
X20449863Y-24225790D01*
X20423539Y-24265184D01*
X20423533Y-24265195D01*
X20374499Y-24383575D01*
X20374497Y-24383581D01*
X20349500Y-24509248D01*
X20349500Y-24625500D01*
X20329815Y-24692539D01*
X20277011Y-24738294D01*
X20225500Y-24749500D01*
X19502114Y-24749500D01*
X19499870Y-24749621D01*
X19499362Y-24749500D01*
X19498807Y-24749501D01*
X19498807Y-24749369D01*
X19431875Y-24733543D01*
X19383367Y-24683257D01*
X19369723Y-24614991D01*
X19380659Y-24490000D01*
X19360063Y-24254592D01*
X19298903Y-24026337D01*
X19199035Y-23812171D01*
X19143981Y-23733546D01*
X19063496Y-23618600D01*
X19063495Y-23618599D01*
X18941567Y-23496671D01*
X18908084Y-23435351D01*
X18913068Y-23365659D01*
X18954939Y-23309725D01*
X18985915Y-23292810D01*
X19117331Y-23243796D01*
X19232546Y-23157546D01*
X19318796Y-23042331D01*
X19369091Y-22907483D01*
X19375500Y-22847873D01*
X19375499Y-21052128D01*
X19369091Y-20992517D01*
X19318796Y-20857669D01*
X19318795Y-20857668D01*
X19318793Y-20857664D01*
X19232547Y-20742455D01*
X19207582Y-20723766D01*
X19165712Y-20667832D01*
X19160728Y-20598140D01*
X19194214Y-20536818D01*
X19255538Y-20503333D01*
X19281894Y-20500500D01*
X19434108Y-20500500D01*
X36675500Y-20500500D01*
X36742539Y-20520185D01*
G37*
G04 #@! TD.AperFunction*
G04 #@! TD*
M02*
