G04 #@! TF.GenerationSoftware,KiCad,Pcbnew,8.0.5*
G04 #@! TF.CreationDate,2024-09-09T15:46:43-04:00*
G04 #@! TF.ProjectId,pi_max31328,70695f6d-6178-4333-9133-32382e6b6963,rev?*
G04 #@! TF.SameCoordinates,Original*
G04 #@! TF.FileFunction,Legend,Top*
G04 #@! TF.FilePolarity,Positive*
%FSLAX46Y46*%
G04 Gerber Fmt 4.6, Leading zero omitted, Abs format (unit mm)*
G04 Created by KiCad (PCBNEW 8.0.5) date 2024-09-09 15:46:43*
%MOMM*%
%LPD*%
G01*
G04 APERTURE LIST*
G04 Aperture macros list*
%AMRoundRect*
0 Rectangle with rounded corners*
0 $1 Rounding radius*
0 $2 $3 $4 $5 $6 $7 $8 $9 X,Y pos of 4 corners*
0 Add a 4 corners polygon primitive as box body*
4,1,4,$2,$3,$4,$5,$6,$7,$8,$9,$2,$3,0*
0 Add four circle primitives for the rounded corners*
1,1,$1+$1,$2,$3*
1,1,$1+$1,$4,$5*
1,1,$1+$1,$6,$7*
1,1,$1+$1,$8,$9*
0 Add four rect primitives between the rounded corners*
20,1,$1+$1,$2,$3,$4,$5,0*
20,1,$1+$1,$4,$5,$6,$7,0*
20,1,$1+$1,$6,$7,$8,$9,0*
20,1,$1+$1,$8,$9,$2,$3,0*%
G04 Aperture macros list end*
%ADD10C,0.100000*%
%ADD11C,0.160000*%
%ADD12C,0.150000*%
%ADD13C,0.254000*%
%ADD14C,0.120000*%
%ADD15C,0.200000*%
%ADD16RoundRect,0.160000X-0.160000X0.197500X-0.160000X-0.197500X0.160000X-0.197500X0.160000X0.197500X0*%
%ADD17RoundRect,0.160000X0.160000X-0.197500X0.160000X0.197500X-0.160000X0.197500X-0.160000X-0.197500X0*%
%ADD18RoundRect,0.155000X-0.212500X-0.155000X0.212500X-0.155000X0.212500X0.155000X-0.212500X0.155000X0*%
%ADD19RoundRect,0.155000X0.212500X0.155000X-0.212500X0.155000X-0.212500X-0.155000X0.212500X-0.155000X0*%
%ADD20R,1.700000X1.700000*%
%ADD21O,1.700000X1.700000*%
%ADD22R,0.450000X0.875000*%
G04 APERTURE END LIST*
D10*
X20296895Y-30143734D02*
X19496895Y-30143734D01*
X19496895Y-30143734D02*
X20296895Y-29686591D01*
X20296895Y-29686591D02*
X19496895Y-29686591D01*
X20220704Y-28848496D02*
X20258800Y-28886592D01*
X20258800Y-28886592D02*
X20296895Y-29000877D01*
X20296895Y-29000877D02*
X20296895Y-29077068D01*
X20296895Y-29077068D02*
X20258800Y-29191354D01*
X20258800Y-29191354D02*
X20182609Y-29267544D01*
X20182609Y-29267544D02*
X20106419Y-29305639D01*
X20106419Y-29305639D02*
X19954038Y-29343735D01*
X19954038Y-29343735D02*
X19839752Y-29343735D01*
X19839752Y-29343735D02*
X19687371Y-29305639D01*
X19687371Y-29305639D02*
X19611180Y-29267544D01*
X19611180Y-29267544D02*
X19534990Y-29191354D01*
X19534990Y-29191354D02*
X19496895Y-29077068D01*
X19496895Y-29077068D02*
X19496895Y-29000877D01*
X19496895Y-29000877D02*
X19534990Y-28886592D01*
X19534990Y-28886592D02*
X19573085Y-28848496D01*
X20258800Y-25481830D02*
X20296895Y-25367544D01*
X20296895Y-25367544D02*
X20296895Y-25177068D01*
X20296895Y-25177068D02*
X20258800Y-25100877D01*
X20258800Y-25100877D02*
X20220704Y-25062782D01*
X20220704Y-25062782D02*
X20144514Y-25024687D01*
X20144514Y-25024687D02*
X20068323Y-25024687D01*
X20068323Y-25024687D02*
X19992133Y-25062782D01*
X19992133Y-25062782D02*
X19954038Y-25100877D01*
X19954038Y-25100877D02*
X19915942Y-25177068D01*
X19915942Y-25177068D02*
X19877847Y-25329449D01*
X19877847Y-25329449D02*
X19839752Y-25405639D01*
X19839752Y-25405639D02*
X19801657Y-25443734D01*
X19801657Y-25443734D02*
X19725466Y-25481830D01*
X19725466Y-25481830D02*
X19649276Y-25481830D01*
X19649276Y-25481830D02*
X19573085Y-25443734D01*
X19573085Y-25443734D02*
X19534990Y-25405639D01*
X19534990Y-25405639D02*
X19496895Y-25329449D01*
X19496895Y-25329449D02*
X19496895Y-25138972D01*
X19496895Y-25138972D02*
X19534990Y-25024687D01*
X20296895Y-24681829D02*
X19496895Y-24681829D01*
X19496895Y-24681829D02*
X19496895Y-24491353D01*
X19496895Y-24491353D02*
X19534990Y-24377067D01*
X19534990Y-24377067D02*
X19611180Y-24300877D01*
X19611180Y-24300877D02*
X19687371Y-24262782D01*
X19687371Y-24262782D02*
X19839752Y-24224686D01*
X19839752Y-24224686D02*
X19954038Y-24224686D01*
X19954038Y-24224686D02*
X20106419Y-24262782D01*
X20106419Y-24262782D02*
X20182609Y-24300877D01*
X20182609Y-24300877D02*
X20258800Y-24377067D01*
X20258800Y-24377067D02*
X20296895Y-24491353D01*
X20296895Y-24491353D02*
X20296895Y-24681829D01*
X20068323Y-23919925D02*
X20068323Y-23538972D01*
X20296895Y-23996115D02*
X19496895Y-23729448D01*
X19496895Y-23729448D02*
X20296895Y-23462782D01*
X20258800Y-28081830D02*
X20296895Y-27967544D01*
X20296895Y-27967544D02*
X20296895Y-27777068D01*
X20296895Y-27777068D02*
X20258800Y-27700877D01*
X20258800Y-27700877D02*
X20220704Y-27662782D01*
X20220704Y-27662782D02*
X20144514Y-27624687D01*
X20144514Y-27624687D02*
X20068323Y-27624687D01*
X20068323Y-27624687D02*
X19992133Y-27662782D01*
X19992133Y-27662782D02*
X19954038Y-27700877D01*
X19954038Y-27700877D02*
X19915942Y-27777068D01*
X19915942Y-27777068D02*
X19877847Y-27929449D01*
X19877847Y-27929449D02*
X19839752Y-28005639D01*
X19839752Y-28005639D02*
X19801657Y-28043734D01*
X19801657Y-28043734D02*
X19725466Y-28081830D01*
X19725466Y-28081830D02*
X19649276Y-28081830D01*
X19649276Y-28081830D02*
X19573085Y-28043734D01*
X19573085Y-28043734D02*
X19534990Y-28005639D01*
X19534990Y-28005639D02*
X19496895Y-27929449D01*
X19496895Y-27929449D02*
X19496895Y-27738972D01*
X19496895Y-27738972D02*
X19534990Y-27624687D01*
X20220704Y-26824686D02*
X20258800Y-26862782D01*
X20258800Y-26862782D02*
X20296895Y-26977067D01*
X20296895Y-26977067D02*
X20296895Y-27053258D01*
X20296895Y-27053258D02*
X20258800Y-27167544D01*
X20258800Y-27167544D02*
X20182609Y-27243734D01*
X20182609Y-27243734D02*
X20106419Y-27281829D01*
X20106419Y-27281829D02*
X19954038Y-27319925D01*
X19954038Y-27319925D02*
X19839752Y-27319925D01*
X19839752Y-27319925D02*
X19687371Y-27281829D01*
X19687371Y-27281829D02*
X19611180Y-27243734D01*
X19611180Y-27243734D02*
X19534990Y-27167544D01*
X19534990Y-27167544D02*
X19496895Y-27053258D01*
X19496895Y-27053258D02*
X19496895Y-26977067D01*
X19496895Y-26977067D02*
X19534990Y-26862782D01*
X19534990Y-26862782D02*
X19573085Y-26824686D01*
X20296895Y-26100877D02*
X20296895Y-26481829D01*
X20296895Y-26481829D02*
X19496895Y-26481829D01*
X25641979Y-21596895D02*
X25908646Y-22396895D01*
X25908646Y-22396895D02*
X26175312Y-21596895D01*
X26708645Y-21977847D02*
X26822931Y-22015942D01*
X26822931Y-22015942D02*
X26861026Y-22054038D01*
X26861026Y-22054038D02*
X26899122Y-22130228D01*
X26899122Y-22130228D02*
X26899122Y-22244514D01*
X26899122Y-22244514D02*
X26861026Y-22320704D01*
X26861026Y-22320704D02*
X26822931Y-22358800D01*
X26822931Y-22358800D02*
X26746741Y-22396895D01*
X26746741Y-22396895D02*
X26441979Y-22396895D01*
X26441979Y-22396895D02*
X26441979Y-21596895D01*
X26441979Y-21596895D02*
X26708645Y-21596895D01*
X26708645Y-21596895D02*
X26784836Y-21634990D01*
X26784836Y-21634990D02*
X26822931Y-21673085D01*
X26822931Y-21673085D02*
X26861026Y-21749276D01*
X26861026Y-21749276D02*
X26861026Y-21825466D01*
X26861026Y-21825466D02*
X26822931Y-21901657D01*
X26822931Y-21901657D02*
X26784836Y-21939752D01*
X26784836Y-21939752D02*
X26708645Y-21977847D01*
X26708645Y-21977847D02*
X26441979Y-21977847D01*
X27203883Y-22168323D02*
X27584836Y-22168323D01*
X27127693Y-22396895D02*
X27394360Y-21596895D01*
X27394360Y-21596895D02*
X27661026Y-22396895D01*
X27813407Y-21596895D02*
X28270550Y-21596895D01*
X28041978Y-22396895D02*
X28041978Y-21596895D01*
X28422931Y-21596895D02*
X28880074Y-21596895D01*
X28651502Y-22396895D02*
X28651502Y-21596895D01*
X29908646Y-21596895D02*
X29984836Y-21596895D01*
X29984836Y-21596895D02*
X30061027Y-21634990D01*
X30061027Y-21634990D02*
X30099122Y-21673085D01*
X30099122Y-21673085D02*
X30137217Y-21749276D01*
X30137217Y-21749276D02*
X30175312Y-21901657D01*
X30175312Y-21901657D02*
X30175312Y-22092133D01*
X30175312Y-22092133D02*
X30137217Y-22244514D01*
X30137217Y-22244514D02*
X30099122Y-22320704D01*
X30099122Y-22320704D02*
X30061027Y-22358800D01*
X30061027Y-22358800D02*
X29984836Y-22396895D01*
X29984836Y-22396895D02*
X29908646Y-22396895D01*
X29908646Y-22396895D02*
X29832455Y-22358800D01*
X29832455Y-22358800D02*
X29794360Y-22320704D01*
X29794360Y-22320704D02*
X29756265Y-22244514D01*
X29756265Y-22244514D02*
X29718169Y-22092133D01*
X29718169Y-22092133D02*
X29718169Y-21901657D01*
X29718169Y-21901657D02*
X29756265Y-21749276D01*
X29756265Y-21749276D02*
X29794360Y-21673085D01*
X29794360Y-21673085D02*
X29832455Y-21634990D01*
X29832455Y-21634990D02*
X29908646Y-21596895D01*
X30518170Y-22320704D02*
X30556265Y-22358800D01*
X30556265Y-22358800D02*
X30518170Y-22396895D01*
X30518170Y-22396895D02*
X30480074Y-22358800D01*
X30480074Y-22358800D02*
X30518170Y-22320704D01*
X30518170Y-22320704D02*
X30518170Y-22396895D01*
X31318169Y-22396895D02*
X30861026Y-22396895D01*
X31089598Y-22396895D02*
X31089598Y-21596895D01*
X31089598Y-21596895D02*
X31013407Y-21711180D01*
X31013407Y-21711180D02*
X30937217Y-21787371D01*
X30937217Y-21787371D02*
X30861026Y-21825466D01*
X32003884Y-21863561D02*
X32003884Y-22396895D01*
X31661027Y-21863561D02*
X31661027Y-22282609D01*
X31661027Y-22282609D02*
X31699122Y-22358800D01*
X31699122Y-22358800D02*
X31775312Y-22396895D01*
X31775312Y-22396895D02*
X31889598Y-22396895D01*
X31889598Y-22396895D02*
X31965789Y-22358800D01*
X31965789Y-22358800D02*
X32003884Y-22320704D01*
X32651503Y-21977847D02*
X32384837Y-21977847D01*
X32384837Y-22396895D02*
X32384837Y-21596895D01*
X32384837Y-21596895D02*
X32765789Y-21596895D01*
X34099122Y-22396895D02*
X33641979Y-22396895D01*
X33870551Y-22396895D02*
X33870551Y-21596895D01*
X33870551Y-21596895D02*
X33794360Y-21711180D01*
X33794360Y-21711180D02*
X33718170Y-21787371D01*
X33718170Y-21787371D02*
X33641979Y-21825466D01*
X34784837Y-21863561D02*
X34784837Y-22396895D01*
X34441980Y-21863561D02*
X34441980Y-22282609D01*
X34441980Y-22282609D02*
X34480075Y-22358800D01*
X34480075Y-22358800D02*
X34556265Y-22396895D01*
X34556265Y-22396895D02*
X34670551Y-22396895D01*
X34670551Y-22396895D02*
X34746742Y-22358800D01*
X34746742Y-22358800D02*
X34784837Y-22320704D01*
X35432456Y-21977847D02*
X35165790Y-21977847D01*
X35165790Y-22396895D02*
X35165790Y-21596895D01*
X35165790Y-21596895D02*
X35546742Y-21596895D01*
D11*
X32229910Y-31042857D02*
X31429910Y-30942857D01*
X31429910Y-30942857D02*
X32001338Y-30747619D01*
X32001338Y-30747619D02*
X31429910Y-30409524D01*
X31429910Y-30409524D02*
X32229910Y-30509524D01*
X32001338Y-30138095D02*
X32001338Y-29757143D01*
X32229910Y-30242857D02*
X31429910Y-29876190D01*
X31429910Y-29876190D02*
X32229910Y-29709524D01*
X31429910Y-29419048D02*
X32229910Y-28985714D01*
X31429910Y-28885714D02*
X32229910Y-29519048D01*
X31429910Y-28657143D02*
X31429910Y-28161905D01*
X31429910Y-28161905D02*
X31734672Y-28466667D01*
X31734672Y-28466667D02*
X31734672Y-28352381D01*
X31734672Y-28352381D02*
X31772767Y-28280952D01*
X31772767Y-28280952D02*
X31810862Y-28247619D01*
X31810862Y-28247619D02*
X31887053Y-28219047D01*
X31887053Y-28219047D02*
X32077529Y-28242857D01*
X32077529Y-28242857D02*
X32153719Y-28290476D01*
X32153719Y-28290476D02*
X32191815Y-28333333D01*
X32191815Y-28333333D02*
X32229910Y-28414286D01*
X32229910Y-28414286D02*
X32229910Y-28642857D01*
X32229910Y-28642857D02*
X32191815Y-28714286D01*
X32191815Y-28714286D02*
X32153719Y-28747619D01*
X32229910Y-27500000D02*
X32229910Y-27957142D01*
X32229910Y-27728571D02*
X31429910Y-27628571D01*
X31429910Y-27628571D02*
X31544195Y-27719047D01*
X31544195Y-27719047D02*
X31620386Y-27804762D01*
X31620386Y-27804762D02*
X31658481Y-27885714D01*
X31429910Y-27133333D02*
X31429910Y-26638095D01*
X31429910Y-26638095D02*
X31734672Y-26942857D01*
X31734672Y-26942857D02*
X31734672Y-26828571D01*
X31734672Y-26828571D02*
X31772767Y-26757142D01*
X31772767Y-26757142D02*
X31810862Y-26723809D01*
X31810862Y-26723809D02*
X31887053Y-26695237D01*
X31887053Y-26695237D02*
X32077529Y-26719047D01*
X32077529Y-26719047D02*
X32153719Y-26766666D01*
X32153719Y-26766666D02*
X32191815Y-26809523D01*
X32191815Y-26809523D02*
X32229910Y-26890476D01*
X32229910Y-26890476D02*
X32229910Y-27119047D01*
X32229910Y-27119047D02*
X32191815Y-27190476D01*
X32191815Y-27190476D02*
X32153719Y-27223809D01*
X31506100Y-26342856D02*
X31468005Y-26299999D01*
X31468005Y-26299999D02*
X31429910Y-26219047D01*
X31429910Y-26219047D02*
X31429910Y-26028571D01*
X31429910Y-26028571D02*
X31468005Y-25957142D01*
X31468005Y-25957142D02*
X31506100Y-25923809D01*
X31506100Y-25923809D02*
X31582291Y-25895237D01*
X31582291Y-25895237D02*
X31658481Y-25904761D01*
X31658481Y-25904761D02*
X31772767Y-25957142D01*
X31772767Y-25957142D02*
X32229910Y-26471428D01*
X32229910Y-26471428D02*
X32229910Y-25976190D01*
X31772767Y-25461904D02*
X31734672Y-25533332D01*
X31734672Y-25533332D02*
X31696576Y-25566666D01*
X31696576Y-25566666D02*
X31620386Y-25595237D01*
X31620386Y-25595237D02*
X31582291Y-25590475D01*
X31582291Y-25590475D02*
X31506100Y-25542856D01*
X31506100Y-25542856D02*
X31468005Y-25499999D01*
X31468005Y-25499999D02*
X31429910Y-25419047D01*
X31429910Y-25419047D02*
X31429910Y-25266666D01*
X31429910Y-25266666D02*
X31468005Y-25195237D01*
X31468005Y-25195237D02*
X31506100Y-25161904D01*
X31506100Y-25161904D02*
X31582291Y-25133332D01*
X31582291Y-25133332D02*
X31620386Y-25138094D01*
X31620386Y-25138094D02*
X31696576Y-25185713D01*
X31696576Y-25185713D02*
X31734672Y-25228570D01*
X31734672Y-25228570D02*
X31772767Y-25309523D01*
X31772767Y-25309523D02*
X31772767Y-25461904D01*
X31772767Y-25461904D02*
X31810862Y-25542856D01*
X31810862Y-25542856D02*
X31848957Y-25585713D01*
X31848957Y-25585713D02*
X31925148Y-25633332D01*
X31925148Y-25633332D02*
X32077529Y-25652380D01*
X32077529Y-25652380D02*
X32153719Y-25623808D01*
X32153719Y-25623808D02*
X32191815Y-25590475D01*
X32191815Y-25590475D02*
X32229910Y-25519047D01*
X32229910Y-25519047D02*
X32229910Y-25366666D01*
X32229910Y-25366666D02*
X32191815Y-25285713D01*
X32191815Y-25285713D02*
X32153719Y-25242856D01*
X32153719Y-25242856D02*
X32077529Y-25195237D01*
X32077529Y-25195237D02*
X31925148Y-25176189D01*
X31925148Y-25176189D02*
X31848957Y-25204761D01*
X31848957Y-25204761D02*
X31810862Y-25238094D01*
X31810862Y-25238094D02*
X31772767Y-25309523D01*
X31696576Y-24309522D02*
X31696576Y-24004760D01*
X32229910Y-24261903D02*
X31544195Y-24176189D01*
X31544195Y-24176189D02*
X31468005Y-24128570D01*
X31468005Y-24128570D02*
X31429910Y-24047618D01*
X31429910Y-24047618D02*
X31429910Y-23971427D01*
X32229910Y-23690475D02*
X32191815Y-23761903D01*
X32191815Y-23761903D02*
X32153719Y-23795236D01*
X32153719Y-23795236D02*
X32077529Y-23823808D01*
X32077529Y-23823808D02*
X31848957Y-23795236D01*
X31848957Y-23795236D02*
X31772767Y-23747617D01*
X31772767Y-23747617D02*
X31734672Y-23704760D01*
X31734672Y-23704760D02*
X31696576Y-23623808D01*
X31696576Y-23623808D02*
X31696576Y-23509522D01*
X31696576Y-23509522D02*
X31734672Y-23438094D01*
X31734672Y-23438094D02*
X31772767Y-23404760D01*
X31772767Y-23404760D02*
X31848957Y-23376189D01*
X31848957Y-23376189D02*
X32077529Y-23404760D01*
X32077529Y-23404760D02*
X32153719Y-23452379D01*
X32153719Y-23452379D02*
X32191815Y-23495236D01*
X32191815Y-23495236D02*
X32229910Y-23576189D01*
X32229910Y-23576189D02*
X32229910Y-23690475D01*
X32229910Y-23080950D02*
X31696576Y-23014284D01*
X31848957Y-23033331D02*
X31772767Y-22985712D01*
X31772767Y-22985712D02*
X31734672Y-22942855D01*
X31734672Y-22942855D02*
X31696576Y-22861903D01*
X31696576Y-22861903D02*
X31696576Y-22785712D01*
X33517865Y-30204761D02*
X33136912Y-30423809D01*
X33517865Y-30661904D02*
X32717865Y-30561904D01*
X32717865Y-30561904D02*
X32717865Y-30257142D01*
X32717865Y-30257142D02*
X32755960Y-30185714D01*
X32755960Y-30185714D02*
X32794055Y-30152380D01*
X32794055Y-30152380D02*
X32870246Y-30123809D01*
X32870246Y-30123809D02*
X32984531Y-30138095D01*
X32984531Y-30138095D02*
X33060722Y-30185714D01*
X33060722Y-30185714D02*
X33098817Y-30228571D01*
X33098817Y-30228571D02*
X33136912Y-30309523D01*
X33136912Y-30309523D02*
X33136912Y-30614285D01*
X33517865Y-29519047D02*
X33098817Y-29466666D01*
X33098817Y-29466666D02*
X33022627Y-29495238D01*
X33022627Y-29495238D02*
X32984531Y-29566666D01*
X32984531Y-29566666D02*
X32984531Y-29719047D01*
X32984531Y-29719047D02*
X33022627Y-29799999D01*
X33479770Y-29514285D02*
X33517865Y-29595238D01*
X33517865Y-29595238D02*
X33517865Y-29785714D01*
X33517865Y-29785714D02*
X33479770Y-29857142D01*
X33479770Y-29857142D02*
X33403579Y-29885714D01*
X33403579Y-29885714D02*
X33327389Y-29876190D01*
X33327389Y-29876190D02*
X33251198Y-29828571D01*
X33251198Y-29828571D02*
X33213103Y-29747619D01*
X33213103Y-29747619D02*
X33213103Y-29557142D01*
X33213103Y-29557142D02*
X33175008Y-29476190D01*
X33479770Y-29171428D02*
X33517865Y-29099999D01*
X33517865Y-29099999D02*
X33517865Y-28947618D01*
X33517865Y-28947618D02*
X33479770Y-28866666D01*
X33479770Y-28866666D02*
X33403579Y-28819047D01*
X33403579Y-28819047D02*
X33365484Y-28814285D01*
X33365484Y-28814285D02*
X33289293Y-28842856D01*
X33289293Y-28842856D02*
X33251198Y-28914285D01*
X33251198Y-28914285D02*
X33251198Y-29028570D01*
X33251198Y-29028570D02*
X33213103Y-29099999D01*
X33213103Y-29099999D02*
X33136912Y-29128570D01*
X33136912Y-29128570D02*
X33098817Y-29123809D01*
X33098817Y-29123809D02*
X33022627Y-29076189D01*
X33022627Y-29076189D02*
X32984531Y-28995237D01*
X32984531Y-28995237D02*
X32984531Y-28880951D01*
X32984531Y-28880951D02*
X33022627Y-28809523D01*
X32984531Y-28423809D02*
X33784531Y-28523809D01*
X33022627Y-28428570D02*
X32984531Y-28347618D01*
X32984531Y-28347618D02*
X32984531Y-28195237D01*
X32984531Y-28195237D02*
X33022627Y-28123809D01*
X33022627Y-28123809D02*
X33060722Y-28090475D01*
X33060722Y-28090475D02*
X33136912Y-28061904D01*
X33136912Y-28061904D02*
X33365484Y-28090475D01*
X33365484Y-28090475D02*
X33441674Y-28138094D01*
X33441674Y-28138094D02*
X33479770Y-28180951D01*
X33479770Y-28180951D02*
X33517865Y-28261904D01*
X33517865Y-28261904D02*
X33517865Y-28414285D01*
X33517865Y-28414285D02*
X33479770Y-28485713D01*
X33517865Y-27766665D02*
X32717865Y-27666665D01*
X33022627Y-27704760D02*
X32984531Y-27623808D01*
X32984531Y-27623808D02*
X32984531Y-27471427D01*
X32984531Y-27471427D02*
X33022627Y-27399999D01*
X33022627Y-27399999D02*
X33060722Y-27366665D01*
X33060722Y-27366665D02*
X33136912Y-27338094D01*
X33136912Y-27338094D02*
X33365484Y-27366665D01*
X33365484Y-27366665D02*
X33441674Y-27414284D01*
X33441674Y-27414284D02*
X33479770Y-27457141D01*
X33479770Y-27457141D02*
X33517865Y-27538094D01*
X33517865Y-27538094D02*
X33517865Y-27690475D01*
X33517865Y-27690475D02*
X33479770Y-27761903D01*
X33479770Y-26733331D02*
X33517865Y-26814284D01*
X33517865Y-26814284D02*
X33517865Y-26966665D01*
X33517865Y-26966665D02*
X33479770Y-27038093D01*
X33479770Y-27038093D02*
X33403579Y-27066665D01*
X33403579Y-27066665D02*
X33098817Y-27028570D01*
X33098817Y-27028570D02*
X33022627Y-26980950D01*
X33022627Y-26980950D02*
X32984531Y-26899998D01*
X32984531Y-26899998D02*
X32984531Y-26747617D01*
X32984531Y-26747617D02*
X33022627Y-26676189D01*
X33022627Y-26676189D02*
X33098817Y-26647617D01*
X33098817Y-26647617D02*
X33175008Y-26657141D01*
X33175008Y-26657141D02*
X33251198Y-27047617D01*
X33517865Y-26357141D02*
X32984531Y-26290475D01*
X33136912Y-26309522D02*
X33060722Y-26261903D01*
X33060722Y-26261903D02*
X33022627Y-26219046D01*
X33022627Y-26219046D02*
X32984531Y-26138094D01*
X32984531Y-26138094D02*
X32984531Y-26061903D01*
X33517865Y-25861903D02*
X32984531Y-25795237D01*
X33136912Y-25814284D02*
X33060722Y-25766665D01*
X33060722Y-25766665D02*
X33022627Y-25723808D01*
X33022627Y-25723808D02*
X32984531Y-25642856D01*
X32984531Y-25642856D02*
X32984531Y-25566665D01*
X32984531Y-25376189D02*
X33517865Y-25252380D01*
X32984531Y-24995237D02*
X33517865Y-25252380D01*
X33517865Y-25252380D02*
X33708341Y-25352380D01*
X33708341Y-25352380D02*
X33746436Y-25395237D01*
X33746436Y-25395237D02*
X33784531Y-25476189D01*
X33517865Y-24147617D02*
X32717865Y-24047617D01*
X32717865Y-24047617D02*
X32717865Y-23742855D01*
X32717865Y-23742855D02*
X32755960Y-23671427D01*
X32755960Y-23671427D02*
X32794055Y-23638093D01*
X32794055Y-23638093D02*
X32870246Y-23609522D01*
X32870246Y-23609522D02*
X32984531Y-23623808D01*
X32984531Y-23623808D02*
X33060722Y-23671427D01*
X33060722Y-23671427D02*
X33098817Y-23714284D01*
X33098817Y-23714284D02*
X33136912Y-23795236D01*
X33136912Y-23795236D02*
X33136912Y-24099998D01*
X33517865Y-23347617D02*
X32984531Y-23280951D01*
X32717865Y-23247617D02*
X32755960Y-23290474D01*
X32755960Y-23290474D02*
X32794055Y-23257141D01*
X32794055Y-23257141D02*
X32755960Y-23214284D01*
X32755960Y-23214284D02*
X32717865Y-23247617D01*
X32717865Y-23247617D02*
X32794055Y-23257141D01*
X34272486Y-28080952D02*
X34805820Y-27957143D01*
X34805820Y-27957143D02*
X34272486Y-27700000D01*
X34005820Y-27209523D02*
X34005820Y-27133333D01*
X34005820Y-27133333D02*
X34043915Y-27061904D01*
X34043915Y-27061904D02*
X34082010Y-27028571D01*
X34082010Y-27028571D02*
X34158201Y-26999999D01*
X34158201Y-26999999D02*
X34310582Y-26980952D01*
X34310582Y-26980952D02*
X34501058Y-27004761D01*
X34501058Y-27004761D02*
X34653439Y-27061904D01*
X34653439Y-27061904D02*
X34729629Y-27109523D01*
X34729629Y-27109523D02*
X34767725Y-27152380D01*
X34767725Y-27152380D02*
X34805820Y-27233333D01*
X34805820Y-27233333D02*
X34805820Y-27309523D01*
X34805820Y-27309523D02*
X34767725Y-27380952D01*
X34767725Y-27380952D02*
X34729629Y-27414285D01*
X34729629Y-27414285D02*
X34653439Y-27442857D01*
X34653439Y-27442857D02*
X34501058Y-27461904D01*
X34501058Y-27461904D02*
X34310582Y-27438095D01*
X34310582Y-27438095D02*
X34158201Y-27380952D01*
X34158201Y-27380952D02*
X34082010Y-27333333D01*
X34082010Y-27333333D02*
X34043915Y-27290476D01*
X34043915Y-27290476D02*
X34005820Y-27209523D01*
X34729629Y-26690475D02*
X34767725Y-26657142D01*
X34767725Y-26657142D02*
X34805820Y-26699999D01*
X34805820Y-26699999D02*
X34767725Y-26733333D01*
X34767725Y-26733333D02*
X34729629Y-26690475D01*
X34729629Y-26690475D02*
X34805820Y-26699999D01*
X34082010Y-26266666D02*
X34043915Y-26223809D01*
X34043915Y-26223809D02*
X34005820Y-26142857D01*
X34005820Y-26142857D02*
X34005820Y-25952381D01*
X34005820Y-25952381D02*
X34043915Y-25880952D01*
X34043915Y-25880952D02*
X34082010Y-25847619D01*
X34082010Y-25847619D02*
X34158201Y-25819047D01*
X34158201Y-25819047D02*
X34234391Y-25828571D01*
X34234391Y-25828571D02*
X34348677Y-25880952D01*
X34348677Y-25880952D02*
X34805820Y-26395238D01*
X34805820Y-26395238D02*
X34805820Y-25900000D01*
X36017584Y-29509524D02*
X36055680Y-29552381D01*
X36055680Y-29552381D02*
X36093775Y-29671428D01*
X36093775Y-29671428D02*
X36093775Y-29747619D01*
X36093775Y-29747619D02*
X36055680Y-29857143D01*
X36055680Y-29857143D02*
X35979489Y-29923809D01*
X35979489Y-29923809D02*
X35903299Y-29952381D01*
X35903299Y-29952381D02*
X35750918Y-29971428D01*
X35750918Y-29971428D02*
X35636632Y-29957143D01*
X35636632Y-29957143D02*
X35484251Y-29900000D01*
X35484251Y-29900000D02*
X35408060Y-29852381D01*
X35408060Y-29852381D02*
X35331870Y-29766666D01*
X35331870Y-29766666D02*
X35293775Y-29647619D01*
X35293775Y-29647619D02*
X35293775Y-29571428D01*
X35293775Y-29571428D02*
X35331870Y-29461905D01*
X35331870Y-29461905D02*
X35369965Y-29428571D01*
X36017584Y-28709524D02*
X36055680Y-28752381D01*
X36055680Y-28752381D02*
X36093775Y-28871428D01*
X36093775Y-28871428D02*
X36093775Y-28947619D01*
X36093775Y-28947619D02*
X36055680Y-29057143D01*
X36055680Y-29057143D02*
X35979489Y-29123809D01*
X35979489Y-29123809D02*
X35903299Y-29152381D01*
X35903299Y-29152381D02*
X35750918Y-29171428D01*
X35750918Y-29171428D02*
X35636632Y-29157143D01*
X35636632Y-29157143D02*
X35484251Y-29100000D01*
X35484251Y-29100000D02*
X35408060Y-29052381D01*
X35408060Y-29052381D02*
X35331870Y-28966666D01*
X35331870Y-28966666D02*
X35293775Y-28847619D01*
X35293775Y-28847619D02*
X35293775Y-28771428D01*
X35293775Y-28771428D02*
X35331870Y-28661905D01*
X35331870Y-28661905D02*
X35369965Y-28628571D01*
X35293775Y-28123809D02*
X35293775Y-28047619D01*
X35293775Y-28047619D02*
X35331870Y-27976190D01*
X35331870Y-27976190D02*
X35369965Y-27942857D01*
X35369965Y-27942857D02*
X35446156Y-27914285D01*
X35446156Y-27914285D02*
X35598537Y-27895238D01*
X35598537Y-27895238D02*
X35789013Y-27919047D01*
X35789013Y-27919047D02*
X35941394Y-27976190D01*
X35941394Y-27976190D02*
X36017584Y-28023809D01*
X36017584Y-28023809D02*
X36055680Y-28066666D01*
X36055680Y-28066666D02*
X36093775Y-28147619D01*
X36093775Y-28147619D02*
X36093775Y-28223809D01*
X36093775Y-28223809D02*
X36055680Y-28295238D01*
X36055680Y-28295238D02*
X36017584Y-28328571D01*
X36017584Y-28328571D02*
X35941394Y-28357143D01*
X35941394Y-28357143D02*
X35789013Y-28376190D01*
X35789013Y-28376190D02*
X35598537Y-28352381D01*
X35598537Y-28352381D02*
X35446156Y-28295238D01*
X35446156Y-28295238D02*
X35369965Y-28247619D01*
X35369965Y-28247619D02*
X35331870Y-28204762D01*
X35331870Y-28204762D02*
X35293775Y-28123809D01*
X35293775Y-26752380D02*
X35293775Y-26599999D01*
X35293775Y-26599999D02*
X35331870Y-26528571D01*
X35331870Y-26528571D02*
X35408060Y-26461904D01*
X35408060Y-26461904D02*
X35560441Y-26442856D01*
X35560441Y-26442856D02*
X35827108Y-26476190D01*
X35827108Y-26476190D02*
X35979489Y-26533333D01*
X35979489Y-26533333D02*
X36055680Y-26619047D01*
X36055680Y-26619047D02*
X36093775Y-26699999D01*
X36093775Y-26699999D02*
X36093775Y-26852380D01*
X36093775Y-26852380D02*
X36055680Y-26923809D01*
X36055680Y-26923809D02*
X35979489Y-26990476D01*
X35979489Y-26990476D02*
X35827108Y-27009523D01*
X35827108Y-27009523D02*
X35560441Y-26976190D01*
X35560441Y-26976190D02*
X35408060Y-26919047D01*
X35408060Y-26919047D02*
X35331870Y-26833333D01*
X35331870Y-26833333D02*
X35293775Y-26752380D01*
X36055680Y-26200000D02*
X36093775Y-26090476D01*
X36093775Y-26090476D02*
X36093775Y-25900000D01*
X36093775Y-25900000D02*
X36055680Y-25819047D01*
X36055680Y-25819047D02*
X36017584Y-25776190D01*
X36017584Y-25776190D02*
X35941394Y-25728571D01*
X35941394Y-25728571D02*
X35865203Y-25719047D01*
X35865203Y-25719047D02*
X35789013Y-25747619D01*
X35789013Y-25747619D02*
X35750918Y-25780952D01*
X35750918Y-25780952D02*
X35712822Y-25852381D01*
X35712822Y-25852381D02*
X35674727Y-26000000D01*
X35674727Y-26000000D02*
X35636632Y-26071428D01*
X35636632Y-26071428D02*
X35598537Y-26104761D01*
X35598537Y-26104761D02*
X35522346Y-26133333D01*
X35522346Y-26133333D02*
X35446156Y-26123809D01*
X35446156Y-26123809D02*
X35369965Y-26076190D01*
X35369965Y-26076190D02*
X35331870Y-26033333D01*
X35331870Y-26033333D02*
X35293775Y-25952381D01*
X35293775Y-25952381D02*
X35293775Y-25761904D01*
X35293775Y-25761904D02*
X35331870Y-25652381D01*
X36093775Y-25404761D02*
X35293775Y-25304761D01*
X35674727Y-25352380D02*
X35674727Y-24895237D01*
X36093775Y-24947618D02*
X35293775Y-24847618D01*
X35293775Y-24542857D02*
X36093775Y-24452381D01*
X36093775Y-24452381D02*
X35522346Y-24228571D01*
X35522346Y-24228571D02*
X36093775Y-24147619D01*
X36093775Y-24147619D02*
X35293775Y-23857142D01*
D10*
X19496895Y-22919925D02*
X19496895Y-22424687D01*
X19496895Y-22424687D02*
X19801657Y-22691353D01*
X19801657Y-22691353D02*
X19801657Y-22577068D01*
X19801657Y-22577068D02*
X19839752Y-22500877D01*
X19839752Y-22500877D02*
X19877847Y-22462782D01*
X19877847Y-22462782D02*
X19954038Y-22424687D01*
X19954038Y-22424687D02*
X20144514Y-22424687D01*
X20144514Y-22424687D02*
X20220704Y-22462782D01*
X20220704Y-22462782D02*
X20258800Y-22500877D01*
X20258800Y-22500877D02*
X20296895Y-22577068D01*
X20296895Y-22577068D02*
X20296895Y-22805639D01*
X20296895Y-22805639D02*
X20258800Y-22881830D01*
X20258800Y-22881830D02*
X20220704Y-22919925D01*
X19496895Y-22196115D02*
X20296895Y-21929448D01*
X20296895Y-21929448D02*
X19496895Y-21662782D01*
X19496895Y-21472306D02*
X19496895Y-20977068D01*
X19496895Y-20977068D02*
X19801657Y-21243734D01*
X19801657Y-21243734D02*
X19801657Y-21129449D01*
X19801657Y-21129449D02*
X19839752Y-21053258D01*
X19839752Y-21053258D02*
X19877847Y-21015163D01*
X19877847Y-21015163D02*
X19954038Y-20977068D01*
X19954038Y-20977068D02*
X20144514Y-20977068D01*
X20144514Y-20977068D02*
X20220704Y-21015163D01*
X20220704Y-21015163D02*
X20258800Y-21053258D01*
X20258800Y-21053258D02*
X20296895Y-21129449D01*
X20296895Y-21129449D02*
X20296895Y-21358020D01*
X20296895Y-21358020D02*
X20258800Y-21434211D01*
X20258800Y-21434211D02*
X20220704Y-21472306D01*
X25641979Y-31596895D02*
X25908646Y-32396895D01*
X25908646Y-32396895D02*
X26175312Y-31596895D01*
X26899122Y-32320704D02*
X26861026Y-32358800D01*
X26861026Y-32358800D02*
X26746741Y-32396895D01*
X26746741Y-32396895D02*
X26670550Y-32396895D01*
X26670550Y-32396895D02*
X26556264Y-32358800D01*
X26556264Y-32358800D02*
X26480074Y-32282609D01*
X26480074Y-32282609D02*
X26441979Y-32206419D01*
X26441979Y-32206419D02*
X26403883Y-32054038D01*
X26403883Y-32054038D02*
X26403883Y-31939752D01*
X26403883Y-31939752D02*
X26441979Y-31787371D01*
X26441979Y-31787371D02*
X26480074Y-31711180D01*
X26480074Y-31711180D02*
X26556264Y-31634990D01*
X26556264Y-31634990D02*
X26670550Y-31596895D01*
X26670550Y-31596895D02*
X26746741Y-31596895D01*
X26746741Y-31596895D02*
X26861026Y-31634990D01*
X26861026Y-31634990D02*
X26899122Y-31673085D01*
X27699122Y-32320704D02*
X27661026Y-32358800D01*
X27661026Y-32358800D02*
X27546741Y-32396895D01*
X27546741Y-32396895D02*
X27470550Y-32396895D01*
X27470550Y-32396895D02*
X27356264Y-32358800D01*
X27356264Y-32358800D02*
X27280074Y-32282609D01*
X27280074Y-32282609D02*
X27241979Y-32206419D01*
X27241979Y-32206419D02*
X27203883Y-32054038D01*
X27203883Y-32054038D02*
X27203883Y-31939752D01*
X27203883Y-31939752D02*
X27241979Y-31787371D01*
X27241979Y-31787371D02*
X27280074Y-31711180D01*
X27280074Y-31711180D02*
X27356264Y-31634990D01*
X27356264Y-31634990D02*
X27470550Y-31596895D01*
X27470550Y-31596895D02*
X27546741Y-31596895D01*
X27546741Y-31596895D02*
X27661026Y-31634990D01*
X27661026Y-31634990D02*
X27699122Y-31673085D01*
X28803884Y-31596895D02*
X28880074Y-31596895D01*
X28880074Y-31596895D02*
X28956265Y-31634990D01*
X28956265Y-31634990D02*
X28994360Y-31673085D01*
X28994360Y-31673085D02*
X29032455Y-31749276D01*
X29032455Y-31749276D02*
X29070550Y-31901657D01*
X29070550Y-31901657D02*
X29070550Y-32092133D01*
X29070550Y-32092133D02*
X29032455Y-32244514D01*
X29032455Y-32244514D02*
X28994360Y-32320704D01*
X28994360Y-32320704D02*
X28956265Y-32358800D01*
X28956265Y-32358800D02*
X28880074Y-32396895D01*
X28880074Y-32396895D02*
X28803884Y-32396895D01*
X28803884Y-32396895D02*
X28727693Y-32358800D01*
X28727693Y-32358800D02*
X28689598Y-32320704D01*
X28689598Y-32320704D02*
X28651503Y-32244514D01*
X28651503Y-32244514D02*
X28613407Y-32092133D01*
X28613407Y-32092133D02*
X28613407Y-31901657D01*
X28613407Y-31901657D02*
X28651503Y-31749276D01*
X28651503Y-31749276D02*
X28689598Y-31673085D01*
X28689598Y-31673085D02*
X28727693Y-31634990D01*
X28727693Y-31634990D02*
X28803884Y-31596895D01*
X29413408Y-32320704D02*
X29451503Y-32358800D01*
X29451503Y-32358800D02*
X29413408Y-32396895D01*
X29413408Y-32396895D02*
X29375312Y-32358800D01*
X29375312Y-32358800D02*
X29413408Y-32320704D01*
X29413408Y-32320704D02*
X29413408Y-32396895D01*
X30213407Y-32396895D02*
X29756264Y-32396895D01*
X29984836Y-32396895D02*
X29984836Y-31596895D01*
X29984836Y-31596895D02*
X29908645Y-31711180D01*
X29908645Y-31711180D02*
X29832455Y-31787371D01*
X29832455Y-31787371D02*
X29756264Y-31825466D01*
X30899122Y-31863561D02*
X30899122Y-32396895D01*
X30556265Y-31863561D02*
X30556265Y-32282609D01*
X30556265Y-32282609D02*
X30594360Y-32358800D01*
X30594360Y-32358800D02*
X30670550Y-32396895D01*
X30670550Y-32396895D02*
X30784836Y-32396895D01*
X30784836Y-32396895D02*
X30861027Y-32358800D01*
X30861027Y-32358800D02*
X30899122Y-32320704D01*
X31546741Y-31977847D02*
X31280075Y-31977847D01*
X31280075Y-32396895D02*
X31280075Y-31596895D01*
X31280075Y-31596895D02*
X31661027Y-31596895D01*
X32994360Y-32396895D02*
X32537217Y-32396895D01*
X32765789Y-32396895D02*
X32765789Y-31596895D01*
X32765789Y-31596895D02*
X32689598Y-31711180D01*
X32689598Y-31711180D02*
X32613408Y-31787371D01*
X32613408Y-31787371D02*
X32537217Y-31825466D01*
X33680075Y-31863561D02*
X33680075Y-32396895D01*
X33337218Y-31863561D02*
X33337218Y-32282609D01*
X33337218Y-32282609D02*
X33375313Y-32358800D01*
X33375313Y-32358800D02*
X33451503Y-32396895D01*
X33451503Y-32396895D02*
X33565789Y-32396895D01*
X33565789Y-32396895D02*
X33641980Y-32358800D01*
X33641980Y-32358800D02*
X33680075Y-32320704D01*
X34327694Y-31977847D02*
X34061028Y-31977847D01*
X34061028Y-32396895D02*
X34061028Y-31596895D01*
X34061028Y-31596895D02*
X34441980Y-31596895D01*
X19534990Y-32724687D02*
X19496895Y-32800877D01*
X19496895Y-32800877D02*
X19496895Y-32915163D01*
X19496895Y-32915163D02*
X19534990Y-33029449D01*
X19534990Y-33029449D02*
X19611180Y-33105639D01*
X19611180Y-33105639D02*
X19687371Y-33143734D01*
X19687371Y-33143734D02*
X19839752Y-33181830D01*
X19839752Y-33181830D02*
X19954038Y-33181830D01*
X19954038Y-33181830D02*
X20106419Y-33143734D01*
X20106419Y-33143734D02*
X20182609Y-33105639D01*
X20182609Y-33105639D02*
X20258800Y-33029449D01*
X20258800Y-33029449D02*
X20296895Y-32915163D01*
X20296895Y-32915163D02*
X20296895Y-32838972D01*
X20296895Y-32838972D02*
X20258800Y-32724687D01*
X20258800Y-32724687D02*
X20220704Y-32686591D01*
X20220704Y-32686591D02*
X19954038Y-32686591D01*
X19954038Y-32686591D02*
X19954038Y-32838972D01*
X20296895Y-32343734D02*
X19496895Y-32343734D01*
X19496895Y-32343734D02*
X20296895Y-31886591D01*
X20296895Y-31886591D02*
X19496895Y-31886591D01*
X20296895Y-31505639D02*
X19496895Y-31505639D01*
X19496895Y-31505639D02*
X19496895Y-31315163D01*
X19496895Y-31315163D02*
X19534990Y-31200877D01*
X19534990Y-31200877D02*
X19611180Y-31124687D01*
X19611180Y-31124687D02*
X19687371Y-31086592D01*
X19687371Y-31086592D02*
X19839752Y-31048496D01*
X19839752Y-31048496D02*
X19954038Y-31048496D01*
X19954038Y-31048496D02*
X20106419Y-31086592D01*
X20106419Y-31086592D02*
X20182609Y-31124687D01*
X20182609Y-31124687D02*
X20258800Y-31200877D01*
X20258800Y-31200877D02*
X20296895Y-31315163D01*
X20296895Y-31315163D02*
X20296895Y-31505639D01*
X30396895Y-31095237D02*
X29596895Y-31095237D01*
X29673085Y-30752381D02*
X29634990Y-30714285D01*
X29634990Y-30714285D02*
X29596895Y-30638095D01*
X29596895Y-30638095D02*
X29596895Y-30447619D01*
X29596895Y-30447619D02*
X29634990Y-30371428D01*
X29634990Y-30371428D02*
X29673085Y-30333333D01*
X29673085Y-30333333D02*
X29749276Y-30295238D01*
X29749276Y-30295238D02*
X29825466Y-30295238D01*
X29825466Y-30295238D02*
X29939752Y-30333333D01*
X29939752Y-30333333D02*
X30396895Y-30790476D01*
X30396895Y-30790476D02*
X30396895Y-30295238D01*
X30320704Y-29495237D02*
X30358800Y-29533333D01*
X30358800Y-29533333D02*
X30396895Y-29647618D01*
X30396895Y-29647618D02*
X30396895Y-29723809D01*
X30396895Y-29723809D02*
X30358800Y-29838095D01*
X30358800Y-29838095D02*
X30282609Y-29914285D01*
X30282609Y-29914285D02*
X30206419Y-29952380D01*
X30206419Y-29952380D02*
X30054038Y-29990476D01*
X30054038Y-29990476D02*
X29939752Y-29990476D01*
X29939752Y-29990476D02*
X29787371Y-29952380D01*
X29787371Y-29952380D02*
X29711180Y-29914285D01*
X29711180Y-29914285D02*
X29634990Y-29838095D01*
X29634990Y-29838095D02*
X29596895Y-29723809D01*
X29596895Y-29723809D02*
X29596895Y-29647618D01*
X29596895Y-29647618D02*
X29634990Y-29533333D01*
X29634990Y-29533333D02*
X29673085Y-29495237D01*
X29863561Y-28199999D02*
X30396895Y-28199999D01*
X29558800Y-28390475D02*
X30130228Y-28580952D01*
X30130228Y-28580952D02*
X30130228Y-28085713D01*
X30320704Y-27780951D02*
X30358800Y-27742856D01*
X30358800Y-27742856D02*
X30396895Y-27780951D01*
X30396895Y-27780951D02*
X30358800Y-27819047D01*
X30358800Y-27819047D02*
X30320704Y-27780951D01*
X30320704Y-27780951D02*
X30396895Y-27780951D01*
X29596895Y-27476190D02*
X29596895Y-26942856D01*
X29596895Y-26942856D02*
X30396895Y-27285714D01*
X30396895Y-26638094D02*
X29596895Y-26638094D01*
X30396895Y-26180951D02*
X29939752Y-26523809D01*
X29596895Y-26180951D02*
X30054038Y-26638094D01*
X29863561Y-24885713D02*
X30396895Y-24885713D01*
X29558800Y-25076189D02*
X30130228Y-25266666D01*
X30130228Y-25266666D02*
X30130228Y-24771427D01*
X30320704Y-24466665D02*
X30358800Y-24428570D01*
X30358800Y-24428570D02*
X30396895Y-24466665D01*
X30396895Y-24466665D02*
X30358800Y-24504761D01*
X30358800Y-24504761D02*
X30320704Y-24466665D01*
X30320704Y-24466665D02*
X30396895Y-24466665D01*
X29596895Y-24161904D02*
X29596895Y-23628570D01*
X29596895Y-23628570D02*
X30396895Y-23971428D01*
X30396895Y-23323808D02*
X29596895Y-23323808D01*
X30396895Y-22866665D02*
X29939752Y-23209523D01*
X29596895Y-22866665D02*
X30054038Y-23323808D01*
D12*
X29224819Y-28266666D02*
X28748628Y-28599999D01*
X29224819Y-28838094D02*
X28224819Y-28838094D01*
X28224819Y-28838094D02*
X28224819Y-28457142D01*
X28224819Y-28457142D02*
X28272438Y-28361904D01*
X28272438Y-28361904D02*
X28320057Y-28314285D01*
X28320057Y-28314285D02*
X28415295Y-28266666D01*
X28415295Y-28266666D02*
X28558152Y-28266666D01*
X28558152Y-28266666D02*
X28653390Y-28314285D01*
X28653390Y-28314285D02*
X28701009Y-28361904D01*
X28701009Y-28361904D02*
X28748628Y-28457142D01*
X28748628Y-28457142D02*
X28748628Y-28838094D01*
X29224819Y-27314285D02*
X29224819Y-27885713D01*
X29224819Y-27599999D02*
X28224819Y-27599999D01*
X28224819Y-27599999D02*
X28367676Y-27695237D01*
X28367676Y-27695237D02*
X28462914Y-27790475D01*
X28462914Y-27790475D02*
X28510533Y-27885713D01*
X29254819Y-25566666D02*
X28778628Y-25899999D01*
X29254819Y-26138094D02*
X28254819Y-26138094D01*
X28254819Y-26138094D02*
X28254819Y-25757142D01*
X28254819Y-25757142D02*
X28302438Y-25661904D01*
X28302438Y-25661904D02*
X28350057Y-25614285D01*
X28350057Y-25614285D02*
X28445295Y-25566666D01*
X28445295Y-25566666D02*
X28588152Y-25566666D01*
X28588152Y-25566666D02*
X28683390Y-25614285D01*
X28683390Y-25614285D02*
X28731009Y-25661904D01*
X28731009Y-25661904D02*
X28778628Y-25757142D01*
X28778628Y-25757142D02*
X28778628Y-26138094D01*
X28350057Y-25185713D02*
X28302438Y-25138094D01*
X28302438Y-25138094D02*
X28254819Y-25042856D01*
X28254819Y-25042856D02*
X28254819Y-24804761D01*
X28254819Y-24804761D02*
X28302438Y-24709523D01*
X28302438Y-24709523D02*
X28350057Y-24661904D01*
X28350057Y-24661904D02*
X28445295Y-24614285D01*
X28445295Y-24614285D02*
X28540533Y-24614285D01*
X28540533Y-24614285D02*
X28683390Y-24661904D01*
X28683390Y-24661904D02*
X29254819Y-25233332D01*
X29254819Y-25233332D02*
X29254819Y-24614285D01*
X23633333Y-32759580D02*
X23585714Y-32807200D01*
X23585714Y-32807200D02*
X23442857Y-32854819D01*
X23442857Y-32854819D02*
X23347619Y-32854819D01*
X23347619Y-32854819D02*
X23204762Y-32807200D01*
X23204762Y-32807200D02*
X23109524Y-32711961D01*
X23109524Y-32711961D02*
X23061905Y-32616723D01*
X23061905Y-32616723D02*
X23014286Y-32426247D01*
X23014286Y-32426247D02*
X23014286Y-32283390D01*
X23014286Y-32283390D02*
X23061905Y-32092914D01*
X23061905Y-32092914D02*
X23109524Y-31997676D01*
X23109524Y-31997676D02*
X23204762Y-31902438D01*
X23204762Y-31902438D02*
X23347619Y-31854819D01*
X23347619Y-31854819D02*
X23442857Y-31854819D01*
X23442857Y-31854819D02*
X23585714Y-31902438D01*
X23585714Y-31902438D02*
X23633333Y-31950057D01*
X24585714Y-32854819D02*
X24014286Y-32854819D01*
X24300000Y-32854819D02*
X24300000Y-31854819D01*
X24300000Y-31854819D02*
X24204762Y-31997676D01*
X24204762Y-31997676D02*
X24109524Y-32092914D01*
X24109524Y-32092914D02*
X24014286Y-32140533D01*
X21333333Y-32719580D02*
X21285714Y-32767200D01*
X21285714Y-32767200D02*
X21142857Y-32814819D01*
X21142857Y-32814819D02*
X21047619Y-32814819D01*
X21047619Y-32814819D02*
X20904762Y-32767200D01*
X20904762Y-32767200D02*
X20809524Y-32671961D01*
X20809524Y-32671961D02*
X20761905Y-32576723D01*
X20761905Y-32576723D02*
X20714286Y-32386247D01*
X20714286Y-32386247D02*
X20714286Y-32243390D01*
X20714286Y-32243390D02*
X20761905Y-32052914D01*
X20761905Y-32052914D02*
X20809524Y-31957676D01*
X20809524Y-31957676D02*
X20904762Y-31862438D01*
X20904762Y-31862438D02*
X21047619Y-31814819D01*
X21047619Y-31814819D02*
X21142857Y-31814819D01*
X21142857Y-31814819D02*
X21285714Y-31862438D01*
X21285714Y-31862438D02*
X21333333Y-31910057D01*
X21714286Y-31910057D02*
X21761905Y-31862438D01*
X21761905Y-31862438D02*
X21857143Y-31814819D01*
X21857143Y-31814819D02*
X22095238Y-31814819D01*
X22095238Y-31814819D02*
X22190476Y-31862438D01*
X22190476Y-31862438D02*
X22238095Y-31910057D01*
X22238095Y-31910057D02*
X22285714Y-32005295D01*
X22285714Y-32005295D02*
X22285714Y-32100533D01*
X22285714Y-32100533D02*
X22238095Y-32243390D01*
X22238095Y-32243390D02*
X21666667Y-32814819D01*
X21666667Y-32814819D02*
X22285714Y-32814819D01*
X21333333Y-21959580D02*
X21285714Y-22007200D01*
X21285714Y-22007200D02*
X21142857Y-22054819D01*
X21142857Y-22054819D02*
X21047619Y-22054819D01*
X21047619Y-22054819D02*
X20904762Y-22007200D01*
X20904762Y-22007200D02*
X20809524Y-21911961D01*
X20809524Y-21911961D02*
X20761905Y-21816723D01*
X20761905Y-21816723D02*
X20714286Y-21626247D01*
X20714286Y-21626247D02*
X20714286Y-21483390D01*
X20714286Y-21483390D02*
X20761905Y-21292914D01*
X20761905Y-21292914D02*
X20809524Y-21197676D01*
X20809524Y-21197676D02*
X20904762Y-21102438D01*
X20904762Y-21102438D02*
X21047619Y-21054819D01*
X21047619Y-21054819D02*
X21142857Y-21054819D01*
X21142857Y-21054819D02*
X21285714Y-21102438D01*
X21285714Y-21102438D02*
X21333333Y-21150057D01*
X22190476Y-21388152D02*
X22190476Y-22054819D01*
X21952381Y-21007200D02*
X21714286Y-21721485D01*
X21714286Y-21721485D02*
X22333333Y-21721485D01*
X23633333Y-21959580D02*
X23585714Y-22007200D01*
X23585714Y-22007200D02*
X23442857Y-22054819D01*
X23442857Y-22054819D02*
X23347619Y-22054819D01*
X23347619Y-22054819D02*
X23204762Y-22007200D01*
X23204762Y-22007200D02*
X23109524Y-21911961D01*
X23109524Y-21911961D02*
X23061905Y-21816723D01*
X23061905Y-21816723D02*
X23014286Y-21626247D01*
X23014286Y-21626247D02*
X23014286Y-21483390D01*
X23014286Y-21483390D02*
X23061905Y-21292914D01*
X23061905Y-21292914D02*
X23109524Y-21197676D01*
X23109524Y-21197676D02*
X23204762Y-21102438D01*
X23204762Y-21102438D02*
X23347619Y-21054819D01*
X23347619Y-21054819D02*
X23442857Y-21054819D01*
X23442857Y-21054819D02*
X23585714Y-21102438D01*
X23585714Y-21102438D02*
X23633333Y-21150057D01*
X23966667Y-21054819D02*
X24585714Y-21054819D01*
X24585714Y-21054819D02*
X24252381Y-21435771D01*
X24252381Y-21435771D02*
X24395238Y-21435771D01*
X24395238Y-21435771D02*
X24490476Y-21483390D01*
X24490476Y-21483390D02*
X24538095Y-21531009D01*
X24538095Y-21531009D02*
X24585714Y-21626247D01*
X24585714Y-21626247D02*
X24585714Y-21864342D01*
X24585714Y-21864342D02*
X24538095Y-21959580D01*
X24538095Y-21959580D02*
X24490476Y-22007200D01*
X24490476Y-22007200D02*
X24395238Y-22054819D01*
X24395238Y-22054819D02*
X24109524Y-22054819D01*
X24109524Y-22054819D02*
X24014286Y-22007200D01*
X24014286Y-22007200D02*
X23966667Y-21959580D01*
X17691666Y-18634819D02*
X17691666Y-19349104D01*
X17691666Y-19349104D02*
X17644047Y-19491961D01*
X17644047Y-19491961D02*
X17548809Y-19587200D01*
X17548809Y-19587200D02*
X17405952Y-19634819D01*
X17405952Y-19634819D02*
X17310714Y-19634819D01*
X18691666Y-19634819D02*
X18120238Y-19634819D01*
X18405952Y-19634819D02*
X18405952Y-18634819D01*
X18405952Y-18634819D02*
X18310714Y-18777676D01*
X18310714Y-18777676D02*
X18215476Y-18872914D01*
X18215476Y-18872914D02*
X18120238Y-18920533D01*
D13*
X22532380Y-26304318D02*
X22532380Y-27332413D01*
X22532380Y-27332413D02*
X22592857Y-27453365D01*
X22592857Y-27453365D02*
X22653333Y-27513842D01*
X22653333Y-27513842D02*
X22774285Y-27574318D01*
X22774285Y-27574318D02*
X23016190Y-27574318D01*
X23016190Y-27574318D02*
X23137142Y-27513842D01*
X23137142Y-27513842D02*
X23197619Y-27453365D01*
X23197619Y-27453365D02*
X23258095Y-27332413D01*
X23258095Y-27332413D02*
X23258095Y-26304318D01*
X24528095Y-27574318D02*
X23802380Y-27574318D01*
X24165237Y-27574318D02*
X24165237Y-26304318D01*
X24165237Y-26304318D02*
X24044285Y-26485746D01*
X24044285Y-26485746D02*
X23923333Y-26606699D01*
X23923333Y-26606699D02*
X23802380Y-26667175D01*
D14*
G04 #@! TO.C,R1*
X28071500Y-29306500D02*
X28071500Y-26893500D01*
X26928500Y-29306500D02*
X28071500Y-29306500D01*
X26928500Y-26893500D02*
X26928500Y-29306500D01*
X28071500Y-26893500D02*
X26928500Y-26893500D01*
G04 #@! TO.C,R2*
X26928500Y-24193500D02*
X26928500Y-26606500D01*
X28071500Y-24193500D02*
X26928500Y-24193500D01*
X28071500Y-26606500D02*
X28071500Y-24193500D01*
X26928500Y-26606500D02*
X28071500Y-26606500D01*
G04 #@! TO.C,C1*
X23684165Y-30840000D02*
X23915835Y-30840000D01*
X23684165Y-31560000D02*
X23915835Y-31560000D01*
G04 #@! TO.C,C2*
X21615835Y-31560000D02*
X21384165Y-31560000D01*
X21615835Y-30840000D02*
X21384165Y-30840000D01*
G04 #@! TO.C,C4*
X21615835Y-23060000D02*
X21384165Y-23060000D01*
X21615835Y-22340000D02*
X21384165Y-22340000D01*
G04 #@! TO.C,C3*
X23684165Y-22340000D02*
X23915835Y-22340000D01*
X23684165Y-23060000D02*
X23915835Y-23060000D01*
G04 #@! TO.C,J1*
X16695000Y-23220000D02*
X16695000Y-33440000D01*
X16695000Y-23220000D02*
X19355000Y-23220000D01*
X16695000Y-33440000D02*
X19355000Y-33440000D01*
X18025000Y-20620000D02*
X19355000Y-20620000D01*
X19355000Y-20620000D02*
X19355000Y-21950000D01*
X19355000Y-23220000D02*
X19355000Y-33440000D01*
D15*
G04 #@! TO.C,U1*
X21000000Y-25500000D02*
X21000000Y-28500000D01*
D10*
X21500000Y-30100000D02*
X21500000Y-30100000D01*
X21500000Y-30200000D02*
X21500000Y-30200000D01*
D15*
X26000000Y-25500000D02*
X26000000Y-28500000D01*
D10*
X21500000Y-30100000D02*
G75*
G02*
X21500000Y-30200000I0J-50000D01*
G01*
X21500000Y-30200000D02*
G75*
G02*
X21500000Y-30100000I0J50000D01*
G01*
G04 #@! TD*
%LPC*%
D16*
G04 #@! TO.C,R1*
X27500000Y-28697500D03*
X27500000Y-27502500D03*
G04 #@! TD*
D17*
G04 #@! TO.C,R2*
X27500000Y-24802500D03*
X27500000Y-25997500D03*
G04 #@! TD*
D18*
G04 #@! TO.C,C1*
X23232500Y-31200000D03*
X24367500Y-31200000D03*
G04 #@! TD*
D19*
G04 #@! TO.C,C2*
X22067500Y-31200000D03*
X20932500Y-31200000D03*
G04 #@! TD*
G04 #@! TO.C,C4*
X22067500Y-22700000D03*
X20932500Y-22700000D03*
G04 #@! TD*
D18*
G04 #@! TO.C,C3*
X23232500Y-22700000D03*
X24367500Y-22700000D03*
G04 #@! TD*
D20*
G04 #@! TO.C,J1*
X18025000Y-21950000D03*
D21*
X18025000Y-24490000D03*
X18025000Y-27030000D03*
X18025000Y-29570000D03*
X18025000Y-32110000D03*
G04 #@! TD*
D22*
G04 #@! TO.C,U1*
X21500000Y-29212000D03*
X22500000Y-29212000D03*
X23500000Y-29212000D03*
X24500000Y-29212000D03*
X25500000Y-29212000D03*
X25500000Y-24787000D03*
X24500000Y-24787000D03*
X23500000Y-24787000D03*
X22500000Y-24787000D03*
X21500000Y-24787000D03*
G04 #@! TD*
%LPD*%
M02*
