G04 #@! TF.GenerationSoftware,KiCad,Pcbnew,10.0.5*
G04 #@! TF.CreationDate,2026-08-08T21:35:42-04:00*
G04 #@! TF.ProjectId,pi_max31328,70695f6d-6178-4333-9133-32382e6b6963,rev?*
G04 #@! TF.SameCoordinates,Original*
G04 #@! TF.FileFunction,Copper,L2,Bot*
G04 #@! TF.FilePolarity,Positive*
%FSLAX46Y46*%
G04 Gerber Fmt 4.6, Leading zero omitted, Abs format (unit mm)*
G04 Created by KiCad (PCBNEW 10.0.5) date 2026-08-08 21:35:42*
%MOMM*%
%LPD*%
G01*
G04 APERTURE LIST*
G04 #@! TA.AperFunction,SMDPad,CuDef*
%ADD10R,2.900000X3.500000*%
G04 #@! TD*
G04 #@! TA.AperFunction,SMDPad,CuDef*
%ADD11R,3.960000X3.960000*%
G04 #@! TD*
G04 #@! TA.AperFunction,ComponentPad*
%ADD12O,1.700000X1.700000*%
G04 #@! TD*
G04 #@! TA.AperFunction,ComponentPad*
%ADD13R,1.700000X1.700000*%
G04 #@! TD*
G04 #@! TA.AperFunction,ViaPad*
%ADD14C,0.600000*%
G04 #@! TD*
G04 #@! TA.AperFunction,Conductor*
%ADD15C,0.300000*%
G04 #@! TD*
G04 #@! TA.AperFunction,Conductor*
%ADD16C,0.200000*%
G04 #@! TD*
G04 APERTURE END LIST*
D10*
G04 #@! TO.P,BAT1,1,+_1_1*
G04 #@! TO.N,/VBAT*
X34200000Y-27000000D03*
D11*
G04 #@! TO.P,BAT1,2,-_2*
G04 #@! TO.N,/GND*
X27600000Y-27000000D03*
D10*
G04 #@! TO.P,BAT1,3,+_2_3*
G04 #@! TO.N,/VBAT*
X21000000Y-27000000D03*
G04 #@! TD*
D12*
G04 #@! TO.P,J1,5,Pin_5_5*
G04 #@! TO.N,/GND*
X18025000Y-32110000D03*
G04 #@! TO.P,J1,4,Pin_4_4*
G04 #@! TO.N,unconnected-(J1-Pin_4-Pad4)*
X18025000Y-29570000D03*
G04 #@! TO.P,J1,3,Pin_3_3*
G04 #@! TO.N,/SCL*
X18025000Y-27030000D03*
G04 #@! TO.P,J1,2,Pin_2_2*
G04 #@! TO.N,/SDA*
X18025000Y-24490000D03*
D13*
G04 #@! TO.P,J1,1,Pin_1_1*
G04 #@! TO.N,/VCC*
X18025000Y-21950000D03*
G04 #@! TD*
D14*
G04 #@! TO.N,/VBAT*
X23500000Y-23500000D03*
G04 #@! TO.N,/GND*
X28450000Y-31850000D03*
X25500000Y-23800000D03*
X21000000Y-23449500D03*
X24825000Y-28025000D03*
G04 #@! TO.N,/VCC*
X20450000Y-29675000D03*
G04 #@! TD*
G04 #@! TO.N,/VBAT*
D15*
X34200000Y-24900000D02*
X34200000Y-27000000D01*
X24000000Y-23000000D02*
X32300000Y-23000000D01*
X22073320Y-23500000D02*
X23500000Y-23500000D01*
X21000000Y-27000000D02*
X21000000Y-24573320D01*
X21000000Y-24573320D02*
X22073320Y-23500000D01*
X23500000Y-23500000D02*
X24000000Y-23000000D01*
X32300000Y-23000000D02*
X34200000Y-24900000D01*
G04 #@! TO.N,/GND*
D16*
X26600000Y-23800000D02*
X27600000Y-24800000D01*
X25500000Y-23800000D02*
X26600000Y-23800000D01*
X27600000Y-24800000D02*
X27600000Y-27000000D01*
G04 #@! TO.N,/VCC*
X19175000Y-23100000D02*
X19175000Y-28975000D01*
X19175000Y-28975000D02*
X19875000Y-29675000D01*
X19875000Y-29675000D02*
X20450000Y-29675000D01*
X18025000Y-21950000D02*
X19175000Y-23100000D01*
G04 #@! TD*
G04 #@! TA.AperFunction,Conductor*
G04 #@! TO.N,/GND*
G36*
X36742539Y-20520185D02*
G01*
X36788294Y-20572989D01*
X36799500Y-20624500D01*
X36799500Y-33375500D01*
X36779815Y-33442539D01*
X36727011Y-33488294D01*
X36675500Y-33499500D01*
X16624500Y-33499500D01*
X16557461Y-33479815D01*
X16511706Y-33427011D01*
X16500500Y-33375500D01*
X16500500Y-30031284D01*
X16520185Y-29964245D01*
X16572989Y-29918490D01*
X16642147Y-29908546D01*
X16705703Y-29937571D01*
X16742430Y-29992964D01*
X16773211Y-30087698D01*
X16773444Y-30088414D01*
X16869951Y-30277820D01*
X16994890Y-30449786D01*
X17145213Y-30600109D01*
X17317179Y-30725048D01*
X17317181Y-30725049D01*
X17317184Y-30725051D01*
X17506588Y-30821557D01*
X17708757Y-30887246D01*
X17918713Y-30920500D01*
X17918714Y-30920500D01*
X18131286Y-30920500D01*
X18131287Y-30920500D01*
X18341243Y-30887246D01*
X18543412Y-30821557D01*
X18732816Y-30725051D01*
X18754789Y-30709086D01*
X18904786Y-30600109D01*
X18904788Y-30600106D01*
X18904792Y-30600104D01*
X19055104Y-30449792D01*
X19055106Y-30449788D01*
X19055109Y-30449786D01*
X19166266Y-30296789D01*
X19180051Y-30277816D01*
X19253964Y-30132752D01*
X19301938Y-30081956D01*
X19369759Y-30065161D01*
X19435894Y-30087698D01*
X19452130Y-30101366D01*
X19506284Y-30155520D01*
X19506286Y-30155521D01*
X19506290Y-30155524D01*
X19643209Y-30234573D01*
X19643216Y-30234577D01*
X19755019Y-30264534D01*
X19795942Y-30275500D01*
X19795943Y-30275500D01*
X19870234Y-30275500D01*
X19937273Y-30295185D01*
X19939125Y-30296398D01*
X20070814Y-30384390D01*
X20070827Y-30384397D01*
X20216498Y-30444735D01*
X20216503Y-30444737D01*
X20371153Y-30475499D01*
X20371156Y-30475500D01*
X20371158Y-30475500D01*
X20528844Y-30475500D01*
X20528845Y-30475499D01*
X20683497Y-30444737D01*
X20829179Y-30384394D01*
X20960289Y-30296789D01*
X21071789Y-30185289D01*
X21159394Y-30054179D01*
X21219737Y-29908497D01*
X21250500Y-29753842D01*
X21250500Y-29596158D01*
X21250500Y-29596155D01*
X21250499Y-29596153D01*
X21219738Y-29441510D01*
X21219737Y-29441503D01*
X21211638Y-29421950D01*
X21204171Y-29352480D01*
X21235446Y-29290002D01*
X21295536Y-29254350D01*
X21326200Y-29250499D01*
X22497871Y-29250499D01*
X22497872Y-29250499D01*
X22557483Y-29244091D01*
X22692331Y-29193796D01*
X22807546Y-29107546D01*
X22893796Y-28992331D01*
X22944091Y-28857483D01*
X22950500Y-28797873D01*
X22950499Y-25202128D01*
X22944091Y-25142517D01*
X22893796Y-25007669D01*
X22893795Y-25007668D01*
X22893793Y-25007664D01*
X22807547Y-24892455D01*
X22807544Y-24892452D01*
X22692335Y-24806206D01*
X22692328Y-24806202D01*
X22557482Y-24755908D01*
X22557483Y-24755908D01*
X22497883Y-24749501D01*
X22497881Y-24749500D01*
X22497873Y-24749500D01*
X22497865Y-24749500D01*
X22043127Y-24749500D01*
X21976088Y-24729815D01*
X21930333Y-24677011D01*
X21920389Y-24607853D01*
X21949414Y-24544297D01*
X21955446Y-24537819D01*
X22109553Y-24383713D01*
X22306447Y-24186819D01*
X22367770Y-24153334D01*
X22394128Y-24150500D01*
X22995065Y-24150500D01*
X23062104Y-24170185D01*
X23063909Y-24171366D01*
X23120821Y-24209394D01*
X23120823Y-24209395D01*
X23120827Y-24209397D01*
X23266498Y-24269735D01*
X23266503Y-24269737D01*
X23421153Y-24300499D01*
X23421156Y-24300500D01*
X23421158Y-24300500D01*
X23578844Y-24300500D01*
X23578845Y-24300499D01*
X23733497Y-24269737D01*
X23879179Y-24209394D01*
X24010289Y-24121789D01*
X24121789Y-24010289D01*
X24209394Y-23879179D01*
X24269737Y-23733497D01*
X24269737Y-23733496D01*
X24272068Y-23727869D01*
X24274522Y-23728885D01*
X24306510Y-23680070D01*
X24370321Y-23651610D01*
X24386878Y-23650500D01*
X31979192Y-23650500D01*
X32046231Y-23670185D01*
X32066873Y-23686819D01*
X32917873Y-24537819D01*
X32951358Y-24599142D01*
X32946374Y-24668834D01*
X32904502Y-24724767D01*
X32839038Y-24749184D01*
X32830193Y-24749500D01*
X32702130Y-24749500D01*
X32702123Y-24749501D01*
X32642516Y-24755908D01*
X32507671Y-24806202D01*
X32507664Y-24806206D01*
X32392455Y-24892452D01*
X32392452Y-24892455D01*
X32306206Y-25007664D01*
X32306202Y-25007671D01*
X32255908Y-25142517D01*
X32249963Y-25197816D01*
X32249501Y-25202123D01*
X32249500Y-25202135D01*
X32249500Y-28797870D01*
X32249501Y-28797876D01*
X32255908Y-28857483D01*
X32306202Y-28992328D01*
X32306206Y-28992335D01*
X32392452Y-29107544D01*
X32392455Y-29107547D01*
X32507664Y-29193793D01*
X32507671Y-29193797D01*
X32642517Y-29244091D01*
X32642516Y-29244091D01*
X32649444Y-29244835D01*
X32702127Y-29250500D01*
X35697872Y-29250499D01*
X35757483Y-29244091D01*
X35892331Y-29193796D01*
X36007546Y-29107546D01*
X36093796Y-28992331D01*
X36144091Y-28857483D01*
X36150500Y-28797873D01*
X36150499Y-25202128D01*
X36144091Y-25142517D01*
X36093796Y-25007669D01*
X36093795Y-25007668D01*
X36093793Y-25007664D01*
X36007547Y-24892455D01*
X36007544Y-24892452D01*
X35892335Y-24806206D01*
X35892328Y-24806202D01*
X35757482Y-24755908D01*
X35757483Y-24755908D01*
X35697883Y-24749501D01*
X35697881Y-24749500D01*
X35697873Y-24749500D01*
X35697865Y-24749500D01*
X34924611Y-24749500D01*
X34857572Y-24729815D01*
X34811817Y-24677011D01*
X34810050Y-24672953D01*
X34776467Y-24591878D01*
X34776465Y-24591873D01*
X34774239Y-24588541D01*
X34705277Y-24485331D01*
X34705275Y-24485329D01*
X34705273Y-24485326D01*
X32714673Y-22494726D01*
X32714669Y-22494723D01*
X32608127Y-22423535D01*
X32489744Y-22374499D01*
X32489738Y-22374497D01*
X32364071Y-22349500D01*
X32364069Y-22349500D01*
X23935931Y-22349500D01*
X23935929Y-22349500D01*
X23810261Y-22374497D01*
X23810255Y-22374499D01*
X23691874Y-22423534D01*
X23585331Y-22494723D01*
X23397068Y-22682985D01*
X23335744Y-22716469D01*
X23333579Y-22716920D01*
X23266508Y-22730261D01*
X23266498Y-22730264D01*
X23120827Y-22790602D01*
X23120820Y-22790606D01*
X23091928Y-22809911D01*
X23063955Y-22828602D01*
X22997279Y-22849480D01*
X22995065Y-22849500D01*
X22009249Y-22849500D01*
X21883581Y-22874497D01*
X21883575Y-22874499D01*
X21803946Y-22907483D01*
X21803945Y-22907483D01*
X21765196Y-22923532D01*
X21658646Y-22994726D01*
X20494726Y-24158646D01*
X20434021Y-24249500D01*
X20434020Y-24249502D01*
X20423533Y-24265195D01*
X20374499Y-24383575D01*
X20374497Y-24383581D01*
X20349500Y-24509248D01*
X20349500Y-24625500D01*
X20329815Y-24692539D01*
X20277011Y-24738294D01*
X20225500Y-24749500D01*
X19899500Y-24749500D01*
X19832461Y-24729815D01*
X19786706Y-24677011D01*
X19775500Y-24625500D01*
X19775500Y-23189060D01*
X19775501Y-23189047D01*
X19775501Y-23020944D01*
X19767976Y-22992861D01*
X19734577Y-22868216D01*
X19734573Y-22868209D01*
X19655524Y-22731290D01*
X19655518Y-22731282D01*
X19411818Y-22487582D01*
X19378333Y-22426259D01*
X19375499Y-22399901D01*
X19375499Y-21052129D01*
X19375498Y-21052123D01*
X19369091Y-20992516D01*
X19318797Y-20857671D01*
X19318793Y-20857664D01*
X19232547Y-20742455D01*
X19207582Y-20723766D01*
X19165712Y-20667832D01*
X19160728Y-20598140D01*
X19194214Y-20536818D01*
X19255538Y-20503333D01*
X19281894Y-20500500D01*
X19434108Y-20500500D01*
X36675500Y-20500500D01*
X36742539Y-20520185D01*
G37*
G04 #@! TD.AperFunction*
G04 #@! TD*
M02*
